<svg xmlns="http://www.w3.org/2000/svg" xmlns:xlink="http://www.w3.org/1999/xlink" style="isolation:isolate" width="104" height="174.74169867397563"><path d="M 103.5 27.810153209633626 L 54.50000000000003 7.8487242757973945 L 54.50000000000006 5.882763452653393 L 70.49999999999994 0.5 L 76.63706422723018 3.075907917000958 L 76.96434842934377 7.606483531158148 L 103.49999999999997 17.93705241614387 L 103.5 27.810153209633626 Z" style="stroke:none;fill:#4ABBF0;stroke-miterlimit:10;"/><path d="M 12.500000000000007 45.89771429947103 L 3.500000000000007 40.882763452653336 L 3.500000000000007 36.30605009641863 L 0.5000000000000071 34.64318364251591 L 0.5000000000000071 22.20645706461619 L 11.500000000000007 17.93705241614387 L 15.500000000000007 19.83555714158024 L 22.84577311174349 16.882763452653364 L 31.500000000000007 21.404226180603473 L 33.321356669932406 21.013166710946592 L 35.36218210854455 19.83555714158024 L 35.50000000000001 25.88276345265334 L 59.499999999999936 35.69493367536035 L 60.417174756346704 36.03693301456252 L 64.54502065394917 33.88276345265336 L 64.54502065394917 42.882763452653364 L 74.5 47.34005428865311 C 75.67078857999999 49.89343067914405 77.20814424139095 47.47010929309765 77.5 53.882763452653364 C 77.51098346754551 54.12409218016499 77.51919615199374 54.35936624575178 77.52181170661848 54.58240957091588 L 75 55.99876469189513 L 77.21463403491424 58.65741983594129 C 76.55908182696244 61.617539269873205 74.87848254114493 63.17420913580822 72 64.88276345265342 L 69.50000000000003 64.88276345265342 L 65.00159063135385 62.882763452653336 L 64.54502065394917 67.99898285395894 L 60.34786005827748 69.88276345265338 L 60.34786005827748 60.37989656281377 L 57.50000000000001 60.882763452653364 L 52.62558741209296 58.882763452653315 L 52.62558741209296 57.660312165095554 L 50.49999999999998 56.882763452653336 L 45.20419140132004 59.882763452653364 L 44.499999999999964 53.70510021567631 L 20.61032387540694 41.88276345265331 L 12.500000000000007 45.89771429947103 Z" style="stroke:none;fill:#4ABBF0;stroke-miterlimit:10;"/><path d="M 77.21463403491424 58.65741983594129 L 75 55.99876469189513 L 77.52181170661848 54.58240957091588 C 77.56274924534289 56.20429344408746 77.46232154220304 57.531865027412756 77.21463403491424 58.65741983594129 Z" style="stroke:none;fill:#4ABBF0;stroke-miterlimit:10;"/><path d="M 77.52181170661848 54.58240957091588 L 79.39211797975591 53.53196720013716 L 79.49999999999997 49.88974223057605 L 85.50000000000001 52.47379933358687 L 85.50000000000003 58.88276345265332 L 82 56.882763452653336 L 77.5 59 L 77.21463403491424 58.65741983594129 C 77.46232154220304 57.531865027412756 77.56274924534289 56.20429344408746 77.52181170661848 54.58240957091588 Z" style="stroke:none;fill:#4ABBF0;stroke-miterlimit:10;"/><path d="M 29.682579052678022 25.378091232864477 C 29.682579052678022 25.06022133024931 29.93494712044653 24.42238225613834 29.986197883285662 24.090049727460897 C 30.277867444731342 23.99362929654366 30.689812724447087 23.876485146463626 30.84960283356847 24.013100634935626 L 58.388645687035506 36.15339176275265 L 55.96952252151203 37.151333253323685 L 29.682579052678022 25.378091232864477 Z" style="stroke:none;fill:#B0B0B0;stroke-miterlimit:10;"/><path d="M 29.986197883285662 24.090049727460897 C 29.56823345072982 24.225064496827937 29.300967759147696 24.335636460136964 29.682579052678022 24.013100634935626 C 29.968422323637547 23.771507430436152 30.023709508526846 23.86014498426103 29.986197883285662 24.090049727460897 Z" style="stroke:none;fill:#B0B0B0;stroke-miterlimit:10;"/><path d="M 44.49999999999994 58.124920888452664 L 15.500000000000007 44.3551974118777 C 14.828295335269107 43.662490251989944 14.107925406533141 42.323776219599424 15.500000000000007 41.882763452653315 C 16.892074593466873 41.441750685707206 17.329211420000004 42.89338471717439 18.5 43.54023385788577 L 44.49999999999995 55.80851827415834 L 44.49999999999994 58.124920888452664 Z" style="stroke:none;fill:#B0B0B0;stroke-miterlimit:10;"/><path d="M 53.52160895160151 37.882763452653364 L 44.49999999999997 41.882763452653336 L 44.49999999999997 53.53196720013717 L 21.32379211396261 42.88276345265337 L 20 40.88276345265334 L 19.500000000000004 36.49495079670749 L 19.500000000000004 30.203135573439177 L 22.000000000000004 26.19243928929004 L 24.000000000000004 25.115178686938012 L 27.7803577450355 25.758927005346408 L 53.52160895160151 37.882763452653364 Z" style="stroke:none;fill:#B0B0B0;stroke-miterlimit:10;"/><path d="M 63.27981362616907 147.2761648780272 L 63.2798136261691 158.5316936361579 L 51.50000000000013 163.93622780937193 L 51.39483487363848 160.0195991790108 L 52.49999999999998 160.0195991790108 L 52.16279152954208 151.1598946151272 L 63.27981362616907 147.2761648780272 Z" style="stroke:none;fill:#E8E072;stroke-miterlimit:10;"/><path d="M 51.166291095843086 151.5080218684286 L 51.39483487363848 160.0195991790108 L 48.919608756848135 160.0195991790108 L 48.10301974721036 159.56737026424622 L 42.83299324341606 161.88276345265342 L 40.99999999999999 161.01157344572593 L 41.5 149.88276345265342 L 52 146.88276345265336 L 52.16279152954208 151.1598946151272 L 51.166291095843086 151.5080218684286 Z" style="stroke:none;fill:#E8E072;stroke-miterlimit:10;"/><path d="M 52.16279152954208 151.1598946151272 L 52.49999999999998 160.0195991790108 L 51.39483487363848 160.0195991790108 L 51.166291095843086 151.5080218684286 L 52.16279152954208 151.1598946151272 Z" style="stroke:none;fill:#E8E072;stroke-miterlimit:10;"/><path d="M 53.52160895160151 163.0710285378625 L 53.52160895160151 165 L 53 166.00000000000003 L 52 167 L 51.50000000000013 168 L 51.50000000000012 169.00000000000003 L 52 170 L 53 170 L 53.52160895160151 169.00000000000003 C 53.8664035622143 168.57666126140415 54.59537268057694 167.86175137057285 54.50000000000006 168 C 54.40462731942317 168.13824862942715 55.414605710000025 167.39026286 56 167 L 57 168 L 57.5 169 L 55.96952252151203 172 L 54.99999999999999 173 L 53.79832752214685 174 L 51.50000000000011 174 L 49.49388141425146 173 L 48.10301974721037 170.99999999999997 L 47.92867979234825 167 L 48.58348482191161 166 L 49.49388141425146 164.88276345265336 L 49.53849214619794 161 L 51.50000000000011 163.93622780937193 L 53.52160895160151 163.0710285378625 Z" style="stroke:none;fill:#000000;stroke-miterlimit:10;"/><path d="M 103.5 17.93705241614387 L 103.5 27.5659240029201" style="fill:none;stroke:#000000;stroke-width:1;stroke-linecap:round;stroke-miterlimit:1;"/><path d="M 103.5 27.5659240029201 L 92.50000000000003 22.880253033390005" style="fill:none;stroke:#000000;stroke-width:1;stroke-linecap:round;stroke-miterlimit:1;"/><path d="M 92.50000000000003 22.880253033390005 L 95.78457140177676 21.404226180603473" style="fill:none;stroke:#000000;stroke-width:1;stroke-linecap:round;stroke-miterlimit:1;"/><path d="M 95.78457140177676 21.404226180603473 L 100.46719904166793 19.299938195163122" style="fill:none;stroke:#000000;stroke-width:1;stroke-linecap:round;stroke-miterlimit:1;"/><path d="M 100.46719904166793 19.299938195163122 L 103.5 17.93705241614387" style="fill:none;stroke:#000000;stroke-width:1;stroke-linecap:round;stroke-miterlimit:1;"/><path d="M 103.5 17.93705241614387 L 76.69658053377069 7.640508006999767" style="fill:none;stroke:#000000;stroke-width:1;stroke-linecap:round;stroke-miterlimit:1;"/><path d="M 76.69658053377069 7.640508006999767 L 74.16533212708143 6.668127909643573" style="fill:none;stroke:#000000;stroke-width:1;stroke-linecap:round;stroke-miterlimit:1;"/><path d="M 74.16533212708143 6.668127909643573 L 71.5004331391365 7.606483531158148" style="fill:none;stroke:#000000;stroke-width:1;stroke-linecap:round;stroke-miterlimit:1;"/><path d="M 71.5004331391365 7.606483531158148 L 66.84816972917008 9.24462349190577" style="fill:none;stroke:#000000;stroke-width:1;stroke-linecap:round;stroke-miterlimit:1;"/><path d="M 66.84816972917008 9.24462349190577 L 62.19590631920369 10.882763452653421" style="fill:none;stroke:#000000;stroke-width:1;stroke-linecap:round;stroke-miterlimit:1;"/><path d="M 62.19590631920369 10.882763452653421 L 92.50000000000003 22.880253033390005" style="fill:none;stroke:#000000;stroke-width:1;stroke-linecap:round;stroke-miterlimit:1;"/><path d="M 76.69658053377069 7.640508006999767 L 76.69658053377071 3.0759079170009613" style="fill:none;stroke:#000000;stroke-width:1;stroke-linecap:round;stroke-miterlimit:1;"/><path d="M 76.69658053377071 3.0759079170009613 L 70.45914204370104 0.5" style="fill:none;stroke:#000000;stroke-width:1;stroke-linecap:round;stroke-miterlimit:1;"/><path d="M 70.45914204370104 0.5 L 54.50000000000006 5.882763452653393" style="fill:none;stroke:#000000;stroke-width:1;stroke-linecap:round;stroke-miterlimit:1;"/><path d="M 54.50000000000006 5.882763452653393 L 54.50000000000006 7.8487242757973945" style="fill:none;stroke:#000000;stroke-width:1;stroke-linecap:round;stroke-miterlimit:1;"/><path d="M 54.50000000000006 5.882763452653393 L 61.62602676738291 8.882763452653393" style="fill:none;stroke:#000000;stroke-width:1;stroke-linecap:round;stroke-miterlimit:1;"/><path d="M 61.62602676738291 8.882763452653393 L 76.69658053377071 3.0759079170009613" style="fill:none;stroke:#000000;stroke-width:1;stroke-linecap:round;stroke-miterlimit:1;"/><path d="M 61.62602676738291 8.882763452653393 L 61.69932350247433 10.88276345265345" style="fill:none;stroke:#000000;stroke-width:1;stroke-linecap:round;stroke-miterlimit:1;"/><path d="M 61.69932350247433 10.88276345265345 L 54.50000000000006 7.8487242757973945" style="fill:none;stroke:#000000;stroke-width:1;stroke-linecap:round;stroke-miterlimit:1;"/><path d="M 61.69932350247433 10.88276345265345 L 62.19590631920369 10.882763452653421" style="fill:none;stroke:#000000;stroke-width:1;stroke-linecap:round;stroke-miterlimit:1;"/><path d="M 100.46719904166793 19.299938195163122 L 71.5004331391365 7.606483531158148" style="fill:none;stroke:#000000;stroke-width:1;stroke-linecap:round;stroke-miterlimit:1;"/><path d="M 95.78457140177676 21.404226180603473 L 66.84816972917008 9.24462349190577" style="fill:none;stroke:#000000;stroke-width:1;stroke-linecap:round;stroke-miterlimit:1;"/><path d="M 85.5 52.47379933358687 L 85.5 58.88276345265331" style="fill:none;stroke:#000000;stroke-width:1;stroke-linecap:round;stroke-miterlimit:1;"/><path d="M 85.5 58.88276345265331 L 81.49999999999997 56.882763452653336" style="fill:none;stroke:#000000;stroke-width:1;stroke-linecap:round;stroke-miterlimit:1;"/><path d="M 81.49999999999997 56.882763452653336 L 84.5 55.41351773869235" style="fill:none;stroke:#000000;stroke-width:1;stroke-linecap:round;stroke-miterlimit:1;"/><path d="M 84.5 55.41351773869235 L 84.5 52.812933261127995" style="fill:none;stroke:#000000;stroke-width:1;stroke-linecap:round;stroke-miterlimit:1;"/><path d="M 84.5 52.812933261127995 L 82.49999999999994 51.90425635405356" style="fill:none;stroke:#000000;stroke-width:1;stroke-linecap:round;stroke-miterlimit:1;"/><path d="M 82.49999999999994 51.90425635405356 L 79.39211797975591 53.55909706461051" style="fill:none;stroke:#000000;stroke-width:1;stroke-linecap:round;stroke-miterlimit:1;"/><path d="M 79.39211797975591 53.55909706461051 L 77.5 54.56658507145289" style="fill:none;stroke:#000000;stroke-width:1;stroke-linecap:round;stroke-miterlimit:1;"/><path d="M 85.5 52.47379933358687 L 79.49999999999997 49.77618712033677" style="fill:none;stroke:#000000;stroke-width:1;stroke-linecap:round;stroke-miterlimit:1;"/><path d="M 79.49999999999997 49.77618712033677 L 79.39211797975591 53.55909706461051" style="fill:none;stroke:#000000;stroke-width:1;stroke-linecap:round;stroke-miterlimit:1;"/><path d="M 81.49999999999997 56.882763452653336 L 77.5 58.88276345265325" style="fill:none;stroke:#000000;stroke-width:1;stroke-linecap:round;stroke-miterlimit:1;"/><path d="M 64.45990965000004 33.882763452653364 L 60.34786005827749 36.30605009641863" style="fill:none;stroke:#000000;stroke-width:1;stroke-linecap:round;stroke-miterlimit:1;"/><path d="M 60.34786005827749 36.30605009641863 L 60.4171747563467 40.88276345265331" style="fill:none;stroke:#000000;stroke-width:1;stroke-linecap:round;stroke-miterlimit:1;"/><path d="M 60.4171747563467 40.88276345265331 L 64.54502065394917 42.77547326235717" style="fill:none;stroke:#000000;stroke-width:1;stroke-linecap:round;stroke-miterlimit:1;"/><path d="M 64.54502065394917 42.77547326235717 L 67.99027032535133 44.3551974118777" style="fill:none;stroke:#000000;stroke-width:1;stroke-linecap:round;stroke-miterlimit:1;"/><path d="M 67.99027032535133 44.3551974118777 L 74.5 47.34005428865311" style="fill:none;stroke:#000000;stroke-width:1;stroke-linecap:round;stroke-miterlimit:1;"/><path d="M 60.34786005827749 36.30605009641863 L 59.49999999999997 35.694933675360346" style="fill:none;stroke:#000000;stroke-width:1;stroke-linecap:round;stroke-miterlimit:1;"/><path d="M 59.49999999999997 35.694933675360346 L 58.388645687035506 36.15339176275265" style="fill:none;stroke:#000000;stroke-width:1;stroke-linecap:round;stroke-miterlimit:1;"/><path d="M 58.388645687035506 36.15339176275265 L 55.969522521512005 37.151333253323685" style="fill:none;stroke:#000000;stroke-width:1;stroke-linecap:round;stroke-miterlimit:1;"/><path d="M 55.969522521512005 37.151333253323685 L 47.470533798579226 40.65735295309972" style="fill:none;stroke:#000000;stroke-width:1;stroke-linecap:round;stroke-miterlimit:1;"/><path d="M 47.470533798579226 40.65735295309972 L 45.20419140132003 41.5922690178532" style="fill:none;stroke:#000000;stroke-width:1;stroke-linecap:round;stroke-miterlimit:1;"/><path d="M 45.20419140132003 41.5922690178532 L 44.49999999999997 41.882763452653336" style="fill:none;stroke:#000000;stroke-width:1;stroke-linecap:round;stroke-miterlimit:1;"/><path d="M 44.49999999999997 41.882763452653336 L 44.49999999999997 43.82654754816252" style="fill:none;stroke:#000000;stroke-width:1;stroke-linecap:round;stroke-miterlimit:1;"/><path d="M 44.49999999999997 43.82654754816252 L 44.49999999999997 47.252114100547544" style="fill:none;stroke:#000000;stroke-width:1;stroke-linecap:round;stroke-miterlimit:1;"/><path d="M 44.49999999999997 47.252114100547544 L 44.49999999999994 53.70510021567631" style="fill:none;stroke:#000000;stroke-width:1;stroke-linecap:round;stroke-miterlimit:1;"/><path d="M 44.49999999999994 53.70510021567631 L 44.49999999999994 55.80851827415833" style="fill:none;stroke:#000000;stroke-width:1;stroke-linecap:round;stroke-miterlimit:1;"/><path d="M 44.49999999999994 55.80851827415833 L 44.49999999999994 58.325107736985075" style="fill:none;stroke:#000000;stroke-width:1;stroke-linecap:round;stroke-miterlimit:1;"/><path d="M 44.49999999999994 58.325107736985075 L 44.49999999999994 59.88276345265331" style="fill:none;stroke:#000000;stroke-width:1;stroke-linecap:round;stroke-miterlimit:1;"/><path d="M 44.49999999999994 59.88276345265331 L 50.49999999999997 56.882763452653336" style="fill:none;stroke:#000000;stroke-width:1;stroke-linecap:round;stroke-miterlimit:1;"/><path d="M 59.49999999999997 59.88276345265331 L 59.49999999999997 58.1147659311369" style="fill:none;stroke:#000000;stroke-width:1;stroke-linecap:round;stroke-miterlimit:1;"/><path d="M 59.49999999999997 58.1147659311369 L 59.49999999999994 55.99876469189513" style="fill:none;stroke:#000000;stroke-width:1;stroke-linecap:round;stroke-miterlimit:1;"/><path d="M 59.49999999999994 55.99876469189513 L 59.49999999999994 53.882763452653364" style="fill:none;stroke:#000000;stroke-width:1;stroke-linecap:round;stroke-miterlimit:1;"/><path d="M 59.49999999999997 59.88276345265331 L 57.5 60.882763452653364" style="fill:none;stroke:#000000;stroke-width:1;stroke-linecap:round;stroke-miterlimit:1;"/><path d="M 57.5 60.882763452653364 L 57.5 53.55909706461051" style="fill:none;stroke:#000000;stroke-width:1;stroke-linecap:round;stroke-miterlimit:1;"/><path d="M 57.5 53.55909706461051 L 52.49999999999997 51.64123333965273" style="fill:none;stroke:#000000;stroke-width:1;stroke-linecap:round;stroke-miterlimit:1;"/><path d="M 52.49999999999997 51.64123333965273 L 52.49999999999997 53.02999662687131" style="fill:none;stroke:#000000;stroke-width:1;stroke-linecap:round;stroke-miterlimit:1;"/><path d="M 52.49999999999997 53.02999662687131 L 52.49999999999997 54.41875991408989" style="fill:none;stroke:#000000;stroke-width:1;stroke-linecap:round;stroke-miterlimit:1;"/><path d="M 52.49999999999997 54.41875991408989 L 52.49999999999997 57.66031216509555" style="fill:none;stroke:#000000;stroke-width:1;stroke-linecap:round;stroke-miterlimit:1;"/><path d="M 52.49999999999997 57.66031216509555 L 52.49999999999997 58.88276345265322" style="fill:none;stroke:#000000;stroke-width:1;stroke-linecap:round;stroke-miterlimit:1;"/><path d="M 52.49999999999997 58.88276345265322 L 53.79832752214685 59.40209446151201" style="fill:none;stroke:#000000;stroke-width:1;stroke-linecap:round;stroke-miterlimit:1;"/><path d="M 53.79832752214685 59.40209446151201 L 55.95637625903703 60.26531395626813" style="fill:none;stroke:#000000;stroke-width:1;stroke-linecap:round;stroke-miterlimit:1;"/><path d="M 55.95637625903703 60.26531395626813 L 57.5 60.882763452653364" style="fill:none;stroke:#000000;stroke-width:1;stroke-linecap:round;stroke-miterlimit:1;"/><path d="M 35.5 19.83555714158024 L 32.5 21.404226180603473" style="fill:none;stroke:#000000;stroke-width:1;stroke-linecap:round;stroke-miterlimit:1;"/><path d="M 32.5 21.404226180603473 L 30.853249091374323 21.013166710946592" style="fill:none;stroke:#000000;stroke-width:1;stroke-linecap:round;stroke-miterlimit:1;"/><path d="M 30.853249091374323 21.013166710946592 L 12.085398929406807 28.882763452653364" style="fill:none;stroke:#000000;stroke-width:1;stroke-linecap:round;stroke-miterlimit:1;"/><path d="M 15.5 19.83555714158024 L 11.5 17.937052416143842" style="fill:none;stroke:#000000;stroke-width:1;stroke-linecap:round;stroke-miterlimit:1;"/><path d="M 11.5 17.937052416143842 L 0.5 22.20645706461619" style="fill:none;stroke:#000000;stroke-width:1;stroke-linecap:round;stroke-miterlimit:1;"/><path d="M 0.5 22.20645706461619 L 0.5 34.64318364251591" style="fill:none;stroke:#000000;stroke-width:1;stroke-linecap:round;stroke-miterlimit:1;"/><path d="M 0.5 34.64318364251591 L 3.5 36.494950796707485" style="fill:none;stroke:#000000;stroke-width:1;stroke-linecap:round;stroke-miterlimit:1;"/><path d="M 3.5 36.494950796707485 L 3.6125956264421575 25.11517868693801" style="fill:none;stroke:#000000;stroke-width:1;stroke-linecap:round;stroke-miterlimit:1;"/><path d="M 3.6125956264421575 25.11517868693801 L 4.911667223133236 24.53821451752617" style="fill:none;stroke:#000000;stroke-width:1;stroke-linecap:round;stroke-miterlimit:1;"/><path d="M 4.911667223133236 24.53821451752617 L 15.5 19.83555714158024" style="fill:none;stroke:#000000;stroke-width:1;stroke-linecap:round;stroke-miterlimit:1;"/><path d="M 3.5 36.494950796707485 L 3.6125956264421575 40.882763452653336" style="fill:none;stroke:#000000;stroke-width:1;stroke-linecap:round;stroke-miterlimit:1;"/><path d="M 3.6125956264421575 40.882763452653336 L 12.5 45.85306518855134" style="fill:none;stroke:#000000;stroke-width:1;stroke-linecap:round;stroke-miterlimit:1;"/><path d="M 12.5 45.85306518855134 L 12.085398929406807 28.882763452653364" style="fill:none;stroke:#000000;stroke-width:1;stroke-linecap:round;stroke-miterlimit:1;"/><path d="M 12.5 45.85306518855134 L 14.5 44.88276345265331" style="fill:none;stroke:#000000;stroke-width:1;stroke-linecap:round;stroke-miterlimit:1;"/><path d="M 12.085398929406807 28.882763452653364 L 3.6125956264421575 25.11517868693801" style="fill:none;stroke:#000000;stroke-width:1;stroke-linecap:round;stroke-miterlimit:1;"/><path d="M 0.5 22.20645706461619 L 4.911667223133236 24.53821451752617" style="fill:none;stroke:#000000;stroke-width:1;stroke-linecap:round;stroke-miterlimit:1;"/><path d="M 15.5 19.83555714158024 L 22.845773111743483 16.882763452653364" style="fill:none;stroke:#000000;stroke-width:1;stroke-linecap:round;stroke-miterlimit:1;"/><path d="M 22.845773111743483 16.882763452653364 L 30.853249091374323 21.013166710946592" style="fill:none;stroke:#000000;stroke-width:1;stroke-linecap:round;stroke-miterlimit:1;"/><path d="M 64.45990965000004 33.882763452653364 L 64.54502065394917 42.77547326235717" style="fill:none;stroke:#000000;stroke-width:1;stroke-linecap:round;stroke-miterlimit:1;"/><path d="M 32.5 21.404226180603473 L 32.5 24.5382145175262" style="fill:none;stroke:#000000;stroke-width:1;stroke-linecap:round;stroke-miterlimit:1;"/><path d="M 58.388645687035506 36.15339176275265 L 35.60805491855518 26.10688585688544" style="fill:none;stroke:#000000;stroke-width:1;stroke-linecap:round;stroke-miterlimit:1;"/><path d="M 35.60805491855518 26.10688585688544 L 31.5 24.295185782013135" style="fill:none;stroke:#000000;stroke-width:1;stroke-linecap:round;stroke-miterlimit:1;"/><path d="M 50.49999999999997 56.882763452653336 L 52.49999999999997 57.66031216509555" style="fill:none;stroke:#000000;stroke-width:1;stroke-linecap:round;stroke-miterlimit:1;"/><path d="M 59.49999999999994 53.882763452653364 L 59.5 52.88276345265339" style="fill:none;stroke:#000000;stroke-width:1;stroke-linecap:round;stroke-miterlimit:1;"/><path d="M 59.5 52.88276345265339 L 57.5 53.55909706461051" style="fill:none;stroke:#000000;stroke-width:1;stroke-linecap:round;stroke-miterlimit:1;"/><path d="M 59.5 52.88276345265339 L 54.50000000000003 50.88276345265339" style="fill:none;stroke:#000000;stroke-width:1;stroke-linecap:round;stroke-miterlimit:1;"/><path d="M 54.50000000000003 50.88276345265339 L 52.49999999999997 51.64123333965273" style="fill:none;stroke:#000000;stroke-width:1;stroke-linecap:round;stroke-miterlimit:1;"/><path d="M 59.49999999999997 59.88276345265331 L 60.494266220320895 60.37989656281377" style="fill:none;stroke:#000000;stroke-width:1;stroke-linecap:round;stroke-miterlimit:1;"/><path d="M 60.494266220320895 60.37989656281377 L 61.72226171541564 60.993894310361156" style="fill:none;stroke:#000000;stroke-width:1;stroke-linecap:round;stroke-miterlimit:1;"/><path d="M 61.72226171541564 60.993894310361156 L 65.00159063135382 62.63355876833026" style="fill:none;stroke:#000000;stroke-width:1;stroke-linecap:round;stroke-miterlimit:1;"/><path d="M 65.00159063135382 62.63355876833026 L 69.50000000000003 64.88276345265342" style="fill:none;stroke:#000000;stroke-width:1;stroke-linecap:round;stroke-miterlimit:1;"/><path d="M 69.50000000000003 64.88276345265342 C 70.32835131050695 65.0285469077561 70.82681628199501 65.0285469077561 71.65516759250193 64.88276345265345 C 74.85315902947525 64.3199415736305 76.24128245526796 60.8194513489197 76.63706422723018 58.124920888452664" style="fill:none;stroke:#000000;stroke-width:1;stroke-linecap:round;stroke-miterlimit:1;"/><path d="M 76.63706422723018 58.124920888452664 C 76.66025533082276 57.9670330334051 76.68003927482738 57.81191240426975 76.69658053377071 57.660312165095576" style="fill:none;stroke:#000000;stroke-width:1;stroke-linecap:round;stroke-miterlimit:1;"/><path d="M 76.69658053377071 57.660312165095576 C 76.90568566186218 55.743868710591016 76.98222858358935 55.379761162272416 76.96434842934377 54.83013612381825" style="fill:none;stroke:#000000;stroke-width:1;stroke-linecap:round;stroke-miterlimit:1;"/><path d="M 76.96434842934377 54.83013612381825 C 76.95667571689211 54.594281621760956 76.9316156516015 54.324265363951156 76.89218195951622 53.88276345265339 C 76.650318699872 51.174848323258345 76.59102941111809 48.19246591100958 74.5 47.34005428865311" style="fill:none;stroke:#000000;stroke-width:1;stroke-linecap:round;stroke-miterlimit:1;"/><path d="M 77.5 58.88276345265325 L 76.63706422723018 58.124920888452664" style="fill:none;stroke:#000000;stroke-width:1;stroke-linecap:round;stroke-miterlimit:1;"/><path d="M 77.5 54.56658507145289 L 76.96434842934377 54.83013612381825" style="fill:none;stroke:#000000;stroke-width:1;stroke-linecap:round;stroke-miterlimit:1;"/><path d="M 69.50000000000003 64.88276345265342 C 67.57900382784004 62.71223683039048 64.6988226072277 49.907022902826924 74.5 47.34005428865311" style="fill:none;stroke:#000000;stroke-width:1;stroke-linecap:round;stroke-miterlimit:1;"/><path d="M 67.99027032535133 44.3551974118777 C 67.25105040864531 45.02382654218013 66.57496263354261 45.67164312292073 65.961239768524 46.31025876741626" style="fill:none;stroke:#000000;stroke-width:1;stroke-linecap:round;stroke-miterlimit:1;"/><path d="M 65.961239768524 46.31025876741626 C 65.37420592882594 46.921102871893424 64.84423080151248 47.523528883982266 64.37064295937611 48.12769847315104" style="fill:none;stroke:#000000;stroke-width:1;stroke-linecap:round;stroke-miterlimit:1;"/><path d="M 64.37064295937611 48.12769847315104 C 63.96601024024156 48.643900034789425 63.60254005402683 49.16137440196766 63.27981362616907 49.68645948986398" style="fill:none;stroke:#000000;stroke-width:1;stroke-linecap:round;stroke-miterlimit:1;"/><path d="M 63.27981362616907 49.68645948986398 C 62.842719731206984 50.39762370340105 62.480363842243975 51.12274858511461 62.19170555789216 51.87758001914548" style="fill:none;stroke:#000000;stroke-width:1;stroke-linecap:round;stroke-miterlimit:1;"/><path d="M 62.19170555789216 51.87758001914548 C 61.9486215256847 52.5132363594206 61.75780095655173 53.16995942646787 61.61862252647853 53.85715260638699" style="fill:none;stroke:#000000;stroke-width:1;stroke-linecap:round;stroke-miterlimit:1;"/><path d="M 61.61862252647853 53.85715260638699 C 61.442724087751316 54.72565074498661 61.349312424249945 55.64281807888537 61.3371332738908 56.627637152397654" style="fill:none;stroke:#000000;stroke-width:1;stroke-linecap:round;stroke-miterlimit:1;"/><path d="M 61.3371332738908 56.627637152397654 C 61.32965035797079 57.232713705868065 61.352832065496216 57.86332824949088 61.40638749231934 58.523883452331944" style="fill:none;stroke:#000000;stroke-width:1;stroke-linecap:round;stroke-miterlimit:1;"/><path d="M 61.40638749231934 58.523883452331944 C 61.469567003509496 59.303142573306445 61.57501761264717 60.12407010261859 61.72226171541564 60.993894310361156" style="fill:none;stroke:#000000;stroke-width:1;stroke-linecap:round;stroke-miterlimit:1;"/><path d="M 60.4171747563467 40.88276345265331 L 57.08720572840022 38.95446341369282" style="fill:none;stroke:#000000;stroke-width:1;stroke-linecap:round;stroke-miterlimit:1;"/><path d="M 57.08720572840022 38.95446341369282 C 55.694450887463404 39.27549932015569 54.34475426712018 39.69031514233481 53.1432424371753 40.28501993806296" style="fill:none;stroke:#000000;stroke-width:1;stroke-linecap:round;stroke-miterlimit:1;"/><path d="M 53.1432424371753 40.28501993806296 C 52.423563194437946 40.64123507167639 51.757048910470274 41.061989823938546 51.16629109584309 41.5657888763385" style="fill:none;stroke:#000000;stroke-width:1;stroke-linecap:round;stroke-miterlimit:1;"/><path d="M 51.16629109584309 41.5657888763385 C 50.50248943212193 42.13187982068817 49.934336110933145 42.802820551915346 49.49388141425146 43.604863420774365" style="fill:none;stroke:#000000;stroke-width:1;stroke-linecap:round;stroke-miterlimit:1;"/><path d="M 49.49388141425146 43.604863420774365 C 49.02636714149841 44.45618023355067 48.70272393976654 45.455202669837576 48.58348482191161 46.655065194467284" style="fill:none;stroke:#000000;stroke-width:1;stroke-linecap:round;stroke-miterlimit:1;"/><path d="M 48.58348482191161 46.655065194467284 C 48.48657006800141 47.358943149599384 48.46226775501779 48.13417666477113 48.51636077887059 48.98505851110602" style="fill:none;stroke:#000000;stroke-width:1;stroke-linecap:round;stroke-miterlimit:1;"/><path d="M 48.51636077887059 48.98505851110602 C 48.57045380272339 49.835940357440904 48.702942163412615 50.7624705349389 48.919608756848135 51.76894181472343" style="fill:none;stroke:#000000;stroke-width:1;stroke-linecap:round;stroke-miterlimit:1;"/><path d="M 48.919608756848135 51.76894181472343 C 49.040660151963095 52.331256247369595 49.187987319495846 52.91852385546241 49.36308282784469 53.53196720013716" style="fill:none;stroke:#000000;stroke-width:1;stroke-linecap:round;stroke-miterlimit:1;"/><path d="M 49.36308282784469 53.53196720013716 C 49.65985917830301 54.57171675603561 50.03640900177726 55.686664518039464 50.49999999999997 56.882763452653336" style="fill:none;stroke:#000000;stroke-width:1;stroke-linecap:round;stroke-miterlimit:1;"/><path d="M 65.961239768524 46.31025876741626 L 53.1432424371753 40.28501993806296" style="fill:none;stroke:#000000;stroke-width:1;stroke-linecap:round;stroke-miterlimit:1;"/><path d="M 64.37064295937611 48.12769847315104 L 51.5 41.88276345265331" style="fill:none;stroke:#000000;stroke-width:1;stroke-linecap:round;stroke-miterlimit:1;"/><path d="M 51.5 41.88276345265331 L 51.16629109584309 41.5657888763385" style="fill:none;stroke:#000000;stroke-width:1;stroke-linecap:round;stroke-miterlimit:1;"/><path d="M 52.49999999999997 54.41875991408989 L 49.36308282784469 53.53196720013716" style="fill:none;stroke:#000000;stroke-width:1;stroke-linecap:round;stroke-miterlimit:1;"/><path d="M 52.49999999999997 53.02999662687131 L 48.919608756848135 51.76894181472343" style="fill:none;stroke:#000000;stroke-width:1;stroke-linecap:round;stroke-miterlimit:1;"/><path d="M 61.40638749231934 58.523883452331944 L 59.49999999999997 58.1147659311369" style="fill:none;stroke:#000000;stroke-width:1;stroke-linecap:round;stroke-miterlimit:1;"/><path d="M 61.3371332738908 56.627637152397654 L 59.49999999999994 55.99876469189513" style="fill:none;stroke:#000000;stroke-width:1;stroke-linecap:round;stroke-miterlimit:1;"/><path d="M 63.27981362616907 49.68645948986398 L 49.49388141425146 43.604863420774365" style="fill:none;stroke:#000000;stroke-width:1;stroke-linecap:round;stroke-miterlimit:1;"/><path d="M 62.19170555789216 51.87758001914548 L 48.58348482191161 46.655065194467284" style="fill:none;stroke:#000000;stroke-width:1;stroke-linecap:round;stroke-miterlimit:1;"/><path d="M 48.58348482191161 46.655065194467284 L 48.49999999999997 46.62302568478205" style="fill:none;stroke:#000000;stroke-width:1;stroke-linecap:round;stroke-miterlimit:1;"/><path d="M 61.61862252647853 53.85715260638699 L 59.5 52.88276345265339" style="fill:none;stroke:#000000;stroke-width:1;stroke-linecap:round;stroke-miterlimit:1;"/><path d="M 54.50000000000003 50.88276345265339 L 48.51636077887059 48.98505851110602" style="fill:none;stroke:#000000;stroke-width:1;stroke-linecap:round;stroke-miterlimit:1;"/><path d="M 74.05848796363051 49.2951658817141 C 70.49874841854248 50.66891641102214 66.30693581007961 57.72463099342838 70.49999999999997 62.882763452653336" style="fill:none;stroke:#000000;stroke-width:1;stroke-linecap:round;stroke-miterlimit:1;"/><path d="M 70.49999999999997 62.882763452653336 C 74.69306418992034 68.0408959118783 78.24424478802857 49.98727237412945 74.05848796363051 49.2951658817141" style="fill:none;stroke:#000000;stroke-width:1;stroke-linecap:round;stroke-miterlimit:1;"/><path d="M 65.00159063135382 62.63355876833026 L 65.00159063135385 67.4039892616683" style="fill:none;stroke:#000000;stroke-width:1;stroke-linecap:round;stroke-miterlimit:1;"/><path d="M 65.00159063135385 67.4039892616683 L 63.92104945478678 67.99898285395892" style="fill:none;stroke:#000000;stroke-width:1;stroke-linecap:round;stroke-miterlimit:1;"/><path d="M 63.92104945478678 67.99898285395892 L 60.5 69.88276345265336" style="fill:none;stroke:#000000;stroke-width:1;stroke-linecap:round;stroke-miterlimit:1;"/><path d="M 60.5 69.88276345265336 L 60.494266220320895 60.37989656281377" style="fill:none;stroke:#000000;stroke-width:1;stroke-linecap:round;stroke-miterlimit:1;"/><path d="M 63.27981362616907 146.88276345265336 L 51.50000000000006 151.5080218684286" style="fill:none;stroke:#000000;stroke-width:1;stroke-linecap:round;stroke-miterlimit:1;"/><path d="M 51.50000000000006 151.5080218684286 L 51.500000000000114 163.93622780937193" style="fill:none;stroke:#000000;stroke-width:1;stroke-linecap:round;stroke-miterlimit:1;"/><path d="M 51.500000000000114 163.93622780937193 L 53.52160895160151 163.0710285378625" style="fill:none;stroke:#000000;stroke-width:1;stroke-linecap:round;stroke-miterlimit:1;"/><path d="M 53.52160895160151 163.0710285378625 L 63.2798136261691 158.8947551943022" style="fill:none;stroke:#000000;stroke-width:1;stroke-linecap:round;stroke-miterlimit:1;"/><path d="M 63.2798136261691 158.8947551943022 L 63.27981362616907 146.88276345265336" style="fill:none;stroke:#000000;stroke-width:1;stroke-linecap:round;stroke-miterlimit:1;"/><path d="M 61.62602676738291 146.88276345265336 L 60.67970239032593 147.2761648780272" style="fill:none;stroke:#000000;stroke-width:1;stroke-linecap:round;stroke-miterlimit:1;"/><path d="M 60.67970239032593 147.2761648780272 L 52.625587412092955 150.62438287745744" style="fill:none;stroke:#000000;stroke-width:1;stroke-linecap:round;stroke-miterlimit:1;"/><path d="M 52.625587412092955 150.62438287745744 L 52.403385818561816 150.71675545681268" style="fill:none;stroke:#000000;stroke-width:1;stroke-linecap:round;stroke-miterlimit:1;"/><path d="M 52.403385818561816 150.71675545681268 L 50.615861146761006 151.45985662891212" style="fill:none;stroke:#000000;stroke-width:1;stroke-linecap:round;stroke-miterlimit:1;"/><path d="M 50.615861146761006 151.45985662891212 L 50.5 151.5080218684286" style="fill:none;stroke:#000000;stroke-width:1;stroke-linecap:round;stroke-miterlimit:1;"/><path d="M 50.5 151.5080218684286 L 50.5 152.05241479529803" style="fill:none;stroke:#000000;stroke-width:1;stroke-linecap:round;stroke-miterlimit:1;"/><path d="M 50.5 152.05241479529803 L 50.5 158.5316936361579" style="fill:none;stroke:#000000;stroke-width:1;stroke-linecap:round;stroke-miterlimit:1;"/><path d="M 50.5 158.5316936361579 L 50.5 160.25324115426076" style="fill:none;stroke:#000000;stroke-width:1;stroke-linecap:round;stroke-miterlimit:1;"/><path d="M 50.5 160.25324115426076 L 50.5 161.01157344572596" style="fill:none;stroke:#000000;stroke-width:1;stroke-linecap:round;stroke-miterlimit:1;"/><path d="M 50.5 161.01157344572596 L 50.5 161.88276345265342" style="fill:none;stroke:#000000;stroke-width:1;stroke-linecap:round;stroke-miterlimit:1;"/><path d="M 50.5 161.88276345265342 L 50.5 162.88276345265342" style="fill:none;stroke:#000000;stroke-width:1;stroke-linecap:round;stroke-miterlimit:1;"/><path d="M 50.5 162.88276345265342 L 51.500000000000114 163.93622780937193" style="fill:none;stroke:#000000;stroke-width:1;stroke-linecap:round;stroke-miterlimit:1;"/><path d="M 63.27981362616907 146.88276345265336 L 61.62602676738291 146.88276345265336" style="fill:none;stroke:#000000;stroke-width:1;stroke-linecap:round;stroke-miterlimit:1;"/><path d="M 53.52160895160151 163.0710285378625 C 53.51317578034792 164.16834424727062 53.48023134585782 165.68249983747023 53.50000000000003 165.88276345265336 C 53.51976865414224 166.0830270678365 51.52348218805085 166.46546659657093 51.50000000000014 167.88276345265336 C 51.476517811949435 169.3000603087358 51.37154779042197 170.16115264135072 52.5 169.88276345265336 C 53.62845220957803 169.604374263956 53.784767881059594 168.29135032789213 54.50000000000006 167.88276345265336 C 55.21523211894052 167.4741765774146 56.502930985011204 166.76978055179114 57.08720572840025 167.88276345265336 C 57.671480471789295 168.99574635351559 57.24135010388068 169.61795744415343 56.50000000000006 170.88276345265342 C 55.75864989611944 172.1475694611534 54.17580610064687 174.12048103065553 53.50000000000003 174.12304560037012 C 52.82419389935319 174.1256101700847 51.63194316350487 174.50938517870838 50.50000000000003 173.88276345265342 C 49.368056836495185 173.25614172659846 48.892672406559996 172.7047929985112 48.50000000000003 171.88276345265336 C 48.10732759344006 171.06073390679552 47.762363430027705 166.48675814769507 48.49999999999997 165.88276345265336 C 49.23763656997224 165.27876875761166 49.05846797639799 165.21391247035484 49.50000000000003 164.88276345265336" style="fill:none;stroke:#000000;stroke-width:1;stroke-linecap:round;stroke-miterlimit:1;"/><path d="M 49.50000000000003 164.88276345265336 L 49.50000000000003 161.88276345265342" style="fill:none;stroke:#000000;stroke-width:1;stroke-linecap:round;stroke-miterlimit:1;"/><path d="M 49.50000000000003 161.88276345265342 L 50.5 161.88276345265342" style="fill:none;stroke:#000000;stroke-width:1;stroke-linecap:round;stroke-miterlimit:1;"/><path d="M 52.49999999999997 146.88276345265336 L 43.85680167586034 149.47572294989533" style="fill:none;stroke:#000000;stroke-width:1;stroke-linecap:round;stroke-miterlimit:1;"/><path d="M 43.85680167586034 149.47572294989533 L 42.50000000000003 149.88276345265342" style="fill:none;stroke:#000000;stroke-width:1;stroke-linecap:round;stroke-miterlimit:1;"/><path d="M 42.50000000000003 149.88276345265342 L 42.74425080376173 161.8827634526533" style="fill:none;stroke:#000000;stroke-width:1;stroke-linecap:round;stroke-miterlimit:1;"/><path d="M 42.74425080376173 161.8827634526533 L 48.10301974721037 159.56737026424622" style="fill:none;stroke:#000000;stroke-width:1;stroke-linecap:round;stroke-miterlimit:1;"/><path d="M 48.10301974721037 159.56737026424622 L 50.5 158.5316936361579" style="fill:none;stroke:#000000;stroke-width:1;stroke-linecap:round;stroke-miterlimit:1;"/><path d="M 52.49999999999997 146.88276345265336 L 52.403385818561816 150.71675545681268" style="fill:none;stroke:#000000;stroke-width:1;stroke-linecap:round;stroke-miterlimit:1;"/><path d="M 51.5 146.88276345265336 L 43.8589600594984 149.17507543480383" style="fill:none;stroke:#000000;stroke-width:1;stroke-linecap:round;stroke-miterlimit:1;"/><path d="M 43.8589600594984 149.17507543480383 L 41.645224704966864 149.8391960411633" style="fill:none;stroke:#000000;stroke-width:1;stroke-linecap:round;stroke-miterlimit:1;"/><path d="M 41.645224704966864 149.8391960411633 L 41.5 149.88276345265336" style="fill:none;stroke:#000000;stroke-width:1;stroke-linecap:round;stroke-miterlimit:1;"/><path d="M 41.5 149.88276345265336 L 41.5 160.8827634526533" style="fill:none;stroke:#000000;stroke-width:1;stroke-linecap:round;stroke-miterlimit:1;"/><path d="M 41.5 160.8827634526533 L 42.74425080376173 161.8827634526533" style="fill:none;stroke:#000000;stroke-width:1;stroke-linecap:round;stroke-miterlimit:1;"/><path d="M 42.50000000000003 149.88276345265342 L 41.645224704966864 149.8391960411633" style="fill:none;stroke:#000000;stroke-width:1;stroke-linecap:round;stroke-miterlimit:1;"/><path d="M 52.49999999999997 146.88276345265336 L 51.5 146.88276345265336" style="fill:none;stroke:#000000;stroke-width:1;stroke-linecap:round;stroke-miterlimit:1;"/><path d="M 51.50000000000006 151.5080218684286 L 50.615861146761006 151.45985662891212" style="fill:none;stroke:#000000;stroke-width:1;stroke-linecap:round;stroke-miterlimit:1;"/><path d="M 50.5 152.05241479529803 C 50.10973713999999 152.05241479529803 50.03624598972601 151.70810529167733 49.5 152.05241479529798 C 48.96375401027399 152.39672429891863 47.56998832403576 153.4561946106997 47.49999999999997 154.8827634526533 C 47.440736328350425 156.09073219029295 47.35764500646334 158.68460388348763 48.10301974721037 159.56737026424622" style="fill:none;stroke:#000000;stroke-width:1;stroke-linecap:round;stroke-miterlimit:1;"/><path d="M 48.10301974721037 159.56737026424622 C 48.23027833923547 159.74332818866003 48.39091556359904 159.84997526732224 48.58348482191158 159.8827634526533 C 48.968462254363885 159.94831239600046 49.282973959189206 159.9888694550615 49.53849214619794 160.0195991790108" style="fill:none;stroke:#000000;stroke-width:1;stroke-linecap:round;stroke-miterlimit:1;"/><path d="M 49.53849214619794 160.0195991790108 C 50.117069640808296 160.0891814146271 50.39317614208173 160.10837703281317 50.5 160.25324115426076" style="fill:none;stroke:#000000;stroke-width:1;stroke-linecap:round;stroke-miterlimit:1;"/><path d="M 49.50000000000003 161.88276345265342 L 49.53849214619794 160.0195991790108" style="fill:none;stroke:#000000;stroke-width:1;stroke-linecap:round;stroke-miterlimit:1;"/><path d="M 60.67970239032593 147.2761648780272 L 63.92104945478678 67.99898285395892" style="fill:none;stroke:#000000;stroke-width:1;stroke-linecap:round;stroke-miterlimit:1;"/><path d="M 52.625587412092955 150.62438287745744 L 55.96952252151203 76.46002838631847" style="fill:none;stroke:#000000;stroke-width:1;stroke-linecap:round;stroke-miterlimit:1;"/><path d="M 55.96952252151203 76.46002838631847 L 55.95637625903703 60.26531395626813" style="fill:none;stroke:#000000;stroke-width:1;stroke-linecap:round;stroke-miterlimit:1;"/><path d="M 43.85680167586034 149.47572294989533 L 43.8589600594984 149.17507543480383" style="fill:none;stroke:#000000;stroke-width:1;stroke-linecap:round;stroke-miterlimit:1;"/><path d="M 43.8589600594984 149.17507543480383 L 44.49999999999994 59.88276345265331" style="fill:none;stroke:#000000;stroke-width:1;stroke-linecap:round;stroke-miterlimit:1;"/><path d="M 51.5 146.88276345265336 L 53.79832752214685 59.40209446151201" style="fill:none;stroke:#000000;stroke-width:1;stroke-linecap:round;stroke-miterlimit:1;"/><path d="M 55.969522521512005 37.151333253323685 L 35.485343383407724 28.22934581901663" style="fill:none;stroke:#000000;stroke-width:1;stroke-linecap:round;stroke-miterlimit:1;"/><path d="M 35.485343383407724 28.22934581901663 L 32.49267169170389 26.92587258494791" style="fill:none;stroke:#000000;stroke-width:1;stroke-linecap:round;stroke-miterlimit:1;"/><path d="M 32.49267169170389 26.92587258494791 L 29.50000000000003 25.622399350879164" style="fill:none;stroke:#000000;stroke-width:1;stroke-linecap:round;stroke-miterlimit:1;"/><path d="M 29.50000000000003 25.622399350879164 C 29.50000000000003 25.622399350879135 29.50000000000003 25.622399350879135 29.50000000000003 25.622399350879135 C 28.943721417935933 24.294808433686285 30.12804951947848 24.013100634935626 29.50000000000003 24.013100634935626" style="fill:none;stroke:#000000;stroke-width:1;stroke-linecap:round;stroke-miterlimit:1;"/><path d="M 29.50000000000003 24.013100634935626 C 30.280525720000014 24.123187991197625 29.811881428341366 23.28141513785758 31.5 24.295185782013135" style="fill:none;stroke:#000000;stroke-width:1;stroke-linecap:round;stroke-miterlimit:1;"/><path d="M 14.5 44.88276345265331 L 15.499999999999972 44.35691700814198" style="fill:none;stroke:#000000;stroke-width:1;stroke-linecap:round;stroke-miterlimit:1;"/><path d="M 15.499999999999972 44.35691700814198 C 14.445161229113268 42.474350224852515 15.20264144757681 42.079958452384915 15.499999999999972 41.882763452653336 C 15.797358552423134 41.68556845292176 17.68478759274325 42.089528028092275 17.943026248858644 43.54023385788577" style="fill:none;stroke:#000000;stroke-width:1;stroke-linecap:round;stroke-miterlimit:1;"/><path d="M 17.943026248858644 43.54023385788577 L 19.5 42.651439914477265" style="fill:none;stroke:#000000;stroke-width:1;stroke-linecap:round;stroke-miterlimit:1;"/><path d="M 44.49999999999994 58.325107736985075 L 15.499999999999972 44.35691700814198" style="fill:none;stroke:#000000;stroke-width:1;stroke-linecap:round;stroke-miterlimit:1;"/><path d="M 44.49999999999994 55.80851827415833 L 18.5 43.54023385788577" style="fill:none;stroke:#000000;stroke-width:1;stroke-linecap:round;stroke-miterlimit:1;"/><path d="M 18.5 43.54023385788577 L 17.943026248858644 43.54023385788577" style="fill:none;stroke:#000000;stroke-width:1;stroke-linecap:round;stroke-miterlimit:1;"/><path d="M 53.52160895160151 37.882763452653364 C 52.64968797170479 37.484766236181486 51.760107814401294 37.071816645147635 50.85945267024675 36.64855662864869" style="fill:none;stroke:#000000;stroke-width:1;stroke-linecap:round;stroke-miterlimit:1;"/><path d="M 50.85945267024675 36.64855662864869 C 50.43025392927032 36.44685604728184 49.99854015910242 36.242814061688534 49.565023888026076 36.03693301456252" style="fill:none;stroke:#000000;stroke-width:1;stroke-linecap:round;stroke-miterlimit:1;"/><path d="M 49.565023888026076 36.03693301456252 C 49.02193770524977 35.77901616241752 48.47602272279056 35.518213133263515 47.92867979234825 35.25551154770898" style="fill:none;stroke:#000000;stroke-width:1;stroke-linecap:round;stroke-miterlimit:1;"/><path d="M 47.92867979234825 35.25551154770898 C 47.51782414760763 35.058318118682365 47.10616391796739 34.860054937935814 46.69429159393488 34.661139719803685" style="fill:none;stroke:#000000;stroke-width:1;stroke-linecap:round;stroke-miterlimit:1;"/><path d="M 46.69429159393488 34.661139719803685 C 46.24671761405813 34.444982258758984 45.798893176920615 34.22805482215884 45.35157858789111 34.01089343623002" style="fill:none;stroke:#000000;stroke-width:1;stroke-linecap:round;stroke-miterlimit:1;"/><path d="M 45.35157858789111 34.01089343623002 C 44.96424295150726 33.82285051145257 44.577289602183214 33.63463217011554 44.191212180932865 33.44658643623788" style="fill:none;stroke:#000000;stroke-width:1;stroke-linecap:round;stroke-miterlimit:1;"/><path d="M 44.191212180932865 33.44658643623788 C 43.7732029866996 33.242987776045226 43.35622060534445 33.03959145616733 42.94089157214205 32.83683919298946" style="fill:none;stroke:#000000;stroke-width:1;stroke-linecap:round;stroke-miterlimit:1;"/><path d="M 42.94089157214205 32.83683919298946 C 42.53458597314926 32.63849192335016 42.12986266147118 32.44076102887945 41.7273082168698 32.24406005675121" style="fill:none;stroke:#000000;stroke-width:1;stroke-linecap:round;stroke-miterlimit:1;"/><path d="M 41.7273082168698 32.24406005675121 C 41.22851565222413 32.000334062238096 40.73305292957235 31.758189298176205 40.242035917650185 31.518412468083056" style="fill:none;stroke:#000000;stroke-width:1;stroke-linecap:round;stroke-miterlimit:1;"/><path d="M 40.242035917650185 31.518412468083056 C 39.32375191614389 31.069989660603397 38.42101690372712 30.629848763865027 37.541129732217144 30.20313557343917" style="fill:none;stroke:#000000;stroke-width:1;stroke-linecap:round;stroke-miterlimit:1;"/><path d="M 37.541129732217144 30.20313557343917 C 37.08073233304745 29.979859624630535 36.62659036026133 29.76025999817901 36.17974942974706 29.545073868333645" style="fill:none;stroke:#000000;stroke-width:1;stroke-linecap:round;stroke-miterlimit:1;"/><path d="M 36.17974942974706 29.545073868333645 C 35.94916096326142 29.43402889393323 35.72051675582972 29.32415922853889 35.493960497296314 29.21556617555882" style="fill:none;stroke:#000000;stroke-width:1;stroke-linecap:round;stroke-miterlimit:1;"/><path d="M 35.493960497296314 29.21556617555882 C 35.25990851019134 29.10338026641506 35.0280849192533 28.992556841867014 34.798648153555064 28.88320759669108" style="fill:none;stroke:#000000;stroke-width:1;stroke-linecap:round;stroke-miterlimit:1;"/><path d="M 34.798648153555064 28.88320759669108 C 34.294114252943274 28.642747437528385 33.80112219907119 28.409415890924322 33.32135666993241 28.184400679109075" style="fill:none;stroke:#000000;stroke-width:1;stroke-linecap:round;stroke-miterlimit:1;"/><path d="M 33.32135666993241 28.184400679109075 C 33.04952733570167 28.056909787194968 32.78194400459489 27.932088620261965 32.518913097766415 27.810153209633626" style="fill:none;stroke:#000000;stroke-width:1;stroke-linecap:round;stroke-miterlimit:1;"/><path d="M 32.518913097766415 27.810153209633626 C 32.34542396032472 27.729727416830087 32.17391531784463 27.650557048712926 32.00447509591004 27.572704094084145" style="fill:none;stroke:#000000;stroke-width:1;stroke-linecap:round;stroke-miterlimit:1;"/><path d="M 32.00447509591004 27.572704094084145 C 31.5869688282437 27.380871858840692 31.18202088849108 27.197038243907315 30.790946667224432 27.022130618567616" style="fill:none;stroke:#000000;stroke-width:1;stroke-linecap:round;stroke-miterlimit:1;"/><path d="M 30.790946667224432 27.022130618567616 C 30.45253736273355 26.87077733414597 30.124516707654408 26.726107836528513 29.807737024663794 26.588723025468425" style="fill:none;stroke:#000000;stroke-width:1;stroke-linecap:round;stroke-miterlimit:1;"/><path d="M 29.807737024663794 26.588723025468425 C 29.485261936123692 26.448868162642583 29.174435657835318 26.316562284974054 28.876157315880363 26.192439289290036" style="fill:none;stroke:#000000;stroke-width:1;stroke-linecap:round;stroke-miterlimit:1;"/><path d="M 28.876157315880363 26.192439289290036 C 28.495888826327985 26.03419761549597 28.136014671606034 25.889255693201704 27.798397910051136 25.758927005346408" style="fill:none;stroke:#000000;stroke-width:1;stroke-linecap:round;stroke-miterlimit:1;"/><path d="M 27.798397910051136 25.758927005346408 C 27.42053774792973 25.613063337632553 27.07055731244074 25.485504283505577 26.751068450833998 25.378091232864477" style="fill:none;stroke:#000000;stroke-width:1;stroke-linecap:round;stroke-miterlimit:1;"/><path d="M 26.751068450833998 25.378091232864477 C 26.153847838115382 25.17730398915515 25.66317342797683 25.046912592405874 25.29610545406902 24.99894475285936 C 21.919807544076264 24.557735690996566 19.371415698198774 29.141433363003188 19.49999999999997 31.882763452653336 C 19.62858430180117 34.624093542303484 18.705730662253274 39.406951139298116 21.32379211396261 42.882763452653364" style="fill:none;stroke:#000000;stroke-width:1;stroke-linecap:round;stroke-miterlimit:1;"/><path d="M 21.32379211396261 42.882763452653364 L 23.30180954970905 43.80641631761043" style="fill:none;stroke:#000000;stroke-width:1;stroke-linecap:round;stroke-miterlimit:1;"/><path d="M 23.30180954970905 43.80641631761043 L 24.00885079758521 44.13657552775774" style="fill:none;stroke:#000000;stroke-width:1;stroke-linecap:round;stroke-miterlimit:1;"/><path d="M 24.00885079758521 44.13657552775774 L 24.875751094699325 44.54138234522617" style="fill:none;stroke:#000000;stroke-width:1;stroke-linecap:round;stroke-miterlimit:1;"/><path d="M 24.875751094699325 44.54138234522617 L 25.675513581930915 44.91483856419924" style="fill:none;stroke:#000000;stroke-width:1;stroke-linecap:round;stroke-miterlimit:1;"/><path d="M 25.675513581930915 44.91483856419924 L 26.736736067349597 45.41038585882859" style="fill:none;stroke:#000000;stroke-width:1;stroke-linecap:round;stroke-miterlimit:1;"/><path d="M 26.736736067349597 45.41038585882859 L 27.780357745035502 45.89771429947103" style="fill:none;stroke:#000000;stroke-width:1;stroke-linecap:round;stroke-miterlimit:1;"/><path d="M 27.780357745035502 45.89771429947103 L 28.730245732815575 46.341272958482705" style="fill:none;stroke:#000000;stroke-width:1;stroke-linecap:round;stroke-miterlimit:1;"/><path d="M 28.730245732815575 46.341272958482705 L 29.682579052678022 46.78597348709715" style="fill:none;stroke:#000000;stroke-width:1;stroke-linecap:round;stroke-miterlimit:1;"/><path d="M 29.682579052678022 46.78597348709715 L 30.84960283356847 47.33092563929378" style="fill:none;stroke:#000000;stroke-width:1;stroke-linecap:round;stroke-miterlimit:1;"/><path d="M 30.84960283356847 47.33092563929378 L 31.890779179172 47.81711221033345" style="fill:none;stroke:#000000;stroke-width:1;stroke-linecap:round;stroke-miterlimit:1;"/><path d="M 31.890779179172 47.81711221033345 L 33.136702443318825 48.398907179199114" style="fill:none;stroke:#000000;stroke-width:1;stroke-linecap:round;stroke-miterlimit:1;"/><path d="M 33.136702443318825 48.398907179199114 L 34.33583996959044 48.95885513092196" style="fill:none;stroke:#000000;stroke-width:1;stroke-linecap:round;stroke-miterlimit:1;"/><path d="M 34.33583996959044 48.95885513092196 L 35.362182108544545 49.43811473699989" style="fill:none;stroke:#000000;stroke-width:1;stroke-linecap:round;stroke-miterlimit:1;"/><path d="M 35.362182108544545 49.43811473699989 L 36.32934963505639 49.88974223057605" style="fill:none;stroke:#000000;stroke-width:1;stroke-linecap:round;stroke-miterlimit:1;"/><path d="M 36.32934963505639 49.88974223057605 L 37.26195808410472 50.325232055023235" style="fill:none;stroke:#000000;stroke-width:1;stroke-linecap:round;stroke-miterlimit:1;"/><path d="M 37.26195808410472 50.325232055023235 L 38.507881348251544 50.90702702388893" style="fill:none;stroke:#000000;stroke-width:1;stroke-linecap:round;stroke-miterlimit:1;"/><path d="M 38.507881348251544 50.90702702388893 L 39.988219944240456 51.598284320504064" style="fill:none;stroke:#000000;stroke-width:1;stroke-linecap:round;stroke-miterlimit:1;"/><path d="M 39.988219944240456 51.598284320504064 L 40.8468195741971 51.99921506748774" style="fill:none;stroke:#000000;stroke-width:1;stroke-linecap:round;stroke-miterlimit:1;"/><path d="M 40.8468195741971 51.99921506748774 L 41.61168551424802 52.35637603284067" style="fill:none;stroke:#000000;stroke-width:1;stroke-linecap:round;stroke-miterlimit:1;"/><path d="M 41.61168551424802 52.35637603284067 L 42.83299324341607 52.926676558333554" style="fill:none;stroke:#000000;stroke-width:1;stroke-linecap:round;stroke-miterlimit:1;"/><path d="M 42.83299324341607 52.926676558333554 L 44.49999999999994 53.70510021567631" style="fill:none;stroke:#000000;stroke-width:1;stroke-linecap:round;stroke-miterlimit:1;"/><path d="M 19.5 42.651439914477265 L 20.610323875406948 41.882763452653336" style="fill:none;stroke:#000000;stroke-width:1;stroke-linecap:round;stroke-miterlimit:1;"/><path d="M 35.5 19.83555714158024 L 35.49999999999997 25.882763452653336" style="fill:none;stroke:#000000;stroke-width:1;stroke-linecap:round;stroke-miterlimit:1;"/><path d="M 35.49999999999997 25.882763452653336 L 35.60805491855518 26.10688585688544" style="fill:none;stroke:#000000;stroke-width:1;stroke-linecap:round;stroke-miterlimit:1;"/><path d="M 35.485343383407724 28.22934581901663 L 35.493960497296314 29.21556617555882" style="fill:none;stroke:#000000;stroke-width:1;stroke-linecap:round;stroke-miterlimit:1;"/><path d="M 32.49267169170389 26.92587258494791 L 32.518913097766415 27.810153209633626" style="fill:none;stroke:#000000;stroke-width:1;stroke-linecap:round;stroke-miterlimit:1;"/><path d="M 26.751068450833998 25.378091232864477 C 23.40361874018828 25.424043442797057 21.391549123103175 28.40969513266529 21.521360066140915 29.253466262410655 C 21.651171009178654 30.097237392156018 18.972381426428313 40.07427329049665 23.30180954970905 43.80641631761043" style="fill:none;stroke:#000000;stroke-width:1;stroke-linecap:round;stroke-miterlimit:1;"/><path d="M 27.798397910051136 25.758927005346408 C 23.1439968541128 27.43611305988219 20.93721082247103 32.888172667467614 24.00885079758521 44.13657552775774" style="fill:none;stroke:#000000;stroke-width:1;stroke-linecap:round;stroke-miterlimit:1;"/><path d="M 28.876157315880363 26.192439289290036 C 25.09116099967906 29.44818267696732 22.23532025284851 32.23911795227886 24.875751094699325 44.54138234522617" style="fill:none;stroke:#000000;stroke-width:1;stroke-linecap:round;stroke-miterlimit:1;"/><path d="M 29.807737024663794 26.588723025468425 C 25.480593828792365 32.24272381180782 24.78867547642156 35.4109172143086 25.675513581930915 44.91483856419924" style="fill:none;stroke:#000000;stroke-width:1;stroke-linecap:round;stroke-miterlimit:1;"/><path d="M 30.790946667224432 27.022130618567616 C 26.697571419771236 34.00058033211067 26.832791152102203 38.19239203437141 26.736736067349597 45.41038585882859" style="fill:none;stroke:#000000;stroke-width:1;stroke-linecap:round;stroke-miterlimit:1;"/><path d="M 32.00447509591004 27.572704094084145 C 27.734256034308828 35.17248467897926 27.599036301977918 40.491127483998184 27.780357745035502 45.89771429947103" style="fill:none;stroke:#000000;stroke-width:1;stroke-linecap:round;stroke-miterlimit:1;"/><path d="M 33.32135666993241 28.184400679109075 C 28.77094064884642 37.29092715216473 29.311819578170372 38.14731879026107 28.730245732815575 46.341272958482705" style="fill:none;stroke:#000000;stroke-width:1;stroke-linecap:round;stroke-miterlimit:1;"/><path d="M 34.798648153555064 28.88320759669108 C 30.573870413259584 37.29092715216473 30.393577436818276 37.78673283737845 29.682579052678022 46.78597348709715" style="fill:none;stroke:#000000;stroke-width:1;stroke-linecap:round;stroke-miterlimit:1;"/><path d="M 36.17974942974706 29.545073868333645 C 31.295042319024873 38.462831499033314 31.24996907491459 40.040395042894914 30.84960283356847 47.33092563929378" style="fill:none;stroke:#000000;stroke-width:1;stroke-linecap:round;stroke-miterlimit:1;"/><path d="M 37.541129732217144 30.20313557343917 C 33.41348479221034 37.87687932559902 32.01621422479013 41.39259236620484 31.890779179172 47.81711221033345" style="fill:none;stroke:#000000;stroke-width:1;stroke-linecap:round;stroke-miterlimit:1;"/><path d="M 38.687054353118896 30.98067297671861 C 34.58538913907893 38.50790474314363 33.32333830398977 42.60956995718374 33.136702443318825 48.398907179199114" style="fill:none;stroke:#000000;stroke-width:1;stroke-linecap:round;stroke-miterlimit:1;"/><path d="M 40.242035917650185 31.518412468083056 C 36.34324565938178 37.65151310504737 34.49524265085836 42.69971644540436 34.33583996959044 48.95885513092196" style="fill:none;stroke:#000000;stroke-width:1;stroke-linecap:round;stroke-miterlimit:1;"/><path d="M 41.7273082168698 32.24406005675121 C 36.83905134459539 40.26576126344648 35.93758646238888 42.474350224852714 35.362182108544545 49.43811473699989" style="fill:none;stroke:#000000;stroke-width:1;stroke-linecap:round;stroke-miterlimit:1;"/><path d="M 42.94089157214205 32.83683919298946 C 39.36315301477384 38.68819771958496 36.974271076926385 42.97015591006638 36.32934963505639 49.88974223057605" style="fill:none;stroke:#000000;stroke-width:1;stroke-linecap:round;stroke-miterlimit:1;"/><path d="M 44.191212180932865 33.44658643623788 C 39.58851923532549 41.167226145653075 37.74051622680196 44.14206025693494 37.26195808410472 50.325232055023235" style="fill:none;stroke:#000000;stroke-width:1;stroke-linecap:round;stroke-miterlimit:1;"/><path d="M 45.35157858789111 34.01089343623002 C 41.03086304685604 41.212299389763416 38.86734732956029 44.54771945392784 38.507881348251544 50.90702702388893" style="fill:none;stroke:#000000;stroke-width:1;stroke-linecap:round;stroke-miterlimit:1;"/><path d="M 46.69429159393488 34.661139719803685 C 41.93232792906264 42.60956995718362 40.30969114109075 44.90830540681054 39.988219944240456 51.598284320504064" style="fill:none;stroke:#000000;stroke-width:1;stroke-linecap:round;stroke-miterlimit:1;"/><path d="M 47.92867979234825 35.25551154770898 C 43.69018444936549 41.392592366204724 41.48159548795934 45.89991677723776 40.8468195741971 51.99921506748774" style="fill:none;stroke:#000000;stroke-width:1;stroke-linecap:round;stroke-miterlimit:1;"/><path d="M 49.565023888026076 36.03693301456252 C 47.34111722230216 38.32761176670232 46.17731942395068 39.94394266097822 45.20419140132003 41.5922690178532" style="fill:none;stroke:#000000;stroke-width:1;stroke-linecap:round;stroke-miterlimit:1;"/><path d="M 44.49999999999997 43.82654754816252 C 42.563353346607244 47.567626809319876 41.752034952621386 50.49738767649134 41.61168551424802 52.35637603284067" style="fill:none;stroke:#000000;stroke-width:1;stroke-linecap:round;stroke-miterlimit:1;"/><path d="M 42.83299324341607 52.926676558333554 C 43.104232275931196 50.13680172360864 44.50150284335149 46.035136509568645 44.49999999999997 47.252114100547544" style="fill:none;stroke:#000000;stroke-width:1;stroke-linecap:round;stroke-miterlimit:1;"/><path d="M 47.470533798579226 40.65735295309972 C 48.78346103383271 37.83180608148868 50.496244310025304 36.885267955171855 50.85945267024675 36.64855662864869" style="fill:none;stroke:#000000;stroke-width:1;stroke-linecap:round;stroke-miterlimit:1;"/><path d="M 103.5 18.03334113201163 L 103.5 17.93705241614387 L 103.23196580533772 17.834086972052432" style="fill:none;stroke:#000000;stroke-width:1;stroke-miterlimit:1;"/><path d="M 103.38999999999999 27.519067293224794 L 103.5 27.5659240029201 L 103.5 27.46963528705234" style="fill:none;stroke:#000000;stroke-width:1;stroke-miterlimit:1;"/><path d="M 74.19064461114831 6.677851710617148 L 74.16533212708143 6.668127909643573 L 74.13868313720198 6.677511465858714" style="fill:none;stroke:#000000;stroke-width:1;stroke-miterlimit:1;"/><path d="M 76.69658053377071 3.1215539179009397 L 76.69658053377071 3.0759079170009613 L 76.63420614887002 3.0501488378309602" style="fill:none;stroke:#000000;stroke-width:1;stroke-miterlimit:1;"/><path d="M 70.52151642860173 0.5257590791700011 L 70.45914204370104 0.5 L 70.29955062326403 0.5538276345265274" style="fill:none;stroke:#000000;stroke-width:1;stroke-miterlimit:1;"/><path d="M 54.65959142043707 5.828935818126865 L 54.50000000000006 5.882763452653393 L 54.50000000000006 5.902423060884843" style="fill:none;stroke:#000000;stroke-width:1;stroke-miterlimit:1;"/><path d="M 54.57199323502479 7.879064667565956 L 54.50000000000006 7.8487242757973945 L 54.50000000000006 7.8290646675659445" style="fill:none;stroke:#000000;stroke-width:1;stroke-miterlimit:1;"/><path d="M 61.627330267449594 10.852423060884888 L 61.69932350247433 10.88276345265345 L 61.704289330641615 10.88276345265345" style="fill:none;stroke:#000000;stroke-width:1;stroke-miterlimit:1;"/><path d="M 66.89469236326974 9.228242092298302 L 66.84816972917008 9.24462349190577 L 66.80164709507042 9.261004891513238" style="fill:none;stroke:#000000;stroke-width:1;stroke-miterlimit:1;"/><path d="M 85.5 52.53788897477753 L 85.5 52.47379933358687 L 85.44 52.44682321145436" style="fill:none;stroke:#000000;stroke-width:1;stroke-miterlimit:1;"/><path d="M 85.46000000000001 58.8627634526533 L 85.5 58.88276345265331 L 85.5 58.818673811462645" style="fill:none;stroke:#000000;stroke-width:1;stroke-miterlimit:1;"/><path d="M 81.52999999999997 56.86807099551373 L 81.49999999999997 56.882763452653336 L 81.45999999999998 56.902763452653346" style="fill:none;stroke:#000000;stroke-width:1;stroke-miterlimit:1;"/><path d="M 84.47 55.42821019583195 L 84.5 55.41351773869235 L 84.5 55.387511893916695" style="fill:none;stroke:#000000;stroke-width:1;stroke-miterlimit:1;"/><path d="M 84.5 52.83893910590365 L 84.5 52.812933261127995 L 84.47999999999999 52.80384649205726" style="fill:none;stroke:#000000;stroke-width:1;stroke-miterlimit:1;"/><path d="M 82.51999999999995 51.91334312312429 L 82.49999999999994 51.90425635405356 L 82.46892117979749 51.92080476115913" style="fill:none;stroke:#000000;stroke-width:1;stroke-miterlimit:1;"/><path d="M 77.49464348429345 54.56922058197654 L 77.5 54.56658507145289 L 77.51892117979756 54.55651019138446" style="fill:none;stroke:#000000;stroke-width:1;stroke-miterlimit:1;"/><path d="M 79.55999999999997 49.80316324246928 L 79.49999999999997 49.77618712033677 L 79.49892117979752 49.81401621977952" style="fill:none;stroke:#000000;stroke-width:1;stroke-miterlimit:1;"/><path d="M 77.4913706422723 58.87518502701124 L 77.5 58.88276345265325 L 77.53999999999999 58.86276345265324" style="fill:none;stroke:#000000;stroke-width:1;stroke-miterlimit:1;"/><path d="M 64.46076076003953 33.971690550750395 L 64.45990965000004 33.882763452653364 L 64.41878915408282 33.90699631909101" style="fill:none;stroke:#000000;stroke-width:1;stroke-miterlimit:1;"/><path d="M 60.38387506606722 40.8634804522637 L 60.4171747563467 40.88276345265331 L 60.45845321532272 40.901690550750345" style="fill:none;stroke:#000000;stroke-width:1;stroke-miterlimit:1;"/><path d="M 59.50847860058275 35.701044839570926 L 59.49999999999997 35.694933675360346 L 59.48888645687032 35.699518256234256" style="fill:none;stroke:#000000;stroke-width:1;stroke-miterlimit:1;"/><path d="M 44.49999999999997 41.902201293608414 L 44.49999999999997 41.882763452653336 L 44.50704191401317 41.87985850830535" style="fill:none;stroke:#000000;stroke-width:1;stroke-miterlimit:1;"/><path d="M 57.48456376259037 60.876588957689506 L 57.5 60.882763452653364 L 57.52000000000001 60.87276345265337" style="fill:none;stroke:#000000;stroke-width:1;stroke-miterlimit:1;"/><path d="M 59.49999999999994 53.90392346504578 L 59.49999999999994 53.882763452653364 L 59.49999999999994 53.87276345265337" style="fill:none;stroke:#000000;stroke-width:1;stroke-miterlimit:1;"/><path d="M 52.51999999999998 51.633648640782724 L 52.49999999999997 51.64123333965273 L 52.49999999999997 51.65512097252491" style="fill:none;stroke:#000000;stroke-width:1;stroke-miterlimit:1;"/><path d="M 52.512983275221444 58.88795676274182 L 52.49999999999997 58.88276345265322 L 52.49999999999997 58.870538939777646" style="fill:none;stroke:#000000;stroke-width:1;stroke-miterlimit:1;"/><path d="M 35.5 19.89602920469096 L 35.5 19.83555714158024 L 35.47 19.851243831970464" style="fill:none;stroke:#000000;stroke-width:1;stroke-miterlimit:1;"/><path d="M 11.539999999999992 17.956037463398218 L 11.5 17.937052416143842 L 11.389999999999986 17.979746462628555" style="fill:none;stroke:#000000;stroke-width:1;stroke-miterlimit:1;"/><path d="M 0.6100000000000136 22.163763018131476 L 0.5 22.20645706461619 L 0.5 22.33082433039519" style="fill:none;stroke:#000000;stroke-width:1;stroke-miterlimit:1;"/><path d="M 0.5300000000000011 34.66170131405784 L 0.5 34.64318364251591 L 0.5 34.51881637673691" style="fill:none;stroke:#000000;stroke-width:1;stroke-miterlimit:1;"/><path d="M 3.625586342409065 25.109409045243893 L 3.6125956264421575 25.11517868693801 L 3.6114696701777405 25.22897640803569" style="fill:none;stroke:#000000;stroke-width:1;stroke-miterlimit:1;"/><path d="M 3.701469670177744 40.932466470012315 L 3.6125956264421575 40.882763452653336 L 3.6114696701777405 40.83888532609387" style="fill:none;stroke:#000000;stroke-width:1;stroke-miterlimit:1;"/><path d="M 12.411125956264414 45.80336217119236 L 12.5 45.85306518855134 L 12.52000000000001 45.843362171192354" style="fill:none;stroke:#000000;stroke-width:1;stroke-miterlimit:1;"/><path d="M 14.47999999999999 44.892466470012295 L 14.5 44.88276345265331 L 14.509999999999991 44.87750498820819" style="fill:none;stroke:#000000;stroke-width:1;stroke-miterlimit:1;"/><path d="M 4.8986765071663285 24.543984159220287 L 4.911667223133236 24.53821451752617 L 5.017550550901916 24.491187943766704" style="fill:none;stroke:#000000;stroke-width:1;stroke-miterlimit:1;"/><path d="M 22.925847871539787 16.924067485236293 L 22.845773111743483 16.882763452653364 L 22.772315380626054 16.912291389542645" style="fill:none;stroke:#000000;stroke-width:1;stroke-miterlimit:1;"/><path d="M 64.50374219497314 42.75654616426013 L 64.54502065394917 42.77547326235717 L 64.57947315066318 42.79127050385236" style="fill:none;stroke:#000000;stroke-width:1;stroke-miterlimit:1;"/><path d="M 58.36445445538027 36.16337117765835 L 58.388645687035506 36.15339176275265 L 58.39975923016516 36.14880718187874" style="fill:none;stroke:#000000;stroke-width:1;stroke-miterlimit:1;"/><path d="M 31.54108054918555 24.313302782761866 L 31.5 24.295185782013135 C 31.483118814283415 24.28504807557158 31.46645330485316 24.275095923479768 31.45000006577635 24.265326518334007" style="fill:none;stroke:#000000;stroke-width:1;stroke-miterlimit:1;"/><path d="M 55.884532634282664 37.18639345032145 L 55.969522521512005 37.151333253323685 L 55.99371375316724 37.141353838417984" style="fill:none;stroke:#000000;stroke-width:1;stroke-miterlimit:1;"/><path d="M 59.521186225264785 52.89250734419073 L 59.5 52.88276345265339 L 59.44999999999999 52.86276345265338" style="fill:none;stroke:#000000;stroke-width:1;stroke-miterlimit:1;"/><path d="M 54.55000000000004 50.9027634526534 L 54.50000000000003 50.88276345265339 L 54.44016360778875 50.863786403237924" style="fill:none;stroke:#000000;stroke-width:1;stroke-miterlimit:1;"/><path d="M 69.45501590631358 64.86027140581018 L 69.50000000000003 64.88276345265342 C 69.50828351310508 64.88422128720444 69.51653403757626 64.88566454340994 69.5247522331862 64.88709322126996" style="fill:none;stroke:#000000;stroke-width:1;stroke-miterlimit:1;"/><path d="M 76.69608332303241 57.664861227634646 C 76.69624938432332 57.66334452191808 76.69641512118127 57.66182816748733 76.69658053377071 57.660312165095576 C 76.69867158505164 57.64114773055053 76.70074938011192 57.6221385295961 76.70281395709068 57.60328282437891" style="fill:none;stroke:#000000;stroke-width:1;stroke-miterlimit:1;"/><path d="M 76.63775893835455 58.12018508372219 C 76.63752770858608 58.121763408074315 76.63729613826612 58.12334200990219 76.63706422723018 58.124920888452664 C 76.63310640951056 58.151866193057344 76.62904935762555 58.17889209363844 76.6248922540488 58.20599484656785" style="fill:none;stroke:#000000;stroke-width:1;stroke-miterlimit:1;"/><path d="M 76.96411303477808 54.82305010290591 C 76.96419323635945 54.82541561760152 76.96427170221926 54.82777757879768 76.96434842934377 54.83013612381825 C 76.96452723088623 54.83563237420279 76.9646965901211 54.84111007283832 76.96485646890923 54.84657095757822" style="fill:none;stroke:#000000;stroke-width:1;stroke-miterlimit:1;"/><path d="M 68.05536762209783 44.38504598064546 L 67.99027032535133 44.3551974118777 L 67.95581782863732 44.339400170382504" style="fill:none;stroke:#000000;stroke-width:1;stroke-miterlimit:1;"/><path d="M 61.7099817604647 60.987754332885686 L 61.72226171541564 60.993894310361156 L 61.75505500457501 61.01029095494084" style="fill:none;stroke:#000000;stroke-width:1;stroke-miterlimit:1;"/><path d="M 57.1205054186797 38.97374641408243 L 57.08720572840022 38.95446341369282 C 57.073278179990865 38.95767377275746 57.059354937403555 38.96089350981367 57.04543610576488 38.964122710970514" style="fill:none;stroke:#000000;stroke-width:1;stroke-miterlimit:1;"/><path d="M 53.17933214238417 40.267232674774135 C 53.16728749225322 40.27314383104576 53.15525755547475 40.27907289010568 53.1432424371753 40.28501993806296 C 53.136045644747924 40.288582089399085 53.12885416881642 40.292150694697085 53.12166803197232 40.29572577246162" style="fill:none;stroke:#000000;stroke-width:1;stroke-miterlimit:1;"/><path d="M 64.35851632614319 48.14318490817979 C 64.36255442124673 48.13802263166437 64.36659663218478 48.13286048876742 64.37064295937611 48.12769847315104 C 64.37537883779748 48.121656777259346 64.38012035494737 48.11561525572537 64.38486751149719 48.109573898387424" style="fill:none;stroke:#000000;stroke-width:1;stroke-miterlimit:1;"/><path d="M 51.18403653463119 41.550699799551865 C 51.17811382778257 41.55572119972052 51.17219867398936 41.560750885814514 51.16629109584309 41.5657888763385 C 51.15965307920587 41.571449785781994 51.153024627402914 41.57712118020419 51.146405772484485 41.58280308585742" style="fill:none;stroke:#000000;stroke-width:1;stroke-miterlimit:1;"/><path d="M 51.62870642959376 41.94521280285829 L 51.5 41.88276345265331 L 51.496662910958435 41.87959370689015" style="fill:none;stroke:#000000;stroke-width:1;stroke-miterlimit:1;"/><path d="M 61.33691798550936 56.64579711480147 C 61.33698668203476 56.639741237266065 61.33705844473161 56.63368791793235 61.3371332738908 56.627637152397654 C 61.3372550653944 56.61778896166254 61.337384980149295 56.60794753610139 61.33752301940979 56.59811285673166" style="fill:none;stroke:#000000;stroke-width:1;stroke-miterlimit:1;"/><path d="M 59.49999999999994 55.97760467950272 L 59.49999999999994 55.99876469189513 L 59.49999999999994 56.01992470428755" style="fill:none;stroke:#000000;stroke-width:1;stroke-miterlimit:1;"/><path d="M 63.26672322968162 49.70779862021644 C 63.271079222070426 49.700684170201555 63.27544268721945 49.69357113199936 63.27981362616907 49.68645948986398 C 63.28304089044764 49.68120863898503 63.28627222910205 49.67595854917815 63.28950764255109 49.670709214105415" style="fill:none;stroke:#000000;stroke-width:1;stroke-miterlimit:1;"/><path d="M 49.507133332688966 43.580841439097554 C 49.502703278047534 43.58883567361096 49.49828596121827 43.59684299208578 49.49388141425146 43.604863420774365 C 49.489206271523926 43.61337658890213 49.484545515903505 43.62190452759225 49.47989920792318 43.63044728997917" style="fill:none;stroke:#000000;stroke-width:1;stroke-miterlimit:1;"/><path d="M 74.18174668218956 49.321096958327104 C 74.14142940637623 49.31074416326692 74.09806875624577 49.27989113081816 74.05848796363051 49.2951658817141 C 74.02289056817963 49.30890338700718 73.98722996542242 49.32320908870557 73.95151517230872 49.33807540726309" style="fill:none;stroke:#000000;stroke-width:1;stroke-miterlimit:1;"/><path d="M 70.62559226556621 63.03058447290405 C 70.5837970954392 62.983604926238144 70.54193064189917 62.9343447772456 70.49999999999997 62.882763452653336 C 70.45806935810077 62.83118212806107 70.4169772038814 62.779411045256495 70.376714520392 62.72745778378578" style="fill:none;stroke:#000000;stroke-width:1;stroke-miterlimit:1;"/><path d="M 65.04657472504027 62.6560508151735 L 65.00159063135382 62.63355876833026 L 64.96879734219445 62.617162123750575" style="fill:none;stroke:#000000;stroke-width:1;stroke-miterlimit:1;"/><path d="M 60.506546175271836 60.38603654028924 L 60.494266220320895 60.37989656281377 L 60.484323558117694 60.374925231712155" style="fill:none;stroke:#000000;stroke-width:1;stroke-miterlimit:1;"/><path d="M 64.99078521958819 67.4099391975912 L 65.00159063135385 67.4039892616683 L 65.00159063135385 67.35628495673492" style="fill:none;stroke:#000000;stroke-width:1;stroke-miterlimit:1;"/><path d="M 60.49994266220321 69.78773478375496 L 60.5 69.88276345265336 L 60.534210494547864 69.86392564666642" style="fill:none;stroke:#000000;stroke-width:1;stroke-miterlimit:1;"/><path d="M 63.27981362616907 147.00288337006987 L 63.27981362616907 146.88276345265336 L 63.2632757575812 146.88276345265336" style="fill:none;stroke:#000000;stroke-width:1;stroke-miterlimit:1;"/><path d="M 51.49000000000012 163.92569316580472 L 51.500000000000114 163.93622780937193 L 51.52021608951614 163.92757581665683" style="fill:none;stroke:#000000;stroke-width:1;stroke-miterlimit:1;"/><path d="M 63.182231579423416 158.93651792773778 L 63.2798136261691 158.8947551943022 L 63.2798136261691 158.7746352768857" style="fill:none;stroke:#000000;stroke-width:1;stroke-miterlimit:1;"/><path d="M 61.61656352361234 146.8866974669071 L 61.62602676738291 146.88276345265336 L 61.642564635970786 146.88276345265336" style="fill:none;stroke:#000000;stroke-width:1;stroke-miterlimit:1;"/><path d="M 50.5 151.51346579769734 L 50.5 151.5080218684286 L 50.501158611467616 151.50754021603348" style="fill:none;stroke:#000000;stroke-width:1;stroke-miterlimit:1;"/><path d="M 50.50999999999999 162.89329809622063 L 50.5 162.88276345265342 L 50.5 162.87276345265343" style="fill:none;stroke:#000000;stroke-width:1;stroke-miterlimit:1;"/><path d="M 50.5 161.02028534579523 L 50.5 161.01157344572596 L 50.5 161.00399012281133" style="fill:none;stroke:#000000;stroke-width:1;stroke-miterlimit:1;"/><path d="M 49.48693871197136 164.8926188407964 C 49.49123142958973 164.88935980373435 49.49558467976402 164.88607494283036 49.50000000000003 164.88276345265336 L 49.50000000000003 164.8527634526534" style="fill:none;stroke:#000000;stroke-width:1;stroke-miterlimit:1;"/><path d="M 49.500384921462 161.864131809917 L 49.50000000000003 161.88276345265342 L 49.50000000000003 161.9127634526534" style="fill:none;stroke:#000000;stroke-width:1;stroke-miterlimit:1;"/><path d="M 52.499033858185584 146.92110337269497 L 52.49999999999997 146.88276345265336 L 52.48999999999998 146.88276345265336" style="fill:none;stroke:#000000;stroke-width:1;stroke-miterlimit:1;"/><path d="M 42.73180829572411 161.87276345265332 L 42.74425080376173 161.8827634526533 L 42.797838493196224 161.85960952076925" style="fill:none;stroke:#000000;stroke-width:1;stroke-miterlimit:1;"/><path d="M 52.38551057184381 150.72418646853367 L 52.403385818561816 150.71675545681268 L 52.40560783449712 150.71583173101914" style="fill:none;stroke:#000000;stroke-width:1;stroke-miterlimit:1;"/><path d="M 41.5 149.99276345265338 L 41.5 149.88276345265336 L 41.501452247049656 149.88232777853847" style="fill:none;stroke:#000000;stroke-width:1;stroke-miterlimit:1;"/><path d="M 41.51244250803762 160.8927634526533 L 41.5 160.8827634526533 L 41.5 160.7727634526533" style="fill:none;stroke:#000000;stroke-width:1;stroke-miterlimit:1;"/><path d="M 41.66736205851217 149.8325548350997 L 41.645224704966864 149.8391960411633 L 41.64377245791721 149.8396317152782" style="fill:none;stroke:#000000;stroke-width:1;stroke-miterlimit:1;"/><path d="M 50.63373639347901 151.45242561719112 L 50.615861146761006 151.45985662891212 L 50.61470253529339 151.46033828130726" style="fill:none;stroke:#000000;stroke-width:1;stroke-miterlimit:1;"/><path d="M 49.55575886292658 160.02167170614916 C 49.5500334489908 160.02098578506138 49.544277921144044 160.02029500136695 49.53849214619794 160.0195991790108 C 49.535936964327846 160.01929188177132 49.533375883105975 160.0189836017983 49.530808891060104 160.01867432392726" style="fill:none;stroke:#000000;stroke-width:1;stroke-miterlimit:1;"/><path d="M 63.93185486655244 67.99303291803602 L 63.92104945478678 67.99898285395892 L 63.88683896023892 68.01782065994587" style="fill:none;stroke:#000000;stroke-width:1;stroke-miterlimit:1;"/><path d="M 55.936083170417845 77.20167193122984 L 55.96952252151203 76.46002838631847 L 55.96939105888728 76.29808124201799" style="fill:none;stroke:#000000;stroke-width:1;stroke-miterlimit:1;"/><path d="M 55.97181249644666 60.27148845123199 L 55.95637625903703 60.26531395626813 L 55.93479577166812 60.25668176132058" style="fill:none;stroke:#000000;stroke-width:1;stroke-miterlimit:1;"/><path d="M 43.84323365910174 149.4797933549229 L 43.85680167586034 149.47572294989533 L 43.943233659101736 149.44979335492292" style="fill:none;stroke:#000000;stroke-width:1;stroke-miterlimit:1;"/><path d="M 29.52992671691706 25.63543408321985 L 29.50000000000003 25.622399350879164 C 29.50000000000003 25.622399350879164 29.50000000000003 25.622399350879164 29.50000000000003 25.622399350879164" style="fill:none;stroke:#000000;stroke-width:1;stroke-miterlimit:1;"/><path d="M 29.523044426529424 24.016120504964306 C 29.51548559739888 24.01520719603991 29.507805257200033 24.014201508498246 29.50000000000003 24.013100634935626 C 29.5062804951948 24.013100634935626 29.51237975262748 24.013128805715496 29.51830132528238 24.013185911450563" style="fill:none;stroke:#000000;stroke-width:1;stroke-miterlimit:1;"/><path d="M 17.93479355132078 43.49702626127669 C 17.93769855669791 43.51132441591537 17.940443862297485 43.52572679958783 17.943026248858644 43.54023385788577 L 17.948595986370066 43.54023385788577" style="fill:none;stroke:#000000;stroke-width:1;stroke-miterlimit:1;"/><path d="M 19.484430262488587 42.660327853911355 L 19.5 42.651439914477265 L 19.51110323875406 42.64375314985904" style="fill:none;stroke:#000000;stroke-width:1;stroke-miterlimit:1;"/><path d="M 18.75999999999999 43.662916702048506 L 18.5 43.54023385788577 L 18.494430262488578 43.54023385788577" style="fill:none;stroke:#000000;stroke-width:1;stroke-miterlimit:1;"/><path d="M 21.343572288320075 42.891999981302945 L 21.32379211396261 42.882763452653364 C 21.29761149944551 42.84800532951982 21.271784976437544 42.813116501857905 21.24630795258568 42.778100318240405" style="fill:none;stroke:#000000;stroke-width:1;stroke-miterlimit:1;"/><path d="M 35.50108054918553 25.885004676695644 L 35.49999999999997 25.882763452653336 L 35.49999999999997 25.822291389542613" style="fill:none;stroke:#000000;stroke-width:1;stroke-miterlimit:1;"/><path d="M 35.69018517478878 28.318565693359687 L 35.485343383407724 28.22934581901663 L 35.45541666649069 28.216311086675944" style="fill:none;stroke:#000000;stroke-width:1;stroke-miterlimit:1;"/><path d="M 32.51370901787959 27.807740812538952 C 32.51544351306708 27.808544819320048 32.517178206392 27.8093489517056 32.518913097766415 27.810153209633626 C 32.521543406834695 27.811372563739923 32.524174171145404 27.81259220642184 32.52680539039213 27.813812137463344" style="fill:none;stroke:#000000;stroke-width:1;stroke-miterlimit:1;"/><path d="M 26.760662261542507 25.381319666343387 C 26.757461277223513 25.380241508477667 26.754263339450063 25.379165363370902 26.751068450833998 25.378091232864477 C 26.745096244706815 25.376083360427373 26.7391346931999 25.374082527574984 26.733183813373472 25.37208874633498" style="fill:none;stroke:#000000;stroke-width:1;stroke-miterlimit:1;"/><path d="M 27.808533088252688 25.762841248638892 C 27.805152471021557 25.761535040426935 27.801774077666693 25.760230292224946 27.798397910051136 25.758927005346408 C 27.79461930842993 25.757468368669265 27.79084349478137 25.756011562453494 27.78707047171733 25.754556588540453" style="fill:none;stroke:#000000;stroke-width:1;stroke-miterlimit:1;"/><path d="M 24.001780385106457 44.13327393565626 L 24.00885079758521 44.13657552775774 L 24.017519800556357 44.140623595932425" style="fill:none;stroke:#000000;stroke-width:1;stroke-miterlimit:1;"/><path d="M 28.885109429620798 26.196165433391258 C 28.882124137513102 26.194922567491915 28.879140099299917 26.19368051924687 28.876157315880363 26.192439289290036 C 28.87235463098483 26.190856872552104 28.868553985522794 26.189275785789306 28.8647553813573 26.187696030315152" style="fill:none;stroke:#000000;stroke-width:1;stroke-miterlimit:1;"/><path d="M 29.817243786592826 26.59284675460529 C 29.814073742420817 26.59147145015828 29.810904821493693 26.59009687357903 29.807737024663794 26.588723025468425 C 29.804512273778386 26.587324476840166 29.80128868777402 26.585926683110415 29.798066267549785 26.58452964491309" style="fill:none;stroke:#000000;stroke-width:1;stroke-miterlimit:1;"/><path d="M 25.66751595705861 44.91110400200952 L 25.675513581930915 44.91483856419924 L 25.6861258067851 44.91979403714555" style="fill:none;stroke:#000000;stroke-width:1;stroke-miterlimit:1;"/><path d="M 30.802683054662566 27.027380524197298 C 30.798769539021606 27.025629663673357 30.7948574094371 27.023879694821005 30.790946667224432 27.022130618567616 C 30.787562574179532 27.020617085723387 30.784179519999554 27.019104221257862 30.78079750553684 27.017592025771904" style="fill:none;stroke:#000000;stroke-width:1;stroke-miterlimit:1;"/><path d="M 26.72612384249541 45.40543038588228 L 26.736736067349597 45.41038585882859 L 26.747172284126464 45.415259143235005" style="fill:none;stroke:#000000;stroke-width:1;stroke-miterlimit:1;"/><path d="M 28.720746852937765 46.336837371892585 L 28.730245732815575 46.341272958482705 L 28.73976906601419 46.34571996376886" style="fill:none;stroke:#000000;stroke-width:1;stroke-miterlimit:1;"/><path d="M 29.673055719479407 46.781526481811 L 29.682579052678022 46.78597348709715 L 29.694249290486937 46.79142300861912" style="fill:none;stroke:#000000;stroke-width:1;stroke-miterlimit:1;"/><path d="M 36.193156846929554 29.55153077554081 C 36.18868697846156 29.549378032280202 36.184217839052195 29.54722572963209 36.17974942974706 29.545073868333645 C 36.17744354508221 29.54396341858964 36.17513785484326 29.54285308637654 36.172832359173896 29.541742871795634" style="fill:none;stroke:#000000;stroke-width:1;stroke-miterlimit:1;"/><path d="M 37.56753319441589 30.215940992318053 C 37.55872976043145 30.211671180018328 37.549928603932244 30.20740270534344 37.541129732217144 30.20313557343917 C 37.53652575822545 30.200902813951075 37.5319224097764 30.198670422095233 37.52731968791559 30.19643839860879" style="fill:none;stroke:#000000;stroke-width:1;stroke-miterlimit:1;"/><path d="M 31.880367415715966 47.81225034462304 L 31.890779179172 47.81711221033345 L 31.903238411813476 47.82293016002211" style="fill:none;stroke:#000000;stroke-width:1;stroke-miterlimit:1;"/><path d="M 40.256767760605186 31.52560648257935 C 40.25185670245969 31.52320824147833 40.2469460877694 31.520810236383994 40.242035917650185 31.518412468083056 C 40.23285307763513 31.513928240008255 40.223671792518985 31.50944484012453 40.214492069600595 31.50496227357769" style="fill:none;stroke:#000000;stroke-width:1;stroke-miterlimit:1;"/><path d="M 35.351918687155006 49.43332214093911 L 35.362182108544545 49.43811473699989 L 35.371853783809655 49.442631011935646" style="fill:none;stroke:#000000;stroke-width:1;stroke-miterlimit:1;"/><path d="M 42.95335193851605 32.842921953660095 C 42.94919831814093 32.84089430265868 42.94504486247408 32.838866715621236 42.94089157214205 32.83683919298946 C 42.93682851615213 32.83485572029306 42.93276561839093 32.832872309234176 42.92870287944504 32.83088896022636" style="fill:none;stroke:#000000;stroke-width:1;stroke-miterlimit:1;"/><path d="M 37.25263199961424 50.32087715677875 L 37.26195808410472 50.325232055023235 L 37.274417316746195 50.3310500047119" style="fill:none;stroke:#000000;stroke-width:1;stroke-miterlimit:1;"/><path d="M 45.36499817775612 34.017408207087044 C 45.36052493065651 34.01523664055364 45.35605173378141 34.013065050089295 45.35157858789111 34.01089343623002 C 45.34770523152727 34.00901300698226 45.34383191339214 34.007132560192815 45.339958633979364 34.005252096209745" style="fill:none;stroke:#000000;stroke-width:1;stroke-miterlimit:1;"/><path d="M 38.49542211561007 50.90120907420027 L 38.507881348251544 50.90702702388893 L 38.522684734211424 50.91393959685507" style="fill:none;stroke:#000000;stroke-width:1;stroke-miterlimit:1;"/><path d="M 40.83823357789754 51.99520576001791 L 40.8468195741971 51.99921506748774 L 40.8544682335976 52.00278667714127" style="fill:none;stroke:#000000;stroke-width:1;stroke-miterlimit:1;"/><path d="M 49.57802883469557 36.043108893755516 C 49.57369403319751 36.04105045159889 49.569359050736836 36.038991825033776 49.565023888026076 36.03693301456252 C 49.559593026198314 36.034353846041085 49.554161881490586 36.03177438890194 49.54873045530374 36.0291946441327" style="fill:none;stroke:#000000;stroke-width:1;stroke-miterlimit:1;"/><path d="M 41.60403685484752 52.35280442318714 L 41.61168551424802 52.35637603284067 L 41.6238985915397 52.3620790380956" style="fill:none;stroke:#000000;stroke-width:1;stroke-miterlimit:1;"/><path d="M 42.82078016612439 52.920973553078625 L 42.83299324341607 52.926676558333554 L 42.849663310981896 52.93446079490698" style="fill:none;stroke:#000000;stroke-width:1;stroke-miterlimit:1;"/></svg>
