<svg xmlns="http://www.w3.org/2000/svg" xmlns:xlink="http://www.w3.org/1999/xlink" style="isolation:isolate" width="137.99999999999997" height="51.99999999999994"><path d="M 5.82235436005768 44.50991740722307 L 7.5 45.53951641084969 L 8.499999999999993 44.14342313833091 L 8.499999999999993 32.4473684210526 L 133.30180954970905 0.49999999999999645 L 136.73673606734963 2.4999999999999716 L 137.49999999999994 8.287849848471808 L 137.49999999999994 14.499999999999943 L 134.87575109469935 16.499999999999943 L 129.5 13.499999999999964 L 94.00000000000001 23.116217832065473 L 12.499999999999993 44.955574232484786 L 12.499999999999993 49.99122807017538 L 8.5 51.49999999999994 L 1.5 48.49999999999997 L 0.5 46.03177787214568 L 5.82235436005768 44.50991740722307 Z" style="stroke:none;fill:#E8E072;stroke-miterlimit:10;"/><path d="M 51.5 8.499999999999943 L 7.500000000000002 19.49999999999997 L 4.5 19.49999999999997 L 4.5 17.5 L 5.822354360057682 18.27555506706858 L 40.5 9.499999999999973 C 40.651468310921786 8.971233940327195 40.65606618751723 8.744209357403927 41.493167944278476 8.499999999999943 C 42.33026970103972 8.25579064259596 42.411939412394446 8.764381878069624 43.00000000000001 8.933599760824224 L 48.500000000000014 7.499999999999973 C 48.93632714202676 7.063672857973246 49.21998256847984 6.67084012832877 50.00000000000001 7 C 50.78001743152017 7.32915987167123 50.914605710000004 7.914605709999965 51.5 8.499999999999943 Z" style="stroke:none;fill:#E8E072;stroke-miterlimit:10;"/><path d="M 24.73388988557585 31.757331481946323 L 29.079100137896624 33.625007342871555 L 30.0629916754159 33.10205810181253 L 37 36.31364291996905 L 41.99999999999999 38.23194113315389 C 44.03434005663683 39.65261330386208 44.67659956215861 40.99862284275573 44.34068875603584 44.14342313833092 C 44.00477794991307 47.288223433906104 42.60444956018442 46.4949212841552 41.49316794427846 48 L 33 44.509917407223035 L 31.5 44.95557423248479 L 28.46924160742637 43.33692181968288 L 28.46924160742637 42.24330241912497 L 22.999999999999993 39.55566907999533 C 21.767807046565224 38.13672640605979 21.68924506589056 36.99611876575847 22 34.84522223867608 C 22.31075493410944 32.69432571159369 23.666954199905945 32.96242056003524 24.73388988557585 31.757331481946323 Z" style="stroke:none;fill:#4ABBF0;stroke-miterlimit:10;"/><path d="M 5.82235436005768 44.50991740722304 L 0.5 46.03177787214568" style="fill:none;stroke:#000000;stroke-width:1;stroke-linecap:round;stroke-miterlimit:1;"/><path d="M 0.5 46.03177787214568 L 1.5 48.49999999999997" style="fill:none;stroke:#000000;stroke-width:1;stroke-linecap:round;stroke-miterlimit:1;"/><path d="M 1.5 48.49999999999997 L 8.499999999999993 51.49999999999994" style="fill:none;stroke:#000000;stroke-width:1;stroke-linecap:round;stroke-miterlimit:1;"/><path d="M 8.499999999999993 51.49999999999994 L 12.499999999999993 49.991228070175396" style="fill:none;stroke:#000000;stroke-width:1;stroke-linecap:round;stroke-miterlimit:1;"/><path d="M 12.499999999999993 49.991228070175396 L 12.499999999999993 44.95557423248479" style="fill:none;stroke:#000000;stroke-width:1;stroke-linecap:round;stroke-miterlimit:1;"/><path d="M 12.499999999999993 44.95557423248479 L 12.499999999999993 44.50991740722307" style="fill:none;stroke:#000000;stroke-width:1;stroke-linecap:round;stroke-miterlimit:1;"/><path d="M 12.499999999999993 44.50991740722307 L 12.308734548496105 42.622210308709185" style="fill:none;stroke:#000000;stroke-width:1;stroke-linecap:round;stroke-miterlimit:1;"/><path d="M 12.308734548496105 42.622210308709185 L 11.5 34.64035087719296" style="fill:none;stroke:#000000;stroke-width:1;stroke-linecap:round;stroke-miterlimit:1;"/><path d="M 11.5 34.64035087719296 L 8.499999999999993 32.4473684210526" style="fill:none;stroke:#000000;stroke-width:1;stroke-linecap:round;stroke-miterlimit:1;"/><path d="M 8.499999999999993 32.4473684210526 L 8.499999999999993 44.14342313833092" style="fill:none;stroke:#000000;stroke-width:1;stroke-linecap:round;stroke-miterlimit:1;"/><path d="M 8.499999999999993 44.14342313833092 L 7.5 45.5395164108497" style="fill:none;stroke:#000000;stroke-width:1;stroke-linecap:round;stroke-miterlimit:1;"/><path d="M 7.5 45.5395164108497 L 5.82235436005768 44.50991740722304" style="fill:none;stroke:#000000;stroke-width:1;stroke-linecap:round;stroke-miterlimit:1;"/><path d="M 7.5 19.49999999999997 L 5.6633326006028994 18.27555506706858" style="fill:none;stroke:#000000;stroke-width:1;stroke-linecap:round;stroke-miterlimit:1;"/><path d="M 5.6633326006028994 18.27555506706858 L 4.5 17.5" style="fill:none;stroke:#000000;stroke-width:1;stroke-linecap:round;stroke-miterlimit:1;"/><path d="M 4.5 17.5 L 4.5 19.49999999999997" style="fill:none;stroke:#000000;stroke-width:1;stroke-linecap:round;stroke-miterlimit:1;"/><path d="M 4.5 19.49999999999997 L 7.5 19.49999999999997" style="fill:none;stroke:#000000;stroke-width:1;stroke-linecap:round;stroke-miterlimit:1;"/><path d="M 51.5 8.499999999999972 L 44.340688756035846 10.289827810991" style="fill:none;stroke:#000000;stroke-width:1;stroke-linecap:round;stroke-miterlimit:1;"/><path d="M 44.340688756035846 10.289827810991 L 43.999999999999986 10.374999999999972" style="fill:none;stroke:#000000;stroke-width:1;stroke-linecap:round;stroke-miterlimit:1;"/><path d="M 43.999999999999986 10.374999999999972 L 7.5 19.49999999999997" style="fill:none;stroke:#000000;stroke-width:1;stroke-linecap:round;stroke-miterlimit:1;"/><path d="M 44.5 10.499999999999972 C 44.445891709387354 10.42548311177913 44.39234007974771 10.353437422918859 44.340688756035846 10.289827810991" style="fill:none;stroke:#000000;stroke-width:1;stroke-linecap:round;stroke-miterlimit:1;"/><path d="M 44.340688756035846 10.289827810991 C 43.857306507679894 9.653729319232951 43.420137459104396 9.217909581688303 43.02821537548253 8.933599760824222" style="fill:none;stroke:#000000;stroke-width:1;stroke-linecap:round;stroke-miterlimit:1;"/><path d="M 43.02821537548253 8.933599760824222 C 41.60103111339774 7.898285552082569 40.77384523226476 8.872071949307468 40.5 9.499999999999972" style="fill:none;stroke:#000000;stroke-width:1;stroke-linecap:round;stroke-miterlimit:1;"/><path d="M 51.5 8.499999999999972 C 50.10874174931979 5.826818656997801 48.64693332557749 7.056043752684815 48.5 7.499999999999972" style="fill:none;stroke:#000000;stroke-width:1;stroke-linecap:round;stroke-miterlimit:1;"/><path d="M 48.5 7.499999999999972 L 43.02821537548253 8.933599760824222" style="fill:none;stroke:#000000;stroke-width:1;stroke-linecap:round;stroke-miterlimit:1;"/><path d="M 40.5 9.499999999999972 L 5.6633326006028994 18.27555506706858" style="fill:none;stroke:#000000;stroke-width:1;stroke-linecap:round;stroke-miterlimit:1;"/><path d="M 44.5 10.499999999999972 L 43.999999999999986 10.374999999999972" style="fill:none;stroke:#000000;stroke-width:1;stroke-linecap:round;stroke-miterlimit:1;"/><path d="M 43.999999999999986 10.374999999999972 L 40.5 9.499999999999972" style="fill:none;stroke:#000000;stroke-width:1;stroke-linecap:round;stroke-miterlimit:1;"/><path d="M 136.7367360673496 2.4999999999999716 L 133.30180954970908 0.5" style="fill:none;stroke:#000000;stroke-width:1;stroke-linecap:round;stroke-miterlimit:1;"/><path d="M 11.5 34.64035087719296 L 132.832985276789 3.501845976553227" style="fill:none;stroke:#000000;stroke-width:1;stroke-linecap:round;stroke-miterlimit:1;"/><path d="M 132.832985276789 3.501845976553227 L 136.7367360673496 2.4999999999999716" style="fill:none;stroke:#000000;stroke-width:1;stroke-linecap:round;stroke-miterlimit:1;"/><path d="M 8.499999999999993 32.4473684210526 L 133.30180954970908 0.5" style="fill:none;stroke:#000000;stroke-width:1;stroke-linecap:round;stroke-miterlimit:1;"/><path d="M 132.84577311174348 10.289827810991 L 135.6755135819309 11.499999999999972" style="fill:none;stroke:#000000;stroke-width:1;stroke-linecap:round;stroke-miterlimit:1;"/><path d="M 129.5 13.499999999999972 L 134.87575109469932 16.499999999999943" style="fill:none;stroke:#000000;stroke-width:1;stroke-linecap:round;stroke-miterlimit:1;"/><path d="M 134.87575109469932 16.499999999999943 L 137.49999999999997 14.499999999999943" style="fill:none;stroke:#000000;stroke-width:1;stroke-linecap:round;stroke-miterlimit:1;"/><path d="M 137.49999999999997 14.499999999999943 L 137.49999999999997 8.499999999999943" style="fill:none;stroke:#000000;stroke-width:1;stroke-linecap:round;stroke-miterlimit:1;"/><path d="M 137.49999999999997 8.499999999999943 L 136.7367360673496 2.4999999999999716" style="fill:none;stroke:#000000;stroke-width:1;stroke-linecap:round;stroke-miterlimit:1;"/><path d="M 129.5 13.499999999999972 L 135.6755135819309 11.499999999999972" style="fill:none;stroke:#000000;stroke-width:1;stroke-linecap:round;stroke-miterlimit:1;"/><path d="M 132.84577311174348 10.289827810991 L 132.832985276789 3.501845976553227" style="fill:none;stroke:#000000;stroke-width:1;stroke-linecap:round;stroke-miterlimit:1;"/><path d="M 12.499999999999993 44.95557423248479 L 26.339234517177005 41.14696407337709" style="fill:none;stroke:#000000;stroke-width:1;stroke-linecap:round;stroke-miterlimit:1;"/><path d="M 26.339234517177005 41.14696407337709 L 26.499999999999986 41.1027207989132" style="fill:none;stroke:#000000;stroke-width:1;stroke-linecap:round;stroke-miterlimit:1;"/><path d="M 26.499999999999986 41.1027207989132 L 26.229251552093928 40.969535534855" style="fill:none;stroke:#000000;stroke-width:1;stroke-linecap:round;stroke-miterlimit:1;"/><path d="M 26.229251552093928 40.969535534855 L 23.499999999999986 39.626975341220856" style="fill:none;stroke:#000000;stroke-width:1;stroke-linecap:round;stroke-miterlimit:1;"/><path d="M 23.499999999999986 39.626975341220856 L 12.308734548496105 42.622210308709185" style="fill:none;stroke:#000000;stroke-width:1;stroke-linecap:round;stroke-miterlimit:1;"/><path d="M 31.5 41.1618542160322 L 32.5 40.49999999999997" style="fill:none;stroke:#000000;stroke-width:1;stroke-linecap:round;stroke-miterlimit:1;"/><path d="M 32.5 40.49999999999997 L 32.5 41.49414830357" style="fill:none;stroke:#000000;stroke-width:1;stroke-linecap:round;stroke-miterlimit:1;"/><path d="M 32.5 41.49414830357 L 32.5 43.137703061184226" style="fill:none;stroke:#000000;stroke-width:1;stroke-linecap:round;stroke-miterlimit:1;"/><path d="M 32.5 43.137703061184226 L 32.5 44.14342313833092" style="fill:none;stroke:#000000;stroke-width:1;stroke-linecap:round;stroke-miterlimit:1;"/><path d="M 32.5 44.14342313833092 L 31.5 44.85612826999238" style="fill:none;stroke:#000000;stroke-width:1;stroke-linecap:round;stroke-miterlimit:1;"/><path d="M 31.5 41.1618542160322 L 31.5 44.85612826999238" style="fill:none;stroke:#000000;stroke-width:1;stroke-linecap:round;stroke-miterlimit:1;"/><path d="M 31.5 41.1618542160322 L 28.499999999999986 39.55566907999534" style="fill:none;stroke:#000000;stroke-width:1;stroke-linecap:round;stroke-miterlimit:1;"/><path d="M 28.499999999999986 39.55566907999534 L 28.499999999999986 39.70117947708175" style="fill:none;stroke:#000000;stroke-width:1;stroke-linecap:round;stroke-miterlimit:1;"/><path d="M 28.499999999999986 39.70117947708175 L 28.499999999999986 41.29492954507131" style="fill:none;stroke:#000000;stroke-width:1;stroke-linecap:round;stroke-miterlimit:1;"/><path d="M 28.499999999999986 41.29492954507131 L 28.499999999999986 42.29102333756478" style="fill:none;stroke:#000000;stroke-width:1;stroke-linecap:round;stroke-miterlimit:1;"/><path d="M 28.499999999999986 42.29102333756478 L 28.499999999999986 42.46533975125115" style="fill:none;stroke:#000000;stroke-width:1;stroke-linecap:round;stroke-miterlimit:1;"/><path d="M 28.499999999999986 42.46533975125115 L 28.499999999999986 43.336921819682885" style="fill:none;stroke:#000000;stroke-width:1;stroke-linecap:round;stroke-miterlimit:1;"/><path d="M 28.499999999999986 43.336921819682885 L 31.5 44.85612826999238" style="fill:none;stroke:#000000;stroke-width:1;stroke-linecap:round;stroke-miterlimit:1;"/><path d="M 28.499999999999986 39.55566907999534 L 29.499999999999986 38.49999999999997" style="fill:none;stroke:#000000;stroke-width:1;stroke-linecap:round;stroke-miterlimit:1;"/><path d="M 29.499999999999986 38.49999999999997 L 32.5 40.49999999999997" style="fill:none;stroke:#000000;stroke-width:1;stroke-linecap:round;stroke-miterlimit:1;"/><path d="M 37.5 36.313642919969055 C 37.2346459846096 36.522189804534605 36.9871964246438 36.74633417712624 36.75737607434948 36.983367591863356" style="fill:none;stroke:#000000;stroke-width:1;stroke-linecap:round;stroke-miterlimit:1;"/><path d="M 36.75737607434948 36.983367591863356 C 36.44447217643821 37.3060921865804 36.16424796076949 37.652709503068536 35.916008742058025 38.01638376828518" style="fill:none;stroke:#000000;stroke-width:1;stroke-linecap:round;stroke-miterlimit:1;"/><path d="M 35.916008742058025 38.01638376828518 C 35.62881036816579 38.43713379375993 35.3844243845259 38.880714796722486 35.18177501268275 39.336541009023335" style="fill:none;stroke:#000000;stroke-width:1;stroke-linecap:round;stroke-miterlimit:1;"/><path d="M 35.18177501268275 39.336541009023335 C 34.98520003096644 39.77870388638087 34.82789706144827 40.232388878011704 34.70888419388932 40.68793388845506" style="fill:none;stroke:#000000;stroke-width:1;stroke-linecap:round;stroke-miterlimit:1;"/><path d="M 34.70888419388932 40.68793388845506 C 34.57281320666296 41.208772185762484 34.48679517825147 41.7320419063426 34.449362579839615 42.24330241912497" style="fill:none;stroke:#000000;stroke-width:1;stroke-linecap:round;stroke-miterlimit:1;"/><path d="M 34.449362579839615 42.24330241912497 C 34.40632985176339 42.83105041301556 34.4275072995099 43.40292711906969 34.510665290251495 43.936992726121815" style="fill:none;stroke:#000000;stroke-width:1;stroke-linecap:round;stroke-miterlimit:1;"/><path d="M 34.510665290251495 43.936992726121815 C 34.59382328099309 44.47105833317397 34.73896181472978 44.96731284122413 34.94385125863391 45.40381643910686" style="fill:none;stroke:#000000;stroke-width:1;stroke-linecap:round;stroke-miterlimit:1;"/><path d="M 34.94385125863391 45.40381643910686 L 32.5 44.14342313833092" style="fill:none;stroke:#000000;stroke-width:1;stroke-linecap:round;stroke-miterlimit:1;"/><path d="M 37.5 36.313642919969055 L 40.06434759056086 37.54554287248823" style="fill:none;stroke:#000000;stroke-width:1;stroke-linecap:round;stroke-miterlimit:1;"/><path d="M 40.06434759056086 37.54554287248823 L 41.49316794427847 38.231941133153896" style="fill:none;stroke:#000000;stroke-width:1;stroke-linecap:round;stroke-miterlimit:1;"/><path d="M 37.5 36.313642919969055 L 30.0629916754159 33.10205810181253" style="fill:none;stroke:#000000;stroke-width:1;stroke-linecap:round;stroke-miterlimit:1;"/><path d="M 28.46924160742637 33.27637451549887 L 24.73388988557585 31.757331481946323" style="fill:none;stroke:#000000;stroke-width:1;stroke-linecap:round;stroke-miterlimit:1;"/><path d="M 30.0629916754159 33.10205810181253 C 29.702746365333837 33.20887502515083 29.375794699847717 33.34511014239135 29.07910013789663 33.505754676415734" style="fill:none;stroke:#000000;stroke-width:1;stroke-linecap:round;stroke-miterlimit:1;"/><path d="M 29.07910013789663 33.505754676415734 C 28.579600570764327 33.776207477032216 28.16585974749664 34.11584472286256 27.82338808973526 34.50076584181477" style="fill:none;stroke:#000000;stroke-width:1;stroke-linecap:round;stroke-miterlimit:1;"/><path d="M 27.82338808973526 34.50076584181477 C 27.16402373055152 35.241858604331895 26.768841441151537 36.150810598035065 26.53443224377233 37.05704862425253" style="fill:none;stroke:#000000;stroke-width:1;stroke-linecap:round;stroke-miterlimit:1;"/><path d="M 26.53443224377233 37.05704862425253 C 26.388882392099887 37.619751844819916 26.305317682788 38.181408710808626 26.258982735505867 38.70118520085316" style="fill:none;stroke:#000000;stroke-width:1;stroke-linecap:round;stroke-miterlimit:1;"/><path d="M 26.258982735505867 38.70118520085316 C 26.206344581346073 39.29166984832676 26.20175430573356 39.82810464140502 26.208917014175825 40.25062112008604" style="fill:none;stroke:#000000;stroke-width:1;stroke-linecap:round;stroke-miterlimit:1;"/><path d="M 26.208917014175825 40.25062112008604 C 26.21413531031166 40.55843989084951 26.225591687922375 40.80579472127425 26.229251552093928 40.969535534855" style="fill:none;stroke:#000000;stroke-width:1;stroke-linecap:round;stroke-miterlimit:1;"/><path d="M 28.499999999999986 42.29102333756478 L 26.339234517177005 41.14696407337709" style="fill:none;stroke:#000000;stroke-width:1;stroke-linecap:round;stroke-miterlimit:1;"/><path d="M 41.49316794427847 38.231941133153896 C 37.957034980926665 41.56885533800701 37.46437495990976 46.31811100936085 39.65039442816557 47.321296989656815" style="fill:none;stroke:#000000;stroke-width:1;stroke-linecap:round;stroke-miterlimit:1;"/><path d="M 39.65039442816557 47.321296989656815 C 41.83641389642138 48.32448296995278 43.3855389625072 46.775357903866905 43.63339897308094 45.907847866858845 C 43.88125898365469 45.040337829850785 45.79729719039307 39.54095978274677 41.49316794427847 38.231941133153896" style="fill:none;stroke:#000000;stroke-width:1;stroke-linecap:round;stroke-miterlimit:1;"/><path d="M 39.65039442816557 47.321296989656815 L 34.94385125863391 45.40381643910686" style="fill:none;stroke:#000000;stroke-width:1;stroke-linecap:round;stroke-miterlimit:1;"/><path d="M 24.73388988557585 31.757331481946323 C 20.17676078491823 33.625007342871584 21.867672597426704 39.47806417092295 23.499999999999986 39.626975341220856" style="fill:none;stroke:#000000;stroke-width:1;stroke-linecap:round;stroke-miterlimit:1;"/><path d="M 28.46924160742637 33.27637451549887 L 29.07910013789663 33.505754676415734" style="fill:none;stroke:#000000;stroke-width:1;stroke-linecap:round;stroke-miterlimit:1;"/><path d="M 36.75737607434948 36.983367591863356 L 29.116702572547126 33.625007342871555" style="fill:none;stroke:#000000;stroke-width:1;stroke-linecap:round;stroke-miterlimit:1;"/><path d="M 35.916008742058025 38.01638376828518 L 27.82338808973526 34.50076584181477" style="fill:none;stroke:#000000;stroke-width:1;stroke-linecap:round;stroke-miterlimit:1;"/><path d="M 35.18177501268275 39.336541009023335 L 27.174319677184855 35.6919019622955" style="fill:none;stroke:#000000;stroke-width:1;stroke-linecap:round;stroke-miterlimit:1;"/><path d="M 34.70888419388932 40.68793388845506 L 26.53443224377233 37.05704862425253" style="fill:none;stroke:#000000;stroke-width:1;stroke-linecap:round;stroke-miterlimit:1;"/><path d="M 34.449362579839615 42.24330241912497 L 32.5 41.49414830357" style="fill:none;stroke:#000000;stroke-width:1;stroke-linecap:round;stroke-miterlimit:1;"/><path d="M 28.499999999999986 39.70117947708175 L 26.258982735505867 38.70118520085316" style="fill:none;stroke:#000000;stroke-width:1;stroke-linecap:round;stroke-miterlimit:1;"/><path d="M 34.510665290251495 43.936992726121815 L 32.5 43.137703061184226" style="fill:none;stroke:#000000;stroke-width:1;stroke-linecap:round;stroke-miterlimit:1;"/><path d="M 28.499999999999986 41.29492954507131 L 26.208917014175825 40.25062112008604" style="fill:none;stroke:#000000;stroke-width:1;stroke-linecap:round;stroke-miterlimit:1;"/><path d="M 129.5 13.499999999999972 L 40.06434759056086 37.54554287248823" style="fill:none;stroke:#000000;stroke-width:1;stroke-linecap:round;stroke-miterlimit:1;"/><path d="M 132.84577311174348 10.289827810991 L 37.5 36.313642919969055" style="fill:none;stroke:#000000;stroke-width:1;stroke-linecap:round;stroke-miterlimit:1;"/><path d="M 89.28906842075679 23.116217832065473 C 88.41748635232503 22.680426797849577 87.8156796860269 23.15772174008609 88.00244727211941 23.51050495826084" style="fill:none;stroke:#000000;stroke-width:1;stroke-linecap:round;stroke-miterlimit:1;"/><path d="M 88.00244727211941 23.51050495826084 C 88.18921485821193 23.86328817643559 89.37207623679791 24.008551854507544 89.28906842075679 23.116217832065473" style="fill:none;stroke:#000000;stroke-width:1;stroke-linecap:round;stroke-miterlimit:1;"/><path d="M 81.88062083908662 25.232917141114086 C 80.7392633685212 24.631110474815955 80.4072321043567 25.315924957155204 80.38648015034642 25.564948405278585" style="fill:none;stroke:#000000;stroke-width:1;stroke-linecap:round;stroke-miterlimit:1;"/><path d="M 80.38648015034642 25.564948405278585 C 80.36572819633614 25.813971853401966 81.88062083908656 26.229010933607555 81.88062083908662 25.232917141114086" style="fill:none;stroke:#000000;stroke-width:1;stroke-linecap:round;stroke-miterlimit:1;"/><path d="M 16.34179968381835 34.84522223867609 C 15.420412925761894 35.44287851417215 15.818850442759299 36.46387465147794 16.44140906306771 36.563484030727295" style="fill:none;stroke:#000000;stroke-width:1;stroke-linecap:round;stroke-miterlimit:1;"/><path d="M 16.44140906306771 36.563484030727295 C 17.06396768337612 36.66309340997665 17.163577062625464 34.82031989386377 16.34179968381835 34.84522223867609" style="fill:none;stroke:#000000;stroke-width:1;stroke-linecap:round;stroke-miterlimit:1;"/><path d="M 16.541018442317053 38.03272237465518 C 15.943362166820975 39.277839615272 16.51611609750472 39.70117947708175 17.039065338563788 39.82569120114343" style="fill:none;stroke:#000000;stroke-width:1;stroke-linecap:round;stroke-miterlimit:1;"/><path d="M 17.039065338563788 39.82569120114343 C 17.562014579622854 39.950202925205105 17.736330993309224 38.00782002984286 16.541018442317053 38.03272237465518" style="fill:none;stroke:#000000;stroke-width:1;stroke-linecap:round;stroke-miterlimit:1;"/><path d="M 18.558108372116322 36.23975354816693 C 17.46240520037351 37.03662858216171 18.134768510306586 37.534675478408445 18.4086943032423 37.83350361615649" style="fill:none;stroke:#000000;stroke-width:1;stroke-linecap:round;stroke-miterlimit:1;"/><path d="M 18.4086943032423 37.83350361615649 C 18.682620096178013 38.13233175390454 19.454592785360433 36.51367934110263 18.558108372116322 36.23975354816693" style="fill:none;stroke:#000000;stroke-width:1;stroke-linecap:round;stroke-miterlimit:1;"/><path d="M 20.00244437123186 34.17285892874298 C 19.031252923550724 34.89502692830075 19.305178716486438 35.54248789342151 20.251467819355227 35.592292583046174" style="fill:none;stroke:#000000;stroke-width:1;stroke-linecap:round;stroke-miterlimit:1;"/><path d="M 20.251467819355227 35.592292583046174 C 21.197756922224016 35.64209727267084 20.923831129288317 33.99854251505664 20.00244437123186 34.17285892874298" style="fill:none;stroke:#000000;stroke-width:1;stroke-linecap:round;stroke-miterlimit:1;"/><path d="M 20.62500299154027 37.41016375434677 C 20.052249060856525 38.82959740864996 20.52539361229094 38.854499753462306 20.898928784475984 38.90430444308697" style="fill:none;stroke:#000000;stroke-width:1;stroke-linecap:round;stroke-miterlimit:1;"/><path d="M 20.898928784475984 38.90430444308697 C 21.272463956661028 38.954109132711636 21.546389749596727 37.33545671990976 20.62500299154027 37.41016375434677" style="fill:none;stroke:#000000;stroke-width:1;stroke-linecap:round;stroke-miterlimit:1;"/><path d="M 122.34878324967957 7.754106175367866 C 121.28963564836397 8.44630500142452 121.80669983168337 8.996728164313026 122.28206529054157 9.071785868343227" style="fill:none;stroke:#000000;stroke-width:1;stroke-linecap:round;stroke-miterlimit:1;"/><path d="M 122.28206529054157 9.071785868343227 C 122.75743074939976 9.146843572373427 123.15773850422778 7.812484389613672 122.34878324967957 7.754106175367866" style="fill:none;stroke:#000000;stroke-width:1;stroke-linecap:round;stroke-miterlimit:1;"/><path d="M 122.53225763730904 10.1309334696588 C 121.38971258707096 10.664677142762713 122.30708452521839 11.623747805371409 122.62399483112381 11.607068315586872 C 122.94090513702923 11.590388825802336 123.61642447330141 10.28938862261154 122.57395636177029 10.139273214551054" style="fill:none;stroke:#000000;stroke-width:1;stroke-linecap:round;stroke-miterlimit:1;"/><path d="M 124.18352712597431 8.287849848471808 C 123.07434105530521 8.9550294398517 123.8415975853921 9.763984694399909 124.1668476361898 9.705606480154131" style="fill:none;stroke:#000000;stroke-width:1;stroke-linecap:round;stroke-miterlimit:1;"/><path d="M 124.1668476361898 9.705606480154131 C 124.4920976869875 9.647228265908353 124.9841426356302 8.287849848471865 124.18352712597431 8.287849848471808" style="fill:none;stroke:#000000;stroke-width:1;stroke-linecap:round;stroke-miterlimit:1;"/><path d="M 126.36854028774351 9.30529872532614 C 125.2760337068589 10.064215510520796 125.9598927880233 10.923209234422472 126.3351813081745 10.789773316146466" style="fill:none;stroke:#000000;stroke-width:1;stroke-linecap:round;stroke-miterlimit:1;"/><path d="M 126.3351813081745 10.789773316146466 C 126.7104698283257 10.656337397870459 127.17749554229172 9.77232443929205 126.36854028774351 9.30529872532614" style="fill:none;stroke:#000000;stroke-width:1;stroke-linecap:round;stroke-miterlimit:1;"/><path d="M 125.76807865550157 6.46978546196155 C 125.00082212541469 6.986849645280955 125.33441192110467 8.004298522135315 125.75973891060934 8.045997246596556" style="fill:none;stroke:#000000;stroke-width:1;stroke-linecap:round;stroke-miterlimit:1;"/><path d="M 125.75973891060934 8.045997246596556 C 126.18506590011401 8.087695971057798 126.61039288961868 6.628240614914347 125.76807865550157 6.46978546196155" style="fill:none;stroke:#000000;stroke-width:1;stroke-linecap:round;stroke-miterlimit:1;"/><path d="M 5.8391308164571 44.52021339725931 L 5.82235436005768 44.50991740722304 L 5.769130816457107 44.52513601187226" style="fill:none;stroke:#000000;stroke-width:1;stroke-miterlimit:1;"/><path d="M 0.509999999999998 46.05646009342422 L 0.5 46.03177787214568 L 0.5532235436005806 46.01655926749646" style="fill:none;stroke:#000000;stroke-width:1;stroke-miterlimit:1;"/><path d="M 1.5700000000000003 48.52999999999997 L 1.5 48.49999999999997 L 1.490000000000002 48.47531777872143" style="fill:none;stroke:#000000;stroke-width:1;stroke-miterlimit:1;"/><path d="M 8.429999999999993 51.46999999999994 L 8.499999999999993 51.49999999999994 L 8.539999999999992 51.48491228070171" style="fill:none;stroke:#000000;stroke-width:1;stroke-miterlimit:1;"/><path d="M 12.459999999999994 50.00631578947363 L 12.499999999999993 49.991228070175396 L 12.499999999999993 49.94087153179848" style="fill:none;stroke:#000000;stroke-width:1;stroke-miterlimit:1;"/><path d="M 12.499999999999993 44.51437397547568 L 12.499999999999993 44.50991740722307 L 12.498087345484954 44.491040336237944" style="fill:none;stroke:#000000;stroke-width:1;stroke-miterlimit:1;"/><path d="M 9.74801809549708 32.12789473684208 L 8.499999999999993 32.4473684210526 L 8.499999999999993 32.5643289682254" style="fill:none;stroke:#000000;stroke-width:1;stroke-miterlimit:1;"/><path d="M 8.489999999999995 44.1573840710561 L 8.499999999999993 44.14342313833092 L 8.499999999999993 44.02646259115812" style="fill:none;stroke:#000000;stroke-width:1;stroke-miterlimit:1;"/><path d="M 7.48322354360058 45.52922042081343 L 7.5 45.5395164108497 L 7.509999999999998 45.52555547812452" style="fill:none;stroke:#000000;stroke-width:1;stroke-miterlimit:1;"/><path d="M 7.469999999999999 19.49999999999997 L 7.5 19.49999999999997 L 7.865000000000002 19.40874999999997" style="fill:none;stroke:#000000;stroke-width:1;stroke-miterlimit:1;"/><path d="M 4.511633326006027 17.50775555067068 L 4.5 17.5 L 4.5 17.52000000000001" style="fill:none;stroke:#000000;stroke-width:1;stroke-miterlimit:1;"/><path d="M 4.5 19.47999999999996 L 4.5 19.49999999999997 L 4.530000000000001 19.49999999999997" style="fill:none;stroke:#000000;stroke-width:1;stroke-miterlimit:1;"/><path d="M 51.42840688756036 8.517898278109868 L 51.5 8.499999999999972 C 51.486087417493195 8.473268186569953 51.472167779969084 8.446926613783802 51.458242472852945 8.420970593966217" style="fill:none;stroke:#000000;stroke-width:1;stroke-miterlimit:1;"/><path d="M 44.495000000000005 10.498749999999973 L 44.5 10.499999999999972 C 44.499458917093875 10.499254831117753 44.49891788985384 10.498509909355477 44.49837691962355 10.497765240678007" style="fill:none;stroke:#000000;stroke-width:1;stroke-miterlimit:1;"/><path d="M 48.44528215375483 7.514335997608214 L 48.5 7.499999999999972 C 48.50146933325577 7.495560437526819 48.50307015402136 7.491042348168833 48.5048010768715 7.486450419601283" style="fill:none;stroke:#000000;stroke-width:1;stroke-miterlimit:1;"/><path d="M 136.7443687066761 2.559999999999974 L 136.7367360673496 2.4999999999999716 L 136.70238680217318 2.4799999999999613" style="fill:none;stroke:#000000;stroke-width:1;stroke-miterlimit:1;"/><path d="M 133.3361588148855 0.5200000000000102 L 133.30180954970908 0.5 L 132.053791454212 0.8194736842105215" style="fill:none;stroke:#000000;stroke-width:1;stroke-miterlimit:1;"/><path d="M 135.61375844611158 11.519999999999982 L 135.6755135819309 11.499999999999972 L 135.647216177229 11.487898278109896" style="fill:none;stroke:#000000;stroke-width:1;stroke-miterlimit:1;"/><path d="M 134.82199358375235 16.469999999999942 L 134.87575109469932 16.499999999999943 L 134.90199358375233 16.479999999999933" style="fill:none;stroke:#000000;stroke-width:1;stroke-miterlimit:1;"/><path d="M 137.47375751094697 14.519999999999953 L 137.49999999999997 14.499999999999943 L 137.49999999999997 14.43999999999994" style="fill:none;stroke:#000000;stroke-width:1;stroke-miterlimit:1;"/><path d="M 137.49999999999997 8.559999999999945 L 137.49999999999997 8.499999999999943 L 137.49236736067346 8.43999999999994" style="fill:none;stroke:#000000;stroke-width:1;stroke-miterlimit:1;"/><path d="M 132.87202278469462 3.4918275167877084 L 132.832985276789 3.501845976553227 L 131.61965542402112 3.8132310255596167" style="fill:none;stroke:#000000;stroke-width:1;stroke-miterlimit:1;"/><path d="M 26.49839234517175 41.103163231657845 L 26.499999999999986 41.1027207989132 L 26.497292515520925 41.10138894627261" style="fill:none;stroke:#000000;stroke-width:1;stroke-miterlimit:1;"/><path d="M 23.527292515520926 39.6404009431572 L 23.499999999999986 39.626975341220856 C 23.48367672597425 39.62548622951789 23.467347593507526 39.62342670324912 23.451018909225127 39.620806451941206" style="fill:none;stroke:#000000;stroke-width:1;stroke-miterlimit:1;"/><path d="M 31.47 44.8409362054893 L 31.5 44.85612826999238 L 31.510000000000005 44.84900121867577" style="fill:none;stroke:#000000;stroke-width:1;stroke-miterlimit:1;"/><path d="M 32.5 40.509941483035675 L 32.5 40.49999999999997 L 32.47 40.47999999999996" style="fill:none;stroke:#000000;stroke-width:1;stroke-miterlimit:1;"/><path d="M 28.50999999999999 39.545112389195396 L 28.499999999999986 39.55566907999534 L 28.499999999999986 39.55712418396621" style="fill:none;stroke:#000000;stroke-width:1;stroke-miterlimit:1;"/><path d="M 28.529999999999987 43.35211388418597 L 28.499999999999986 43.336921819682885 L 28.499999999999986 43.328205998998556" style="fill:none;stroke:#000000;stroke-width:1;stroke-miterlimit:1;"/><path d="M 29.529999999999987 38.51999999999998 L 29.499999999999986 38.49999999999997 L 29.48999999999998 38.510556690799916" style="fill:none;stroke:#000000;stroke-width:1;stroke-miterlimit:1;"/><path d="M 34.91941274604757 45.391212506099095 L 34.94385125863391 45.40381643910686 L 34.99091669032923 45.42299124461235" style="fill:none;stroke:#000000;stroke-width:1;stroke-miterlimit:1;"/><path d="M 30.13736175866174 33.13417394999411 L 30.0629916754159 33.10205810181253 C 30.059389222315076 33.10312627104591 30.05579009857871 33.104197382098675 30.052194301170275 33.10527142996207" style="fill:none;stroke:#000000;stroke-width:1;stroke-miterlimit:1;"/><path d="M 28.475340192731068 33.27866831710804 L 28.46924160742637 33.27637451549887 L 28.431888090207863 33.261184085163336" style="fill:none;stroke:#000000;stroke-width:1;stroke-miterlimit:1;"/><path d="M 24.771243402794354 31.77252191228186 L 24.73388988557585 31.757331481946323 C 24.688318594569267 31.77600824055557 24.643372107654002 31.795083537261547 24.59904411820473 31.814547682537608" style="fill:none;stroke:#000000;stroke-width:1;stroke-miterlimit:1;"/><path d="M 26.201959036572987 40.95610993291865 L 26.229251552093928 40.969535534855 L 26.231959036572988 40.97086738749559" style="fill:none;stroke:#000000;stroke-width:1;stroke-miterlimit:1;"/><path d="M 28.499999999999986 42.47405557193548 L 28.499999999999986 42.46533975125115 L 28.499999999999986 42.463596587114296" style="fill:none;stroke:#000000;stroke-width:1;stroke-miterlimit:1;"/><path d="M 26.54151285503029 37.029860839848965 C 26.53913650502912 37.03892359233143 26.536776335746126 37.04798624399035 26.53443224377233 37.05704862425253 C 26.53297674525561 37.0626756564582 26.53152744525312 37.0683025840284 26.53008431900949 37.073929366129136" style="fill:none;stroke:#000000;stroke-width:1;stroke-miterlimit:1;"/><path d="M 34.51317862190702 43.953003329063876 C 34.51233464812063 43.947670257152964 34.51149687015891 43.942333382192345 34.510665290251495 43.936992726121815 C 34.50983371034408 43.931652070051285 34.509008328490964 43.92630763287087 34.50818914692178 43.92095943652038" style="fill:none;stroke:#000000;stroke-width:1;stroke-miterlimit:1;"/><path d="M 89.29118115644263 23.142677403506724 C 89.29060199015817 23.133960752744258 89.297084156806 23.12022570009006 89.28906842075679 23.116217832065473 C 89.28035260007246 23.111859921723322 89.27166375692835 23.107593319978804 89.2630024101233 23.103416989234233" style="fill:none;stroke:#000000;stroke-width:1;stroke-miterlimit:1;"/><path d="M 88.00834686587694 23.521025368865907 C 88.0062822332205 23.517539870670333 88.00431494798033 23.5140327904426 88.00244727211941 23.51050495826084 C 88.00057959625849 23.50697712607908 87.99879077782279 23.503436842724938 87.99708029801349 23.49988514579607" style="fill:none;stroke:#000000;stroke-width:1;stroke-miterlimit:1;"/><path d="M 81.88016942183103 25.262378192175618 C 81.88046934982233 25.252697903676705 81.88943197698688 25.237563013825138 81.88062083908662 25.232917141114086 C 81.86920726438098 25.226899074451097 81.85787462229595 25.22100966990297 81.84662241478469 25.215247205057523" style="fill:none;stroke:#000000;stroke-width:1;stroke-miterlimit:1;"/><path d="M 80.38631523456789 25.5724673362634 C 80.38621867572587 25.569945475804246 80.3862726308063 25.567438639759814 80.38648015034642 25.564948405278585 C 80.38668766988653 25.562458170797356 80.38692631735765 25.559924357212708 80.38719659080667 25.55734868693682" style="fill:none;stroke:#000000;stroke-width:1;stroke-miterlimit:1;"/><path d="M 16.314552932655985 34.86327758417292 C 16.323503931084716 34.85721769817221 16.33082225231064 34.84555488811574 16.34179968381835 34.84522223867609 C 16.350017457606427 34.84497321522795 16.35814309271869 34.84491095936593 16.366176987592667 34.84503166103124" style="fill:none;stroke:#000000;stroke-width:1;stroke-miterlimit:1;"/><path d="M 16.45992853846714 36.565893407294936 C 16.45380794054978 36.565281980022746 16.447634649270796 36.564480124519775 16.44140906306771 36.563484030727295 C 16.435183476864623 36.562487936934815 16.428980302771876 36.56139970446651 16.422800636492624 36.560220678049035" style="fill:none;stroke:#000000;stroke-width:1;stroke-miterlimit:1;"/><path d="M 16.52343865689913 38.06982988160928 C 16.52918235782775 38.057542541729646 16.527210175179604 38.03301004688723 16.541018442317053 38.03272237465518 C 16.552971567826972 38.032473351207045 16.56478773044043 38.03242105628294 16.576467951153546 38.03256145570299" style="fill:none;stroke:#000000;stroke-width:1;stroke-miterlimit:1;"/><path d="M 17.05464820495122 39.82881051865931 C 17.049489460102237 39.82797474616271 17.04429483097438 39.82693631838404 17.039065338563788 39.82569120114343 C 17.033835846153195 39.824446083902814 17.028601373273645 39.82317108384842 17.02336314014002 39.821865678031" style="fill:none;stroke:#000000;stroke-width:1;stroke-miterlimit:1;"/><path d="M 18.584504533886914 36.2483714777338 C 18.575871214670954 36.24536653668764 18.56568946798056 36.23424002390203 18.558108372116322 36.23975354816693 C 18.547151340398898 36.247722298506886 18.536371115329644 36.255661166033065 18.525765530404556 36.26357025035483" style="fill:none;stroke:#000000;stroke-width:1;stroke-miterlimit:1;"/><path d="M 18.417059324595257 37.84189647833094 C 18.41422262379065 37.839288430856385 18.411433561171663 37.83649189753396 18.4086943032423 37.83350361615649 C 18.405955045312936 37.83051533477902 18.40317594363188 37.82750713152569 18.40035916470312 37.824478906787135" style="fill:none;stroke:#000000;stroke-width:1;stroke-miterlimit:1;"/><path d="M 19.973681590219684 34.19450103367015 C 19.983145054002307 34.18729481803069 19.990552675252175 34.17510870906344 20.00244437123186 34.17285892874298 C 20.01165823881243 34.17111576460613 20.020807360296487 34.1695543875864 20.0298911629301 34.16817128645317" style="fill:none;stroke:#000000;stroke-width:1;stroke-miterlimit:1;"/><path d="M 20.27949100072648 35.59328222713134 C 20.27027157992302 35.593119340893935 20.260930710383917 35.592790629942414 20.251467819355227 35.592292583046174 C 20.242004928326537 35.59179453614993 20.23260927362884 35.59123672362614 20.223281428016065 35.59061966842404" style="fill:none;stroke:#000000;stroke-width:1;stroke-miterlimit:1;"/><path d="M 20.60813299765654 37.45232982401666 C 20.613652502774812 37.43841297430188 20.609746722653824 37.411400749121356 20.62500299154027 37.41016375434677 C 20.63421685912084 37.409416684002395 20.6433111954463 37.40883894960274 20.652287096219837 37.40842718933126" style="fill:none;stroke:#000000;stroke-width:1;stroke-miterlimit:1;"/><path d="M 20.910103861124583 38.905301408461526 C 20.906389526981755 38.905133691169226 20.902664136197828 38.90480248998321 20.898928784475984 38.90430444308697 C 20.89519343275414 38.90380639619073 20.891448120094367 38.903310839528956 20.88769399200453 38.902816353668015" style="fill:none;stroke:#000000;stroke-width:1;stroke-miterlimit:1;"/><path d="M 122.3726902626185 7.756237630687963 C 122.36484142846959 7.755401337749646 122.3555725082465 7.749669100871387 122.34878324967957 7.754106175367866 C 122.33819177366641 7.761028163628424 122.32775791883171 7.767935974322683 122.31748006726497 7.774829273860831" style="fill:none;stroke:#000000;stroke-width:1;stroke-miterlimit:1;"/><path d="M 122.2963026027908 9.07361745979594 C 122.29156509394832 9.073146080735143 122.28681894513014 9.07253644538352 122.28206529054157 9.071785868343227 C 122.277311635953 9.071035291302934 122.27255381149197 9.070237177716734 122.267793435069 9.069391861174466" style="fill:none;stroke:#000000;stroke-width:1;stroke-miterlimit:1;"/><path d="M 124.20715925258185 8.28825500161841 C 124.19941017012158 8.287985786313556 124.19038779161548 8.283723132296672 124.18352712597431 8.287849848471808 C 124.17243526526761 8.294521644385611 124.16153104882099 8.301207617865714 124.15081215818537 8.307906759803018" style="fill:none;stroke:#000000;stroke-width:1;stroke-miterlimit:1;"/><path d="M 124.15695985117117 9.707098635649999 C 124.16029843452591 9.706687311092168 124.16359513568182 9.706190262296587 124.1668476361898 9.705606480154131 C 124.17010013669778 9.705022698011675 124.17336931669556 9.70430881584889 124.17665371672774 9.703467494044418" style="fill:none;stroke:#000000;stroke-width:1;stroke-miterlimit:1;"/><path d="M 126.39242751880755 9.319433425354191 C 126.38459179473762 9.3146809383299 126.3762118492331 9.299969625360092 126.36854028774351 9.30529872532614 C 126.35761522193468 9.312887893178072 126.34686779269205 9.320487068723878 126.3362959150794 9.328095159456979" style="fill:none;stroke:#000000;stroke-width:1;stroke-miterlimit:1;"/><path d="M 126.32383216633787 10.79347975730866 C 126.32764468071537 10.792342791547753 126.33142842297298 10.791107675329215 126.3351813081745 10.789773316146466 C 126.33893419337602 10.788438956963716 126.34269625229692 10.78702954007693 126.34646611721902 10.785546233050383" style="fill:none;stroke:#000000;stroke-width:1;stroke-miterlimit:1;"/><path d="M 125.79296905779921 6.47492661445682 C 125.78479817606154 6.473084665040943 125.77518620562651 6.464995591225204 125.76807865550157 6.46978546196155 C 125.76040609020069 6.474956103794739 125.75284360953239 6.480176784097296 125.74539020438755 6.485446026734337" style="fill:none;stroke:#000000;stroke-width:1;stroke-miterlimit:1;"/><path d="M 125.77249745265328 8.046800664260502 C 125.76824545039946 8.04668110567772 125.7639921805044 8.046414233841176 125.75973891060934 8.045997246596556 C 125.75548564071428 8.045580259351937 125.75124154453863 8.045065697092099 125.74700763119148 8.044455035951842" style="fill:none;stroke:#000000;stroke-width:1;stroke-miterlimit:1;"/></svg>
