<svg xmlns="http://www.w3.org/2000/svg" xmlns:xlink="http://www.w3.org/1999/xlink" style="isolation:isolate" width="9.654062869183235" height="197.44261655488998"><path d="M 7.796456756580085 172.0291936128505 L 7.796456756580085 195.4214188878056 L 5.429951340624719 196.94261655488992 L 1.3076899088896425 194.6567391406542 L 1.3076899088896425 171.58029288847015 L 3.6904832090312425 170.02919361285046 L 7.796456756580085 172.0291936128505 Z" style="stroke:none;fill:#E8E072;stroke-miterlimit:10;"/><path d="M 7.796456756580085 172.0291936128505 L 3.6904832090312425 170.02919361285046" style="fill:none;stroke:#000000;stroke-width:1;stroke-linecap:round;stroke-miterlimit:3;"/><path d="M 3.6904832090312425 170.02919361285046 L 1.3076899088896425 171.58029288847015" style="fill:none;stroke:#000000;stroke-width:1;stroke-linecap:round;stroke-miterlimit:3;"/><path d="M 1.3076899088896425 171.58029288847015 L 1.3076899088896425 194.6567391406542" style="fill:none;stroke:#000000;stroke-width:1;stroke-linecap:round;stroke-miterlimit:3;"/><path d="M 1.3076899088896425 194.6567391406542 L 5.429951340624719 196.94261655488992" style="fill:none;stroke:#000000;stroke-width:1;stroke-linecap:round;stroke-miterlimit:3;"/><path d="M 5.429951340624719 196.94261655488992 L 7.796456756580085 195.4214188878056" style="fill:none;stroke:#000000;stroke-width:1;stroke-linecap:round;stroke-miterlimit:3;"/><path d="M 7.796456756580085 195.4214188878056 L 7.796456756580085 172.0291936128505" style="fill:none;stroke:#000000;stroke-width:1;stroke-linecap:round;stroke-miterlimit:3;"/><path d="M 7.796456756580085 172.26311586560004 L 7.796456756580085 172.0291936128505 L 7.755397021104597 172.00919361285048" style="fill:none;stroke:#000000;stroke-width:1;stroke-miterlimit:3;"/><path d="M 3.7315429445067307 170.04919361285047 L 3.6904832090312425 170.02919361285046 L 3.6666552760298265 170.04470460560665" style="fill:none;stroke:#000000;stroke-width:1;stroke-miterlimit:3;"/><path d="M 1.3076899088896425 171.811057350992 L 1.3076899088896425 171.58029288847015 L 1.3315178418910585 171.56478189571396" style="fill:none;stroke:#000000;stroke-width:1;stroke-miterlimit:3;"/><path d="M 1.3489125232069934 194.67959791479655 L 1.3076899088896425 194.6567391406542 L 1.3076899088896425 194.42597467813235" style="fill:none;stroke:#000000;stroke-width:1;stroke-miterlimit:3;"/><path d="M 5.3887287263073675 196.91975778074757 L 5.429951340624719 196.94261655488992 L 5.453616394784272 196.92740457821907" style="fill:none;stroke:#000000;stroke-width:1;stroke-miterlimit:3;"/><path d="M 7.772791702420531 195.43663086447646 L 7.796456756580085 195.4214188878056 L 7.796456756580085 195.18749663505605" style="fill:none;stroke:#000000;stroke-width:1;stroke-miterlimit:3;"/><path d="M 6.610429199849591 14.029193612850495 L 0.5000000000000071 10.352887224813376 L 0.7253662205516207 1.5034646897769335 L 2 1.5034646897769335 L 4.261336128789878 0.5 L 9.154062869183235 3.4999999999999964 L 9.154062869183235 11.960457323373387 L 6.610429199849591 14.029193612850495 Z" style="stroke:none;fill:#E8E072;stroke-miterlimit:10;"/><path d="M 6.610429199849591 14.029193612850495 L 9.154062869183235 11.960457323373387" style="fill:none;stroke:#000000;stroke-width:1;stroke-linecap:round;stroke-miterlimit:3;"/><path d="M 9.154062869183235 11.960457323373387 L 9.154062869183235 3.4999999999999964" style="fill:none;stroke:#000000;stroke-width:1;stroke-linecap:round;stroke-miterlimit:3;"/><path d="M 9.154062869183235 3.4999999999999964 L 4.261336128789878 0.5" style="fill:none;stroke:#000000;stroke-width:1;stroke-linecap:round;stroke-miterlimit:3;"/><path d="M 4.261336128789878 0.5 L 2 1.5034646897769335" style="fill:none;stroke:#000000;stroke-width:1;stroke-linecap:round;stroke-miterlimit:3;"/><path d="M 2 1.5034646897769335 L 0.7253662205516207 1.5034646897769335" style="fill:none;stroke:#000000;stroke-width:1;stroke-linecap:round;stroke-miterlimit:3;"/><path d="M 0.7253662205516207 1.5034646897769335 L 0.5000000000000071 10.352887224813376" style="fill:none;stroke:#000000;stroke-width:1;stroke-linecap:round;stroke-miterlimit:3;"/><path d="M 0.5000000000000071 10.352887224813376 L 6.610429199849591 14.029193612850491" style="fill:none;stroke:#000000;stroke-width:1;stroke-linecap:round;stroke-miterlimit:3;"/><path d="M 6.549324907851095 13.99243054897012 L 6.610429199849591 14.029193612850491 L 6.635865536542927 14.008506249955724" style="fill:none;stroke:#000000;stroke-width:1;stroke-miterlimit:3;"/><path d="M 9.1286265324899 11.981144686268157 L 9.154062869183235 11.960457323373387 L 9.154062869183235 11.875852750139654" style="fill:none;stroke:#000000;stroke-width:1;stroke-miterlimit:3;"/><path d="M 9.154062869183235 3.5846045732337313 L 9.154062869183235 3.4999999999999964 L 9.105135601779303 3.4699999999999966" style="fill:none;stroke:#000000;stroke-width:1;stroke-miterlimit:3;"/><path d="M 4.310263396193812 0.5299999999999998 L 4.261336128789878 0.5 L 4.238722767501979 0.5100346468977693" style="fill:none;stroke:#000000;stroke-width:1;stroke-miterlimit:3;"/><path d="M 1.9872536622055161 1.5034646897769335 L 2 1.5034646897769335 L 2.022613361287899 1.4934300428791643" style="fill:none;stroke:#000000;stroke-width:1;stroke-miterlimit:3;"/><path d="M 0.7231125583461046 1.591958915127298 L 0.7253662205516207 1.5034646897769335 L 0.7381125583461046 1.5034646897769335" style="fill:none;stroke:#000000;stroke-width:1;stroke-miterlimit:3;"/><path d="M 0.561104291998503 10.389650288693748 L 0.5000000000000071 10.352887224813376 L 0.5022536622055233 10.264392999463011" style="fill:none;stroke:#000000;stroke-width:1;stroke-miterlimit:3;"/><path d="M 2.361839251912256 176.5451659537115 C 2.361839251912256 175.99856242732315 2.824393515084332 175.55478972336851 3.3941306556130186 175.55478972336851 C 3.9638677961417645 175.55478972336851 4.426422059313841 175.99856242732315 4.426422059313841 176.54516595371146 C 4.426422059313841 177.09176948009974 3.9638677961417645 177.5355421840544 3.3941306556130773 177.53554218405444 C 2.824393515084332 177.5355421840544 2.3618392519122557 177.09176948009974 2.361839251912256 176.5451659537115 Z M 2.3618392519122557 179.5731565182715 C 2.3618392519122557 179.02655299188325 2.824393515084332 178.58278028792856 3.3941306556130186 178.58278028792859 C 3.9638677961417645 178.58278028792859 4.42642205931384 179.0265529918832 4.42642205931384 179.5731565182715 C 4.42642205931384 180.11976004465984 3.9638677961417645 180.56353274861448 3.3941306556130773 180.56353274861445 C 2.824393515084332 180.56353274861445 2.3618392519122557 180.11976004465984 2.3618392519122557 179.5731565182715 Z M 2.3305557831530703 182.48742333576908 C 2.3305557831530703 181.94081980938077 2.793110046325146 181.49704710542613 3.362847186853833 181.49704710542613 C 3.9325843273825782 181.49704710542616 4.395138590554654 181.9408198093808 4.395138590554654 182.4874233357691 C 4.395138590554654 183.03402686215742 3.9325843273825782 183.47779956611205 3.3628471868538923 183.47779956611205 C 2.793110046325146 183.47779956611205 2.3305557831530703 183.03402686215742 2.3305557831530703 182.48742333576908 Z M 2.3305557831530703 185.51541390032918 C 2.3305557831530703 184.96881037394084 2.7931100463251464 184.5250376699862 3.362847186853833 184.5250376699862 C 3.9325843273825787 184.52503766998626 4.395138590554655 184.96881037394084 4.395138590554655 185.51541390032918 C 4.395138590554655 186.0620174267175 3.9325843273825787 186.50579013067215 3.3628471868538923 186.5057901306721 C 2.7931100463251464 186.5057901306721 2.3305557831530703 186.0620174267175 2.3305557831530703 185.51541390032918 Z M 2.29433503214607 188.5236610389161 C 2.29433503214607 187.97705751252775 2.756889295318146 187.53328480857317 3.3266264358468924 187.53328480857317 C 3.8963635763755784 187.53328480857314 4.358917839547654 187.97705751252778 4.358917839547654 188.5236610389161 C 4.358917839547654 189.07026456530446 3.8963635763755784 189.51403726925903 3.3266264358468924 189.51403726925906 C 2.756889295318146 189.51403726925906 2.2943350321460705 189.0702645653044 2.29433503214607 188.5236610389161 Z M 2.2943350321460705 191.5516516034762 C 2.29433503214607 191.00504807708785 2.7568892953181465 190.5612753731332 3.3266264358468924 190.56127537313324 C 3.896363576375579 190.56127537313324 4.3589178395476535 191.00504807708785 4.3589178395476535 191.5516516034762 C 4.3589178395476535 192.0982551298645 3.896363576375579 192.54202783381913 3.3266264358468924 192.54202783381913 C 2.7568892953181465 192.5420278338191 2.2943350321460705 192.09825512986447 2.2943350321460705 191.5516516034762 Z M 9.5 3.493240521390132 L 8.02180989071142 4.279517061101267 M 8.02180989071142 4.279517061101267 L 8.023055439868665 4.439483109994737 M 8.023055439868665 4.439483109994737 L 8.088124999999968 12.796375631652523 M 8.088124999999968 12.796375631652523 L 9.5 11.934635084661178 M 9.5 11.934635084661178 L 9.5 3.493240521390132 M 2.821940109288506 1.2862765397111575 L 8.02180989071142 4.279517061101267 M 2.821940109288506 1.2862765397111575 L 4.411691614773749 0.5000000000000109 M 4.411691614773749 0.5000000000000109 L 9.5 3.493240521390132 M 0.7343749999999737 1.5012037237415075 L 2.821940109288506 1.2862765397111575 M 0.7343749999999737 1.5012037237415075 L 6.854687229564419 5.0189886170684845 M 6.854687229564419 5.0189886170684845 L 8.023055439868665 4.439483109994737 M 6.854687229564419 5.0189886170684845 L 6.854687229564419 13.99871018123888 M 6.854687229564419 13.99871018123888 L 9.5 11.934635084661178 M 6.854687229564419 13.99871018123888 L 4.311917854650922 12.530984638564727 M 4.311917854650922 12.530984638564727 L 0.5 10.330687097999494 M 0.5 10.330687097999494 L 0.7343749999999737 1.5012037237415075 M 4.311917854650922 12.530984638564727 L 4.311917854650922 169.87802450476568 M 4.311917854650922 169.87802450476568 L 4.311917854650922 171.1649874595793 M 8.088124999999968 171.64271097445234 L 4.311917854650922 169.87802450476568 M 4.311917854650922 169.87802450476568 L 3.818019445355754 169.64721729352559 M 3.818019445355754 169.64721729352559 L 1.4232305546442396 171.19482169502018 M 5.627020999999965 173.16048114050602 L 8.088124999999968 171.64271097445234 M 5.627020999999965 173.16048114050602 L 1.4232305546442396 171.19482169502018 M 5.675730554644208 196.5 L 8.088124999999968 194.98222983394635 M 8.088124999999968 194.98222983394635 L 8.088124999999968 171.64271097445234 M 1.4232305546442396 171.19482169502018 L 1.339976469999096 194.21927303225968 M 1.339976469999096 194.21927303225968 L 5.675730554644208 196.5 M 5.627020999999965 173.16048114050602 L 5.675730554644208 196.5" style="fill:none;stroke:#000000;stroke-width:1;stroke-linecap:round;stroke-linejoin:round;stroke-miterlimit:3;"/></svg>
