<?xml version="1.0" standalone="no"?><!-- Generator: Gravit.io --><svg xmlns="http://www.w3.org/2000/svg" xmlns:xlink="http://www.w3.org/1999/xlink" style="isolation:isolate" width="328.74830576528547" height="83.69153001175084"><path d="M 262.99999999999994 16.135860931755445 L 326.219869663127 0.5 L 328.24830576528547 2.399018826492238 L 4.673047820904628 83.19153001175081 L 0.5 80.37659639314435 L 262.99999999999994 16.135860931755445 Z" style="stroke:none;fill:#F79A6F;stroke-miterlimit:10;"/><path d="M 7.645553498748086 78.48108317043156 L 12.798786126434436 81.18140380424373" style="fill:none;stroke:#000000;stroke-width:1;stroke-linecap:round;stroke-miterlimit:1;"/><path d="M 12.798786126434436 81.18140380424373 L 12.798786126434436 79.94950385172453" style="fill:none;stroke:#000000;stroke-width:1;stroke-linecap:round;stroke-miterlimit:1;"/><path d="M 12.798786126434436 79.94950385172453 L 7.645553498748086 77.26086827462703" style="fill:none;stroke:#000000;stroke-width:1;stroke-linecap:round;stroke-miterlimit:1;"/><path d="M 7.645553498748086 77.26086827462703 L 7.645553498748086 78.48108317043156" style="fill:none;stroke:#000000;stroke-width:1;stroke-linecap:round;stroke-miterlimit:1;"/><path d="M 7.645553498748086 77.26086827462703 L 9.500000000000007 76.89172975697699" style="fill:none;stroke:#000000;stroke-width:1;stroke-linecap:round;stroke-miterlimit:1;"/><path d="M 9.500000000000007 76.89172975697699 L 11.878320377855385 78.25401616051843" style="fill:none;stroke:#000000;stroke-width:1;stroke-linecap:round;stroke-miterlimit:1;"/><path d="M 11.878320377855385 78.25401616051843 L 13.492369043807788 79.17853271125492" style="fill:none;stroke:#000000;stroke-width:1;stroke-linecap:round;stroke-miterlimit:1;"/><path d="M 13.492369043807788 79.17853271125492 L 14.500000000000007 79.75569715225672" style="fill:none;stroke:#000000;stroke-width:1;stroke-linecap:round;stroke-miterlimit:1;"/><path d="M 14.500000000000007 79.75569715225672 L 12.798786126434436 79.94950385172453" style="fill:none;stroke:#000000;stroke-width:1;stroke-linecap:round;stroke-miterlimit:1;"/><path d="M 14.500000000000007 79.75569715225672 L 14.500000000000007 80.37659639314435" style="fill:none;stroke:#000000;stroke-width:1;stroke-linecap:round;stroke-miterlimit:1;"/><path d="M 14.500000000000007 80.37659639314435 L 14.500000000000007 80.99749563403202" style="fill:none;stroke:#000000;stroke-width:1;stroke-linecap:round;stroke-miterlimit:1;"/><path d="M 14.500000000000007 80.99749563403202 L 12.798786126434436 81.18140380424373" style="fill:none;stroke:#000000;stroke-width:1;stroke-linecap:round;stroke-miterlimit:1;"/><path d="M 51.5 66.75207876382095 L 53.79965568591952 68.09758369652701" style="fill:none;stroke:#000000;stroke-width:1;stroke-linecap:round;stroke-miterlimit:1;"/><path d="M 53.79965568591952 68.09758369652701 L 55.65900062773878 69.18546733325479" style="fill:none;stroke:#000000;stroke-width:1;stroke-linecap:round;stroke-miterlimit:1;"/><path d="M 55.65900062773878 69.18546733325479 L 57.35086539722457 70.17536004056439" style="fill:none;stroke:#000000;stroke-width:1;stroke-linecap:round;stroke-miterlimit:1;"/><path d="M 57.35086539722457 70.17536004056439 L 58.339234517177005 70.75364466568146" style="fill:none;stroke:#000000;stroke-width:1;stroke-linecap:round;stroke-miterlimit:1;"/><path d="M 58.339234517177005 70.75364466568146 L 58.339234517177005 69.20080933703406" style="fill:none;stroke:#000000;stroke-width:1;stroke-linecap:round;stroke-miterlimit:1;"/><path d="M 58.339234517177005 69.20080933703406 L 52.898928784476 66.13586093175545" style="fill:none;stroke:#000000;stroke-width:1;stroke-linecap:round;stroke-miterlimit:1;"/><path d="M 52.898928784476 66.13586093175545 L 51.5 66.75207876382095" style="fill:none;stroke:#000000;stroke-width:1;stroke-linecap:round;stroke-miterlimit:1;"/><path d="M 58.339234517177005 70.75364466568146 L 59.82338808973526 70.06536217886597" style="fill:none;stroke:#000000;stroke-width:1;stroke-linecap:round;stroke-miterlimit:1;"/><path d="M 59.82338808973526 70.06536217886597 L 59.82338808973526 69.46707012586776" style="fill:none;stroke:#000000;stroke-width:1;stroke-linecap:round;stroke-miterlimit:1;"/><path d="M 59.82338808973526 69.46707012586776 L 59.82338808973526 68.86877807286956" style="fill:none;stroke:#000000;stroke-width:1;stroke-linecap:round;stroke-miterlimit:1;"/><path d="M 59.82338808973526 68.86877807286956 L 58.339234517177005 69.20080933703406" style="fill:none;stroke:#000000;stroke-width:1;stroke-linecap:round;stroke-miterlimit:1;"/><path d="M 59.82338808973526 68.86877807286956 L 58.7662787924877 68.3260800636732" style="fill:none;stroke:#000000;stroke-width:1;stroke-linecap:round;stroke-miterlimit:1;"/><path d="M 58.7662787924877 68.3260800636732 L 56.63313939624385 67.23097049771431" style="fill:none;stroke:#000000;stroke-width:1;stroke-linecap:round;stroke-miterlimit:1;"/><path d="M 56.63313939624385 67.23097049771431 L 54.5 66.13586093175545" style="fill:none;stroke:#000000;stroke-width:1;stroke-linecap:round;stroke-miterlimit:1;"/><path d="M 54.5 66.13586093175545 L 52.898928784476 66.13586093175545" style="fill:none;stroke:#000000;stroke-width:1;stroke-linecap:round;stroke-miterlimit:1;"/><path d="M 103.39361168535358 53.76679440141427 L 105.26156912532883 54.895806128007195" style="fill:none;stroke:#000000;stroke-width:1;stroke-linecap:round;stroke-miterlimit:1;"/><path d="M 105.26156912532883 54.895806128007195 L 107.12952656530408 56.024817854600116" style="fill:none;stroke:#000000;stroke-width:1;stroke-linecap:round;stroke-miterlimit:1;"/><path d="M 107.12952656530408 56.024817854600116 L 108.74492530049493 57.001180632532595" style="fill:none;stroke:#000000;stroke-width:1;stroke-linecap:round;stroke-miterlimit:1;"/><path d="M 108.74492530049493 57.001180632532595 L 110.62226143173498 58.13586093175542" style="fill:none;stroke:#000000;stroke-width:1;stroke-linecap:round;stroke-miterlimit:1;"/><path d="M 110.62226143173498 58.13586093175542 L 112.51810385204664 57.135860931755445" style="fill:none;stroke:#000000;stroke-width:1;stroke-linecap:round;stroke-miterlimit:1;"/><path d="M 112.51810385204664 57.135860931755445 L 112.51810385204664 56.135860931755445" style="fill:none;stroke:#000000;stroke-width:1;stroke-linecap:round;stroke-miterlimit:1;"/><path d="M 112.51810385204664 56.135860931755445 L 110.62226143173498 57.135860931755445" style="fill:none;stroke:#000000;stroke-width:1;stroke-linecap:round;stroke-miterlimit:1;"/><path d="M 110.62226143173498 57.135860931755445 L 110.62226143173498 58.13586093175542" style="fill:none;stroke:#000000;stroke-width:1;stroke-linecap:round;stroke-miterlimit:1;"/><path d="M 110.62226143173498 57.135860931755445 L 104.5 53.34146741190963" style="fill:none;stroke:#000000;stroke-width:1;stroke-linecap:round;stroke-miterlimit:1;"/><path d="M 104.5 53.34146741190963 L 103.39361168535358 53.76679440141427" style="fill:none;stroke:#000000;stroke-width:1;stroke-linecap:round;stroke-miterlimit:1;"/><path d="M 112.51810385204664 56.135860931755445 L 110.94990081795507 55.13748776538179" style="fill:none;stroke:#000000;stroke-width:1;stroke-linecap:round;stroke-miterlimit:1;"/><path d="M 110.94990081795507 55.13748776538179 L 109.22495040897753 54.0393237112317" style="fill:none;stroke:#000000;stroke-width:1;stroke-linecap:round;stroke-miterlimit:1;"/><path d="M 109.22495040897753 54.0393237112317 L 107.5 52.94115965708161" style="fill:none;stroke:#000000;stroke-width:1;stroke-linecap:round;stroke-miterlimit:1;"/><path d="M 107.5 52.94115965708161 L 104.5 53.34146741190963" style="fill:none;stroke:#000000;stroke-width:1;stroke-linecap:round;stroke-miterlimit:1;"/><path d="M 154.34878324967957 41.135860931755445 Q 154.34994481083388 41.3078677102248 155.9211329472107 42.58315625663121" style="fill:none;stroke:#000000;stroke-width:1;stroke-linecap:round;stroke-miterlimit:1;"/><path d="M 155.9211329472107 42.58315625663121 Q 156.51345376168604 43.06392614854269 157.32890798984076 43.70149531443789" style="fill:none;stroke:#000000;stroke-width:1;stroke-linecap:round;stroke-miterlimit:1;"/><path d="M 157.32890798984076 43.70149531443789 Q 158.08559498617768 44.293116867728486 159.0344132170225 45.019751987941504" style="fill:none;stroke:#000000;stroke-width:1;stroke-linecap:round;stroke-miterlimit:1;"/><path d="M 159.0344132170225 45.019751987941504 Q 159.71742606015619 45.54282490459025 160.49999999999997 46.13586093175542" style="fill:none;stroke:#000000;stroke-width:1;stroke-linecap:round;stroke-miterlimit:1;"/><path d="M 160.49999999999997 46.13586093175542 L 162.49999999999997 46.13586093175542" style="fill:none;stroke:#000000;stroke-width:1;stroke-linecap:round;stroke-miterlimit:1;"/><path d="M 162.49999999999997 46.13586093175542 L 162.49999999999997 44.135860931755445" style="fill:none;stroke:#000000;stroke-width:1;stroke-linecap:round;stroke-miterlimit:1;"/><path d="M 162.49999999999997 44.135860931755445 L 160.49999999999997 44.135860931755445" style="fill:none;stroke:#000000;stroke-width:1;stroke-linecap:round;stroke-miterlimit:1;"/><path d="M 160.49999999999997 44.135860931755445 L 160.49999999999997 46.13586093175542" style="fill:none;stroke:#000000;stroke-width:1;stroke-linecap:round;stroke-miterlimit:1;"/><path d="M 160.49999999999997 46.13586093175542 L 160.49999999999997 44.135860931755445" style="fill:none;stroke:#000000;stroke-width:1;stroke-linecap:round;stroke-miterlimit:1;"/><path d="M 160.49999999999997 44.135860931755445 L 156.5 41.135860931755445" style="fill:none;stroke:#000000;stroke-width:1;stroke-linecap:round;stroke-miterlimit:1;"/><path d="M 156.5 41.135860931755445 L 154.34878324967957 41.135860931755445" style="fill:none;stroke:#000000;stroke-width:1;stroke-linecap:round;stroke-miterlimit:1;"/><path d="M 162.49999999999997 44.135860931755445 L 161.18562800650417 43.0843633369588" style="fill:none;stroke:#000000;stroke-width:1;stroke-linecap:round;stroke-miterlimit:1;"/><path d="M 161.18562800650417 43.0843633369588 L 159.62743489125103 41.83780884475627" style="fill:none;stroke:#000000;stroke-width:1;stroke-linecap:round;stroke-miterlimit:1;"/><path d="M 159.62743489125103 41.83780884475627 L 157.49999999999997 40.135860931755445" style="fill:none;stroke:#000000;stroke-width:1;stroke-linecap:round;stroke-miterlimit:1;"/><path d="M 157.49999999999997 40.135860931755445 L 154.34878324967957 41.135860931755445" style="fill:none;stroke:#000000;stroke-width:1;stroke-linecap:round;stroke-miterlimit:1;"/><path d="M 199.08720572840022 30.135860931755445 L 201.09907850169952 31.435392764878088" style="fill:none;stroke:#000000;stroke-width:1;stroke-linecap:round;stroke-miterlimit:1;"/><path d="M 201.09907850169952 31.435392764878088 L 204.44777940197648 33.59842388556859" style="fill:none;stroke:#000000;stroke-width:1;stroke-linecap:round;stroke-miterlimit:1;"/><path d="M 204.44777940197648 33.59842388556859 L 205.27981362616904 34.135860931755445" style="fill:none;stroke:#000000;stroke-width:1;stroke-linecap:round;stroke-miterlimit:1;"/><path d="M 205.27981362616904 34.135860931755445 L 207.0015906313538 33.135860931755445" style="fill:none;stroke:#000000;stroke-width:1;stroke-linecap:round;stroke-miterlimit:1;"/><path d="M 207.0015906313538 33.135860931755445 L 206.99158107291825 32.7650377814947" style="fill:none;stroke:#000000;stroke-width:1;stroke-linecap:round;stroke-miterlimit:1;"/><path d="M 206.99158107291825 32.7650377814947 L 206.95865493606973 31.54522635117864" style="fill:none;stroke:#000000;stroke-width:1;stroke-linecap:round;stroke-miterlimit:1;"/><path d="M 206.95865493606973 31.54522635117864 L 206.94760501352764 31.135860931755445" style="fill:none;stroke:#000000;stroke-width:1;stroke-linecap:round;stroke-miterlimit:1;"/><path d="M 206.94760501352764 31.135860931755445 L 205.2798136261691 32.135860931755445" style="fill:none;stroke:#000000;stroke-width:1;stroke-linecap:round;stroke-miterlimit:1;"/><path d="M 205.2798136261691 32.135860931755445 L 205.27981362616904 34.135860931755445" style="fill:none;stroke:#000000;stroke-width:1;stroke-linecap:round;stroke-miterlimit:1;"/><path d="M 206.94760501352764 31.135860931755445 L 205.77908954922668 30.45799008534702" style="fill:none;stroke:#000000;stroke-width:1;stroke-linecap:round;stroke-miterlimit:1;"/><path d="M 205.77908954922668 30.45799008534702 L 203.5 29.135860931755445" style="fill:none;stroke:#000000;stroke-width:1;stroke-linecap:round;stroke-miterlimit:1;"/><path d="M 203.5 29.135860931755445 L 201.06027615491735 29.688735979836522" style="fill:none;stroke:#000000;stroke-width:1;stroke-linecap:round;stroke-miterlimit:1;"/><path d="M 201.06027615491735 29.688735979836522 L 199.08720572840022 30.135860931755445" style="fill:none;stroke:#000000;stroke-width:1;stroke-linecap:round;stroke-miterlimit:1;"/><path d="M 205.2798136261691 32.135860931755445 L 201.06027615491735 29.688735979836522" style="fill:none;stroke:#000000;stroke-width:1;stroke-linecap:round;stroke-miterlimit:1;"/><path d="M 237.5 21.135860931755445 L 238.79736667892757 22.21699983086178" style="fill:none;stroke:#000000;stroke-width:1;stroke-linecap:round;stroke-miterlimit:1;"/><path d="M 238.79736667892757 22.21699983086178 L 240.0947333578552 23.298138729968116" style="fill:none;stroke:#000000;stroke-width:1;stroke-linecap:round;stroke-miterlimit:1;"/><path d="M 240.0947333578552 23.298138729968116 L 241.35769794681534 24.350609220768234" style="fill:none;stroke:#000000;stroke-width:1;stroke-linecap:round;stroke-miterlimit:1;"/><path d="M 241.35769794681534 24.350609220768234 L 243.5 26.135860931755445" style="fill:none;stroke:#000000;stroke-width:1;stroke-linecap:round;stroke-miterlimit:1;"/><path d="M 243.5 26.135860931755445 L 245.5 25.135860931755445" style="fill:none;stroke:#000000;stroke-width:1;stroke-linecap:round;stroke-miterlimit:1;"/><path d="M 245.5 25.135860931755445 L 245.5 24.135860931755445" style="fill:none;stroke:#000000;stroke-width:1;stroke-linecap:round;stroke-miterlimit:1;"/><path d="M 245.5 24.135860931755445 L 243.5 25.135860931755445" style="fill:none;stroke:#000000;stroke-width:1;stroke-linecap:round;stroke-miterlimit:1;"/><path d="M 243.5 25.135860931755445 L 243.5 26.135860931755445" style="fill:none;stroke:#000000;stroke-width:1;stroke-linecap:round;stroke-miterlimit:1;"/><path d="M 243.5 25.135860931755445 L 238.5 21.135860931755445" style="fill:none;stroke:#000000;stroke-width:1;stroke-linecap:round;stroke-miterlimit:1;"/><path d="M 238.5 21.135860931755445 L 237.5 21.135860931755445" style="fill:none;stroke:#000000;stroke-width:1;stroke-linecap:round;stroke-miterlimit:1;"/><path d="M 245.5 24.135860931755445 L 244.8204657924183 23.579175668134283" style="fill:none;stroke:#000000;stroke-width:1;stroke-linecap:round;stroke-miterlimit:1;"/><path d="M 244.8204657924183 23.579175668134283 L 243.4697931692886 22.472683107666" style="fill:none;stroke:#000000;stroke-width:1;stroke-linecap:round;stroke-miterlimit:1;"/><path d="M 243.4697931692886 22.472683107666 L 242.3378629830595 21.545387841156582" style="fill:none;stroke:#000000;stroke-width:1;stroke-linecap:round;stroke-miterlimit:1;"/><path d="M 242.3378629830595 21.545387841156582 L 240.6172825868506 20.135860931755445" style="fill:none;stroke:#000000;stroke-width:1;stroke-linecap:round;stroke-miterlimit:1;"/><path d="M 240.6172825868506 20.135860931755445 L 237.5 21.135860931755445" style="fill:none;stroke:#000000;stroke-width:1;stroke-linecap:round;stroke-miterlimit:1;"/><path d="M 271.5 13.135860931755445 L 272.7117476171216 14.105259025452739" style="fill:none;stroke:#000000;stroke-width:1;stroke-linecap:round;stroke-miterlimit:1;"/><path d="M 272.7117476171216 14.105259025452739 L 273.9234952342432 15.074657119150018" style="fill:none;stroke:#000000;stroke-width:1;stroke-linecap:round;stroke-miterlimit:1;"/><path d="M 273.9234952342432 15.074657119150018 L 275.0297972326577 15.959698717881594" style="fill:none;stroke:#000000;stroke-width:1;stroke-linecap:round;stroke-miterlimit:1;"/><path d="M 275.0297972326577 15.959698717881594 L 276.5 17.135860931755445" style="fill:none;stroke:#000000;stroke-width:1;stroke-linecap:round;stroke-miterlimit:1;"/><path d="M 276.5 17.135860931755445 L 278.5 16.135860931755445" style="fill:none;stroke:#000000;stroke-width:1;stroke-linecap:round;stroke-miterlimit:1;"/><path d="M 278.5 16.135860931755445 L 278.5 15.135860931755445" style="fill:none;stroke:#000000;stroke-width:1;stroke-linecap:round;stroke-miterlimit:1;"/><path d="M 278.5 15.135860931755445 L 276.5 16.135860931755445" style="fill:none;stroke:#000000;stroke-width:1;stroke-linecap:round;stroke-miterlimit:1;"/><path d="M 276.5 16.135860931755445 L 276.5 17.135860931755445" style="fill:none;stroke:#000000;stroke-width:1;stroke-linecap:round;stroke-miterlimit:1;"/><path d="M 278.5 15.135860931755445 L 278.2390728228537 14.940165548895735" style="fill:none;stroke:#000000;stroke-width:1;stroke-linecap:round;stroke-miterlimit:1;"/><path d="M 278.2390728228537 14.940165548895735 L 277.467447889936 14.361446849207482" style="fill:none;stroke:#000000;stroke-width:1;stroke-linecap:round;stroke-miterlimit:1;"/><path d="M 277.467447889936 14.361446849207482 L 276.21823343664437 13.42453600923875" style="fill:none;stroke:#000000;stroke-width:1;stroke-linecap:round;stroke-miterlimit:1;"/><path d="M 276.21823343664437 13.42453600923875 L 274.5 12.135860931755445" style="fill:none;stroke:#000000;stroke-width:1;stroke-linecap:round;stroke-miterlimit:1;"/><path d="M 274.5 12.135860931755445 L 272.2018163842714 12.901922136998309" style="fill:none;stroke:#000000;stroke-width:1;stroke-linecap:round;stroke-miterlimit:1;"/><path d="M 272.2018163842714 12.901922136998309 L 271.5 13.135860931755445" style="fill:none;stroke:#000000;stroke-width:1;stroke-linecap:round;stroke-miterlimit:1;"/><path d="M 276.5 16.135860931755445 L 272.2018163842714 12.901922136998309" style="fill:none;stroke:#000000;stroke-width:1;stroke-linecap:round;stroke-miterlimit:1;"/><path d="M 304.5 5.135860931755445 L 305.2344140326132 5.870274964368633" style="fill:none;stroke:#000000;stroke-width:1;stroke-linecap:round;stroke-miterlimit:1;"/><path d="M 305.2344140326132 5.870274964368633 L 306.7228062279197 7.358667159675136" style="fill:none;stroke:#000000;stroke-width:1;stroke-linecap:round;stroke-miterlimit:1;"/><path d="M 306.7228062279197 7.358667159675136 L 308.5 9.135860931755431" style="fill:none;stroke:#000000;stroke-width:1;stroke-linecap:round;stroke-miterlimit:1;"/><path d="M 308.5 9.135860931755431 L 310.2678691772235 8.135860931755431" style="fill:none;stroke:#000000;stroke-width:1;stroke-linecap:round;stroke-miterlimit:1;"/><path d="M 310.2678691772235 8.135860931755431 L 310.2678691772235 7.135860931755445" style="fill:none;stroke:#000000;stroke-width:1;stroke-linecap:round;stroke-miterlimit:1;"/><path d="M 310.2678691772235 7.135860931755445 L 308.5 8.135860931755431" style="fill:none;stroke:#000000;stroke-width:1;stroke-linecap:round;stroke-miterlimit:1;"/><path d="M 308.5 8.135860931755431 L 308.5 9.135860931755431" style="fill:none;stroke:#000000;stroke-width:1;stroke-linecap:round;stroke-miterlimit:1;"/><path d="M 310.2678691772235 7.135860931755445 L 309.8642525965755 6.6983945399520195" style="fill:none;stroke:#000000;stroke-width:1;stroke-linecap:round;stroke-miterlimit:1;"/><path d="M 309.8642525965755 6.6983945399520195 L 308.97362729827205 5.733075833093693" style="fill:none;stroke:#000000;stroke-width:1;stroke-linecap:round;stroke-miterlimit:1;"/><path d="M 308.97362729827205 5.733075833093693 L 308.236813649136 4.934468382424569" style="fill:none;stroke:#000000;stroke-width:1;stroke-linecap:round;stroke-miterlimit:1;"/><path d="M 308.236813649136 4.934468382424569 L 307.49999999999994 4.135860931755445" style="fill:none;stroke:#000000;stroke-width:1;stroke-linecap:round;stroke-miterlimit:1;"/><path d="M 307.49999999999994 4.135860931755445 L 305.3976673713909 4.836638474625133" style="fill:none;stroke:#000000;stroke-width:1;stroke-linecap:round;stroke-miterlimit:1;"/><path d="M 305.3976673713909 4.836638474625133 L 304.5 5.135860931755445" style="fill:none;stroke:#000000;stroke-width:1;stroke-linecap:round;stroke-miterlimit:1;"/><path d="M 308.5 8.135860931755431 L 305.3976673713909 4.836638474625133" style="fill:none;stroke:#000000;stroke-width:1;stroke-linecap:round;stroke-miterlimit:1;"/><path d="M 0.5 80.99749563403202 L 8.5 79.13586093175547" style="fill:none;stroke:#000000;stroke-width:1;stroke-linecap:round;stroke-miterlimit:1;"/><path d="M 2.5 82.33704613260863 L 10.5 80.19934496248277" style="fill:none;stroke:#000000;stroke-width:1;stroke-linecap:round;stroke-miterlimit:1;"/><path d="M 4.673047820904646 83.19153001175084 L 11.896331681476852 80.99749563403202" style="fill:none;stroke:#000000;stroke-width:1;stroke-linecap:round;stroke-miterlimit:1;"/><path d="M 14.500000000000007 80.37659639314435 L 57.35086539722457 70.17536004056439" style="fill:none;stroke:#000000;stroke-width:1;stroke-linecap:round;stroke-miterlimit:1;"/><path d="M 59.82338808973526 69.46707012586776 L 89.49999999999999 61.911415998824026" style="fill:none;stroke:#000000;stroke-width:1;stroke-linecap:round;stroke-miterlimit:1;"/><path d="M 89.49999999999999 61.911415998824026 L 108.74492530049493 57.001180632532595" style="fill:none;stroke:#000000;stroke-width:1;stroke-linecap:round;stroke-miterlimit:1;"/><path d="M 112.51810385204664 56.135860931755445 L 159.0344132170225 45.019751987941504" style="fill:none;stroke:#000000;stroke-width:1;stroke-linecap:round;stroke-miterlimit:1;"/><path d="M 162.49999999999997 44.135860931755445 L 204.44777940197648 33.59842388556859" style="fill:none;stroke:#000000;stroke-width:1;stroke-linecap:round;stroke-miterlimit:1;"/><path d="M 206.99158107291825 32.7650377814947 L 229.50000000000003 27.13586093175546" style="fill:none;stroke:#000000;stroke-width:1;stroke-linecap:round;stroke-miterlimit:1;"/><path d="M 229.50000000000003 27.13586093175546 L 241.35769794681534 24.350609220768234" style="fill:none;stroke:#000000;stroke-width:1;stroke-linecap:round;stroke-miterlimit:1;"/><path d="M 244.8204657924183 23.579175668134283 L 275.0297972326577 15.959698717881594" style="fill:none;stroke:#000000;stroke-width:1;stroke-linecap:round;stroke-miterlimit:1;"/><path d="M 278.2390728228537 14.940165548895735 L 300.5235902350065 9.135860931755445" style="fill:none;stroke:#000000;stroke-width:1;stroke-linecap:round;stroke-miterlimit:1;"/><path d="M 300.5235902350065 9.135860931755445 L 306.7228062279197 7.358667159675136" style="fill:none;stroke:#000000;stroke-width:1;stroke-linecap:round;stroke-miterlimit:1;"/><path d="M 306.7228062279197 7.358667159675136 L 307.4999999999999 7.135860931755431" style="fill:none;stroke:#000000;stroke-width:1;stroke-linecap:round;stroke-miterlimit:1;"/><path d="M 309.8642525965755 6.6983945399520195 L 328.24830576528547 2.3990188264922665" style="fill:none;stroke:#000000;stroke-width:1;stroke-linecap:round;stroke-miterlimit:1;"/><path d="M 13.492369043807788 79.17853271125492 L 55.65900062773878 69.18546733325479" style="fill:none;stroke:#000000;stroke-width:1;stroke-linecap:round;stroke-miterlimit:1;"/><path d="M 58.7662787924877 68.3260800636732 L 107.12952656530408 56.024817854600116" style="fill:none;stroke:#000000;stroke-width:1;stroke-linecap:round;stroke-miterlimit:1;"/><path d="M 110.94990081795507 55.13748776538179 L 157.32890798984076 43.70149531443789" style="fill:none;stroke:#000000;stroke-width:1;stroke-linecap:round;stroke-miterlimit:1;"/><path d="M 161.18562800650417 43.0843633369588 L 202.37855311667508 32.76503778149467" style="fill:none;stroke:#000000;stroke-width:1;stroke-linecap:round;stroke-miterlimit:1;"/><path d="M 206.95865493606973 31.54522635117864 L 240.0947333578552 23.298138729968116" style="fill:none;stroke:#000000;stroke-width:1;stroke-linecap:round;stroke-miterlimit:1;"/><path d="M 243.4697931692886 22.472683107666 L 273.9234952342432 15.074657119150018" style="fill:none;stroke:#000000;stroke-width:1;stroke-linecap:round;stroke-miterlimit:1;"/><path d="M 277.467447889936 14.361446849207482 L 305.5 6.698394539952005" style="fill:none;stroke:#000000;stroke-width:1;stroke-linecap:round;stroke-miterlimit:1;"/><path d="M 308.97362729827205 5.733075833093693 L 327.4591697159958 1.3055450343646413" style="fill:none;stroke:#000000;stroke-width:1;stroke-linecap:round;stroke-miterlimit:1;"/><path d="M 11.878320377855385 78.25401616051843 L 53.79965568591952 68.09758369652701" style="fill:none;stroke:#000000;stroke-width:1;stroke-linecap:round;stroke-miterlimit:1;"/><path d="M 56.63313939624385 67.23097049771431 L 105.26156912532883 54.895806128007195" style="fill:none;stroke:#000000;stroke-width:1;stroke-linecap:round;stroke-miterlimit:1;"/><path d="M 109.22495040897753 54.0393237112317 L 155.9211329472107 42.58315625663121" style="fill:none;stroke:#000000;stroke-width:1;stroke-linecap:round;stroke-miterlimit:1;"/><path d="M 159.62743489125103 41.83780884475627 L 201.09907850169952 31.435392764878088" style="fill:none;stroke:#000000;stroke-width:1;stroke-linecap:round;stroke-miterlimit:1;"/><path d="M 205.77908954922668 30.45799008534702 L 238.79736667892757 22.21699983086178" style="fill:none;stroke:#000000;stroke-width:1;stroke-linecap:round;stroke-miterlimit:1;"/><path d="M 242.3378629830595 21.545387841156582 L 272.7117476171216 14.105259025452739" style="fill:none;stroke:#000000;stroke-width:1;stroke-linecap:round;stroke-miterlimit:1;"/><path d="M 276.21823343664437 13.42453600923875 L 305.2344140326132 5.870274964368633" style="fill:none;stroke:#000000;stroke-width:1;stroke-linecap:round;stroke-miterlimit:1;"/><path d="M 308.236813649136 4.934468382424569 L 326.21986966312704 0.5" style="fill:none;stroke:#000000;stroke-width:1;stroke-linecap:round;stroke-miterlimit:1;"/><path d="M 7.697085825024949 78.50808637676968 L 7.645553498748086 78.48108317043156 L 7.645553498748086 78.46888102147352" style="fill:none;stroke:#000000;stroke-width:1;stroke-miterlimit:1;"/><path d="M 12.747253800157573 81.1544005979056 L 12.798786126434436 81.18140380424373 L 12.815798265170091 81.17956472254161" style="fill:none;stroke:#000000;stroke-width:1;stroke-miterlimit:1;"/><path d="M 7.664097963760604 77.25717688945053 L 7.645553498748086 77.26086827462703 L 7.645553498748086 77.27307042358507" style="fill:none;stroke:#000000;stroke-width:1;stroke-miterlimit:1;"/><path d="M 9.52378320377856 76.90535262101241 L 9.500000000000007 76.89172975697699 L 9.48145553498749 76.89542114215348" style="fill:none;stroke:#000000;stroke-width:1;stroke-miterlimit:1;"/><path d="M 14.500000000000007 79.7619061446656 L 14.500000000000007 79.75569715225672 L 14.489923690438086 79.74992550784671" style="fill:none;stroke:#000000;stroke-width:1;stroke-miterlimit:1;"/><path d="M 14.482987861264352 80.99933471573414 L 14.500000000000007 80.99749563403202 L 14.500000000000007 80.99128664162313" style="fill:none;stroke:#000000;stroke-width:1;stroke-miterlimit:1;"/><path d="M 51.5229965568592 66.76553381314801 L 51.5 66.75207876382095 L 51.513989287844765 66.74591658550028" style="fill:none;stroke:#000000;stroke-width:1;stroke-miterlimit:1;"/><path d="M 58.329350825977485 70.74786181943028 L 58.339234517177005 70.75364466568146 L 58.354076052902585 70.74676184081332" style="fill:none;stroke:#000000;stroke-width:1;stroke-miterlimit:1;"/><path d="M 52.914939496631234 66.13586093175545 L 52.898928784476 66.13586093175545 L 52.88493949663123 66.14202311007611" style="fill:none;stroke:#000000;stroke-width:1;stroke-miterlimit:1;"/><path d="M 59.80854655400968 70.07224500373411 L 59.82338808973526 70.06536217886597 L 59.82338808973526 70.05937925833598" style="fill:none;stroke:#000000;stroke-width:1;stroke-miterlimit:1;"/><path d="M 59.82338808973526 68.87476099339955 L 59.82338808973526 68.86877807286956 L 59.81281699676279 68.8633510927776" style="fill:none;stroke:#000000;stroke-width:1;stroke-miterlimit:1;"/><path d="M 54.52133139396244 66.14681202741502 L 54.5 66.13586093175545 L 54.483989287844764 66.13586093175545" style="fill:none;stroke:#000000;stroke-width:1;stroke-miterlimit:1;"/><path d="M 103.41229125975333 53.7780845186802 L 103.39361168535358 53.76679440141427 L 103.40467556850004 53.762541131519214" style="fill:none;stroke:#000000;stroke-width:1;stroke-miterlimit:1;"/><path d="M 110.60348807042257 58.124514128763195 L 110.62226143173498 58.13586093175542 L 110.64121985593809 58.125860931755426" style="fill:none;stroke:#000000;stroke-width:1;stroke-miterlimit:1;"/><path d="M 112.49914542784353 57.145860931755436 L 112.51810385204664 57.135860931755445 L 112.51810385204664 57.125860931755454" style="fill:none;stroke:#000000;stroke-width:1;stroke-miterlimit:1;"/><path d="M 104.53 53.33746433436136 L 104.5 53.34146741190963 L 104.48893611685354 53.34572068180469" style="fill:none;stroke:#000000;stroke-width:1;stroke-miterlimit:1;"/><path d="M 107.51724950408978 52.952141297623115 L 107.5 52.94115965708161 L 107.47 52.94516273462989" style="fill:none;stroke:#000000;stroke-width:1;stroke-miterlimit:1;"/><path d="M 154.38029541718277 41.125860931755454 L 154.34878324967957 41.135860931755445 Q 154.34879486529113 41.13758099954015 154.3489634835602 41.13941139550164" style="fill:none;stroke:#000000;stroke-width:1;stroke-miterlimit:1;"/><path d="M 160.49999999999997 46.13586093175542 Q 160.49217426060153 46.129930571483754 160.49999999999997 46.13586093175542 L 160.51999999999998 46.13586093175542" style="fill:none;stroke:#000000;stroke-width:1;stroke-miterlimit:1;"/><path d="M 162.47999999999996 46.13586093175542 L 162.49999999999997 46.13586093175542 L 162.49999999999997 46.11586093175541" style="fill:none;stroke:#000000;stroke-width:1;stroke-miterlimit:1;"/><path d="M 156.54 41.16586093175545 L 156.5 41.135860931755445 L 156.4784878324968 41.135860931755445" style="fill:none;stroke:#000000;stroke-width:1;stroke-miterlimit:1;"/><path d="M 157.52127434891247 40.152880410885444 L 157.49999999999997 40.135860931755445 L 157.46848783249678 40.145860931755436" style="fill:none;stroke:#000000;stroke-width:1;stroke-miterlimit:1;"/><path d="M 199.10732445613323 30.148856250086666 L 199.08720572840022 30.135860931755445 L 199.10693643266538 30.13138968223626" style="fill:none;stroke:#000000;stroke-width:1;stroke-miterlimit:1;"/><path d="M 205.27149328392713 34.130486561293566 L 205.27981362616904 34.135860931755445 L 205.2970313962209 34.125860931755454" style="fill:none;stroke:#000000;stroke-width:1;stroke-miterlimit:1;"/><path d="M 206.98437286130195 33.145860931755436 L 207.0015906313538 33.135860931755445 L 207.00149053576945 33.13215270025283" style="fill:none;stroke:#000000;stroke-width:1;stroke-miterlimit:1;"/><path d="M 206.94771551275306 31.13995458594968 L 206.94760501352764 31.135860931755445 L 206.93591985888463 31.129082223291363" style="fill:none;stroke:#000000;stroke-width:1;stroke-miterlimit:1;"/><path d="M 203.52279089549228 29.14908222329136 L 203.5 29.135860931755445 L 203.47560276154917 29.14138968223625" style="fill:none;stroke:#000000;stroke-width:1;stroke-miterlimit:1;"/><path d="M 201.08467339336818 29.683207229355716 L 201.06027615491735 29.688735979836522 L 201.0405454506522 29.693207229355707" style="fill:none;stroke:#000000;stroke-width:1;stroke-miterlimit:1;"/><path d="M 243.47857697946813 26.118008414645573 L 243.5 26.135860931755445 L 243.51999999999998 26.12586093175544" style="fill:none;stroke:#000000;stroke-width:1;stroke-miterlimit:1;"/><path d="M 237.5311728258685 21.12586093175544 L 237.5 21.135860931755445 L 237.51297366678926 21.146672320746504" style="fill:none;stroke:#000000;stroke-width:1;stroke-miterlimit:1;"/><path d="M 245.48000000000002 25.14586093175545 L 245.5 25.135860931755445 L 245.5 25.12586093175544" style="fill:none;stroke:#000000;stroke-width:1;stroke-miterlimit:1;"/><path d="M 245.5 24.14586093175545 L 245.5 24.135860931755445 L 245.4932046579242 24.13029407911924" style="fill:none;stroke:#000000;stroke-width:1;stroke-miterlimit:1;"/><path d="M 238.55 21.17586093175545 L 238.5 21.135860931755445 L 238.49 21.135860931755445" style="fill:none;stroke:#000000;stroke-width:1;stroke-miterlimit:1;"/><path d="M 240.6344883908127 20.14995620084946 L 240.6172825868506 20.135860931755445 L 240.58610976098208 20.14586093175545" style="fill:none;stroke:#000000;stroke-width:1;stroke-miterlimit:1;"/><path d="M 271.5121174761712 13.145554912692418 L 271.5 13.135860931755445 L 271.5070181638427 13.133521543807873" style="fill:none;stroke:#000000;stroke-width:1;stroke-miterlimit:1;"/><path d="M 276.4852979723266 17.12409930961671 L 276.5 17.135860931755445 L 276.52 17.12586093175544" style="fill:none;stroke:#000000;stroke-width:1;stroke-miterlimit:1;"/><path d="M 278.48 16.14586093175545 L 278.5 16.135860931755445 L 278.5 16.12586093175544" style="fill:none;stroke:#000000;stroke-width:1;stroke-miterlimit:1;"/><path d="M 278.5 15.14586093175545 L 278.5 15.135860931755445 L 278.49739072822854 15.133903977926849" style="fill:none;stroke:#000000;stroke-width:1;stroke-miterlimit:1;"/><path d="M 274.51718233436645 12.148747682530285 L 274.5 12.135860931755445 L 274.47701816384273 12.143521543807879" style="fill:none;stroke:#000000;stroke-width:1;stroke-miterlimit:1;"/><path d="M 304.50734414032615 5.143205072081571 L 304.5 5.135860931755445 L 304.5089766737139 5.132868707184144" style="fill:none;stroke:#000000;stroke-width:1;stroke-miterlimit:1;"/><path d="M 308.4822280622792 9.118088994034622 L 308.5 9.135860931755431 L 308.51767869177223 9.125860931755426" style="fill:none;stroke:#000000;stroke-width:1;stroke-miterlimit:1;"/><path d="M 310.25019048545124 8.145860931755436 L 310.2678691772235 8.135860931755431 L 310.2678691772235 8.125860931755426" style="fill:none;stroke:#000000;stroke-width:1;stroke-miterlimit:1;"/><path d="M 310.2678691772235 7.1458609317554505 L 310.2678691772235 7.135860931755445 L 310.263833011417 7.131486267837417" style="fill:none;stroke:#000000;stroke-width:1;stroke-miterlimit:1;"/><path d="M 307.5073681364913 4.143847006262135 L 307.49999999999994 4.135860931755445 L 307.4789766737139 4.142868707184135" style="fill:none;stroke:#000000;stroke-width:1;stroke-miterlimit:1;"/><path d="M 89.20323388089734 61.986972540094456 L 89.49999999999999 61.911415998824026 L 89.69244925300494 61.86231364516112" style="fill:none;stroke:#000000;stroke-width:1;stroke-miterlimit:1;"/><path d="M 159.04808342999485 45.030220442585545 Q 159.04124334545384 45.024982717108 159.0344132170225 45.019751987941504 Q 159.02492503471404 45.01248563673937 159.0344132170225 45.019751987941504" style="fill:none;stroke:#000000;stroke-width:1;stroke-miterlimit:1;"/><path d="M 206.99125181154977 32.75283966719154 L 206.99158107291825 32.7650377814947 L 206.9916811685026 32.76874601299731" style="fill:none;stroke:#000000;stroke-width:1;stroke-miterlimit:1;"/><path d="M 229.27491581072923 27.192152700252848 L 229.50000000000003 27.13586093175546 L 229.61857697946817 27.10800841464558" style="fill:none;stroke:#000000;stroke-width:1;stroke-miterlimit:1;"/><path d="M 244.806959066187 23.568110742529598 L 244.8204657924183 23.579175668134283 L 244.8272611344941 23.58474252077049" style="fill:none;stroke:#000000;stroke-width:1;stroke-miterlimit:1;"/><path d="M 275.0444992603311 15.971460340020329 L 275.0297972326577 15.959698717881594 L 275.01873421267356 15.950848301894283" style="fill:none;stroke:#000000;stroke-width:1;stroke-miterlimit:1;"/><path d="M 278.2313565735245 14.934378361898851 L 278.2390728228537 14.940165548895735 L 278.24168209462516 14.942122502724331" style="fill:none;stroke:#000000;stroke-width:1;stroke-miterlimit:1;"/><path d="M 300.300745060885 9.193903977926851 L 300.5235902350065 9.135860931755445 L 300.5855823949356 9.118088994034636" style="fill:none;stroke:#000000;stroke-width:1;stroke-miterlimit:1;"/><path d="M 309.8553463435925 6.68874135288344 L 309.8642525965755 6.6983945399520195 L 309.868288762382 6.702769203870048" style="fill:none;stroke:#000000;stroke-width:1;stroke-miterlimit:1;"/><path d="M 13.476228557148264 79.16928754574755 L 13.492369043807788 79.17853271125492 L 13.502445353369708 79.18430435566492" style="fill:none;stroke:#000000;stroke-width:1;stroke-miterlimit:1;"/><path d="M 55.67591927543363 69.19536626032789 L 55.65900062773878 69.18546733325479 L 55.64040717832059 69.17458849688751" style="fill:none;stroke:#000000;stroke-width:1;stroke-miterlimit:1;"/><path d="M 58.744947398525255 68.31512896801362 L 58.7662787924877 68.3260800636732 L 58.776849885460166 68.33150704376516" style="fill:none;stroke:#000000;stroke-width:1;stroke-miterlimit:1;"/><path d="M 107.14568055265599 56.03458148237945 L 107.12952656530408 56.024817854600116 L 107.11084699090432 56.013527737334186" style="fill:none;stroke:#000000;stroke-width:1;stroke-miterlimit:1;"/><path d="M 110.9326513138653 55.12650612484029 L 110.94990081795507 55.13748776538179 L 110.96558284829598 55.14747149704553" style="fill:none;stroke:#000000;stroke-width:1;stroke-miterlimit:1;"/><path d="M 157.34406094289093 43.71334124686038 Q 157.33647485980413 43.707411529970784 157.32890798984076 43.70149531443789 Q 157.3207534475592 43.69511962277895 157.32890798984076 43.70149531443789" style="fill:none;stroke:#000000;stroke-width:1;stroke-miterlimit:1;"/><path d="M 161.17004607535165 43.071897792036765 L 161.18562800650417 43.0843633369588 L 161.19877172643913 43.09487831290676" style="fill:none;stroke:#000000;stroke-width:1;stroke-miterlimit:1;"/><path d="M 206.9585444368443 31.541132696984405 L 206.95865493606973 31.54522635117864 L 206.9589841974382 31.5574244654818" style="fill:none;stroke:#000000;stroke-width:1;stroke-miterlimit:1;"/><path d="M 240.1073630037448 23.308663434876124 L 240.0947333578552 23.298138729968116 L 240.08175969106594 23.287327340977058" style="fill:none;stroke:#000000;stroke-width:1;stroke-miterlimit:1;"/><path d="M 243.45847386742633 22.4634101550009 L 243.4697931692886 22.472683107666 L 243.4832998955199 22.483748033270686" style="fill:none;stroke:#000000;stroke-width:1;stroke-miterlimit:1;"/><path d="M 277.4549557454031 14.3520777408078 L 277.467447889936 14.361446849207482 L 277.4751641392652 14.367234036204366" style="fill:none;stroke:#000000;stroke-width:1;stroke-miterlimit:1;"/><path d="M 308.96625916178067 5.7250897585870035 L 308.97362729827205 5.733075833093693 L 308.9825335512551 5.7427290201622725" style="fill:none;stroke:#000000;stroke-width:1;stroke-miterlimit:1;"/><path d="M 11.854537174076832 78.240393296483 L 11.878320377855385 78.25401616051843 L 11.894460864514908 78.2632613260258" style="fill:none;stroke:#000000;stroke-width:1;stroke-miterlimit:1;"/><path d="M 105.28024869972859 54.907096245273124 L 105.26156912532883 54.895806128007195 L 105.24288955092908 54.884516010741265" style="fill:none;stroke:#000000;stroke-width:1;stroke-miterlimit:1;"/><path d="M 276.2010511022779 13.41164925846391 L 276.21823343664437 13.42453600923875 L 276.2307255811773 13.433905117638432" style="fill:none;stroke:#000000;stroke-width:1;stroke-miterlimit:1;"/></svg>