<svg xmlns="http://www.w3.org/2000/svg" xmlns:xlink="http://www.w3.org/1999/xlink" style="isolation:isolate" width="339.5264237122146" height="101"><path d="M 326.79233821819594 0.5 L 339.0264237122145 2.711590019076681 L 21.024473109956034 81.95699602369433 L 13.499441496888018 80.18913316463525 L 9.043255116781511 79.14223704518847 L 1.0074852678667412 77.25438596491225 L 326.79233821819594 0.5 Z" style="stroke:none;fill:#B0B0B0;stroke-miterlimit:10;"/><path d="M 13.499441496888018 80.18913316463525 L 13.224417253504114 88.50000000000003 L 21.024473109956034 86.69778003742165 L 27.57103306543725 89.26114052378999 L 27.57103306543725 96.99122807017544 L 17.2967279153832 100.50000000000003 L 9.278977908591685 98.5 L 9.043255116781511 79.14223704518847 L 13.499441496888018 80.18913316463525 Z" style="stroke:none;fill:#B0B0B0;stroke-miterlimit:10;"/><path d="M 9.278977908591681 93.6423366079242 L 9.278977908591685 98.5 L 0.5 95.7274056636568 L 9.278977908591681 93.6423366079242 Z" style="stroke:none;fill:#B0B0B0;stroke-miterlimit:10;"/><path d="M 17.2967279153832 100.48020335457639 L 13.2244172535041 96.99122807017544 L 326.79233821819594 12.987277002374952 L 336.63565101950815 14.897683630074809 L 17.2967279153832 100.48020335457639 Z" style="stroke:none;fill:#B0B0B0;stroke-miterlimit:10;"/><path d="M 326.79233821819605 14.00655714085417 L 13.49944149688804 97.49999999999996 L 13.2244172535041 80.55068142895423 L 326.79233821819605 5.763157894736835 L 326.79233821819605 14.00655714085417 Z" style="stroke:none;fill:#B0B0B0;stroke-miterlimit:10;"/><path d="M 21.645553498748143 80.55068142895425 L 21.645553498748143 81.95699602369433" style="fill:none;stroke:#000000;stroke-width:1;stroke-linecap:round;stroke-miterlimit:1;"/><path d="M 21.645553498748143 81.95699602369433 L 13.2244172535041 80.5397985705003" style="fill:none;stroke:#000000;stroke-width:1;stroke-linecap:round;stroke-miterlimit:1;"/><path d="M 13.2244172535041 80.5397985705003 L 13.2244172535041 98.49999999999997" style="fill:none;stroke:#000000;stroke-width:1;stroke-linecap:round;stroke-miterlimit:1;"/><path d="M 13.2244172535041 98.49999999999997 L 17.3705791813154 99.62280701754383" style="fill:none;stroke:#000000;stroke-width:1;stroke-linecap:round;stroke-miterlimit:1;"/><path d="M 17.3705791813154 99.62280701754383 L 17.3705791813154 100.48020335457639" style="fill:none;stroke:#000000;stroke-width:1;stroke-linecap:round;stroke-miterlimit:1;"/><path d="M 17.3705791813154 100.48020335457639 L 17.3705791813154 100.49999999999994" style="fill:none;stroke:#000000;stroke-width:1;stroke-linecap:round;stroke-miterlimit:1;"/><path d="M 17.3705791813154 100.49999999999994 L 17.331146809395474 100.49077363628052" style="fill:none;stroke:#000000;stroke-width:1;stroke-linecap:round;stroke-miterlimit:1;"/><path d="M 17.331146809395474 100.49077363628052 L 0.5 96.55263157894734" style="fill:none;stroke:#000000;stroke-width:1;stroke-linecap:round;stroke-miterlimit:1;"/><path d="M 0.5 96.55263157894734 L 0.5 95.51146687896983" style="fill:none;stroke:#000000;stroke-width:1;stroke-linecap:round;stroke-miterlimit:1;"/><path d="M 0.5 95.51146687896983 L 9.278977908591681 97.49999999999997" style="fill:none;stroke:#000000;stroke-width:1;stroke-linecap:round;stroke-miterlimit:1;"/><path d="M 9.278977908591681 97.49999999999997 L 9.278977908591681 93.03177787214571" style="fill:none;stroke:#000000;stroke-width:1;stroke-linecap:round;stroke-miterlimit:1;"/><path d="M 9.278977908591681 93.03177787214571 L 9.278977908591681 79.7069102992088" style="fill:none;stroke:#000000;stroke-width:1;stroke-linecap:round;stroke-miterlimit:1;"/><path d="M 9.278977908591681 79.7069102992088 L 1.0074852678667412 78.13157894736838" style="fill:none;stroke:#000000;stroke-width:1;stroke-linecap:round;stroke-miterlimit:1;"/><path d="M 1.0074852678667412 78.13157894736838 L 1.0074852678667412 77.25438596491225" style="fill:none;stroke:#000000;stroke-width:1;stroke-linecap:round;stroke-miterlimit:1;"/><path d="M 1.0074852678667412 77.25438596491225 L 21.645553498748136 80.55068142895425" style="fill:none;stroke:#000000;stroke-width:1;stroke-linecap:round;stroke-miterlimit:1;"/><path d="M 0.5 95.51146687896983 L 9.278977908591681 93.03177787214571" style="fill:none;stroke:#000000;stroke-width:1;stroke-linecap:round;stroke-miterlimit:1;"/><path d="M 13.2244172535041 98.49999999999997 L 21.024473109956034 95.72740566365678" style="fill:none;stroke:#000000;stroke-width:1;stroke-linecap:round;stroke-miterlimit:1;"/><path d="M 21.024473109956034 95.72740566365678 L 25.8963316814769 96.99122807017542" style="fill:none;stroke:#000000;stroke-width:1;stroke-linecap:round;stroke-miterlimit:1;"/><path d="M 326.79233821819605 0.5 L 339.0264237122146 2.711590019076695" style="fill:none;stroke:#000000;stroke-width:1;stroke-linecap:round;stroke-miterlimit:1;"/><path d="M 339.0264237122146 2.711590019076695 L 326.79233821819605 5.763157894736835" style="fill:none;stroke:#000000;stroke-width:1;stroke-linecap:round;stroke-miterlimit:1;"/><path d="M 326.79233821819605 5.763157894736835 L 326.79233821819605 12.987277002374952" style="fill:none;stroke:#000000;stroke-width:1;stroke-linecap:round;stroke-miterlimit:1;"/><path d="M 326.79233821819605 12.987277002374952 L 336.63565101950815 14.00655714085417" style="fill:none;stroke:#000000;stroke-width:1;stroke-linecap:round;stroke-miterlimit:1;"/><path d="M 21.645553498748143 80.55068142895425 L 326.79233821819605 5.763157894736835" style="fill:none;stroke:#000000;stroke-width:1;stroke-linecap:round;stroke-miterlimit:1;"/><path d="M 1.0074852678667412 77.25438596491225 L 326.79233821819605 0.5" style="fill:none;stroke:#000000;stroke-width:1;stroke-linecap:round;stroke-miterlimit:1;"/><path d="M 17.3705791813154 99.62280701754383 L 336.63565101950815 14.00655714085417" style="fill:none;stroke:#000000;stroke-width:1;stroke-linecap:round;stroke-miterlimit:1;"/><path d="M 336.63565101950815 14.00655714085417 L 336.6356510195081 14.897683630074809" style="fill:none;stroke:#000000;stroke-width:1;stroke-linecap:round;stroke-miterlimit:1;"/><path d="M 17.2967279153832 100.5 L 17.331146809395474 100.49077363628052" style="fill:none;stroke:#000000;stroke-width:1;stroke-linecap:round;stroke-miterlimit:1;"/><path d="M 17.331146809395474 100.49077363628052 L 17.3705791813154 100.48020335457639" style="fill:none;stroke:#000000;stroke-width:1;stroke-linecap:round;stroke-miterlimit:1;"/><path d="M 17.3705791813154 100.48020335457639 L 336.6356510195081 14.897683630074809" style="fill:none;stroke:#000000;stroke-width:1;stroke-linecap:round;stroke-miterlimit:1;"/><path d="M 21.024473109956034 95.72740566365678 L 21.024473109956034 87.78070175438597" style="fill:none;stroke:#000000;stroke-width:1;stroke-linecap:round;stroke-miterlimit:1;"/><path d="M 21.024473109956034 87.78070175438597 L 25.89633168147691 88.94586869164337" style="fill:none;stroke:#000000;stroke-width:1;stroke-linecap:round;stroke-miterlimit:1;"/><path d="M 25.89633168147691 88.94586869164337 L 25.89633168147691 96.99122807017542" style="fill:none;stroke:#000000;stroke-width:1;stroke-linecap:round;stroke-miterlimit:1;"/><path d="M 25.89633168147691 88.94586869164337 L 27.571033065437238 88.5" style="fill:none;stroke:#000000;stroke-width:1;stroke-linecap:round;stroke-miterlimit:1;"/><path d="M 27.571033065437238 88.5 L 27.57103306543724 91.85612826999241" style="fill:none;stroke:#000000;stroke-width:1;stroke-linecap:round;stroke-miterlimit:1;"/><path d="M 27.57103306543724 91.85612826999241 L 27.571033065437245 96.55263157894737" style="fill:none;stroke:#000000;stroke-width:1;stroke-linecap:round;stroke-miterlimit:1;"/><path d="M 21.024473109956034 87.78070175438597 L 14.500000000000057 89.09649122807019" style="fill:none;stroke:#000000;stroke-width:1;stroke-linecap:round;stroke-miterlimit:1;"/><path d="M 14.500000000000057 89.09649122807019 L 14.500000000000057 89.26114052378998" style="fill:none;stroke:#000000;stroke-width:1;stroke-linecap:round;stroke-miterlimit:1;"/><path d="M 14.500000000000057 89.26114052378998 L 14.500000000000057 97.5" style="fill:none;stroke:#000000;stroke-width:1;stroke-linecap:round;stroke-miterlimit:1;"/><path d="M 27.571033065437238 88.5 L 21.024473109956034 86.69778003742164" style="fill:none;stroke:#000000;stroke-width:1;stroke-linecap:round;stroke-miterlimit:1;"/><path d="M 21.024473109956034 86.69778003742164 L 14.500000000000057 88.16185421603222" style="fill:none;stroke:#000000;stroke-width:1;stroke-linecap:round;stroke-miterlimit:1;"/><path d="M 14.500000000000057 88.16185421603222 L 14.500000000000057 89.26114052378998" style="fill:none;stroke:#000000;stroke-width:1;stroke-linecap:round;stroke-miterlimit:1;"/><path d="M 17.89609466275979 89.3806717788892 C 18.360404106112885 89.50567816748429 18.645735500707474 89.8568552685237 18.673047820904703 90.33692181968291" style="fill:none;stroke:#000000;stroke-width:1;stroke-linecap:round;stroke-miterlimit:1;"/><path d="M 18.673047820904703 90.33692181968291 C 18.702464090010164 90.85396931895991 18.411027950329494 91.46790404626861 17.89609466275979 91.41270311557588 C 17.40783733313195 91.36036185183625 17.258409498625788 90.79591755902919 17.2967279153832 90.30636007847929 C 17.330311455560707 89.87729555263175 17.51834201160041 89.5868929127569 17.89609466275979 89.3806717788892" style="fill:none;stroke:#000000;stroke-width:1;stroke-linecap:round;stroke-miterlimit:1;"/><path d="M 17.796372556846688 93.6423366079242 C 18.273017650952625 93.83255818089651 18.536273447726984 94.18245512597633 18.586980372631878 94.69314446434754" style="fill:none;stroke:#000000;stroke-width:1;stroke-linecap:round;stroke-miterlimit:1;"/><path d="M 18.586980372631878 94.69314446434754 C 18.64568366599657 95.28436836729287 18.348183514474744 95.77392557865787 17.796372556846688 95.99414466753836" style="fill:none;stroke:#000000;stroke-width:1;stroke-linecap:round;stroke-miterlimit:1;"/><path d="M 17.796372556846688 95.99414466753836 C 17.30408423031566 95.7146678403613 17.0718576508428 95.2775354554712 17.115849373639183 94.71315985208895 C 17.15432866700563 94.21950393158937 17.365770940603053 93.88679329519343 17.796372556846688 93.6423366079242" style="fill:none;stroke:#000000;stroke-width:1;stroke-linecap:round;stroke-miterlimit:1;"/><path d="M 27.57103306543724 91.85612826999241 L 198.74425080376182 46.62742669253112" style="fill:none;stroke:#000000;stroke-width:1;stroke-linecap:round;stroke-miterlimit:1;"/><path d="M 198.74425080376182 46.62742669253112 L 326.79233821819605 12.987277002374952" style="fill:none;stroke:#000000;stroke-width:1;stroke-linecap:round;stroke-miterlimit:1;"/><path d="M 21.561342136295703 81.9428240491624 L 21.645553498748143 81.95699602369433 L 21.645553498748143 81.94293287774693" style="fill:none;stroke:#000000;stroke-width:1;stroke-miterlimit:1;"/><path d="M 13.308628615956543 80.55397054503223 L 13.2244172535041 80.5397985705003 L 13.2244172535041 80.7194005847953" style="fill:none;stroke:#000000;stroke-width:1;stroke-miterlimit:1;"/><path d="M 13.2244172535041 98.32039798570497 L 13.2244172535041 98.49999999999997 L 13.265878872782213 98.5112280701754" style="fill:none;stroke:#000000;stroke-width:1;stroke-miterlimit:1;"/><path d="M 17.3701848575962 100.49990773636276 L 17.3705791813154 100.49999999999994 L 17.3705791813154 100.4998020335457" style="fill:none;stroke:#000000;stroke-width:1;stroke-miterlimit:1;"/><path d="M 0.6683114680939539 96.59201299952068 L 0.5 96.55263157894734 L 0.5 96.54221993194756" style="fill:none;stroke:#000000;stroke-width:1;stroke-miterlimit:1;"/><path d="M 0.5877897790859166 95.48666998890158 L 0.5 95.51146687896983 L 0.5 95.52187852596961" style="fill:none;stroke:#000000;stroke-width:1;stroke-miterlimit:1;"/><path d="M 9.191188129505765 97.48011466878967 L 9.278977908591681 97.49999999999997 L 9.278977908591681 97.45531777872142" style="fill:none;stroke:#000000;stroke-width:1;stroke-miterlimit:1;"/><path d="M 9.278977908591681 79.84015897493816 L 9.278977908591681 79.7069102992088 L 9.196262982184432 79.69115698569038" style="fill:none;stroke:#000000;stroke-width:1;stroke-miterlimit:1;"/><path d="M 1.09020019427399 78.1473322608868 L 1.0074852678667412 78.13157894736838 L 1.0074852678667412 78.12280701754383" style="fill:none;stroke:#000000;stroke-width:1;stroke-miterlimit:1;"/><path d="M 4.265333797370035 76.48684210526312 L 1.0074852678667412 77.25438596491225 L 1.0074852678667412 77.26315789473679" style="fill:none;stroke:#000000;stroke-width:1;stroke-miterlimit:1;"/><path d="M 25.847613095761695 96.97858984611022 L 25.8963316814769 96.99122807017542 L 25.89633168147691 96.91077447639012" style="fill:none;stroke:#000000;stroke-width:1;stroke-miterlimit:1;"/><path d="M 326.91467907313626 0.5221159001907694 L 326.79233821819605 0.5 L 323.53448968869276 1.2675438596491233" style="fill:none;stroke:#000000;stroke-width:1;stroke-miterlimit:1;"/><path d="M 338.9040828572744 2.7421056978332956 L 339.0264237122146 2.711590019076695 L 338.9040828572744 2.6894741188859257" style="fill:none;stroke:#000000;stroke-width:1;stroke-miterlimit:1;"/><path d="M 336.63565101950815 14.015468405746375 L 336.63565101950815 14.00655714085417 L 336.537217891495 13.99636433946938" style="fill:none;stroke:#000000;stroke-width:1;stroke-miterlimit:1;"/><path d="M 333.4430003011262 15.75350882731982 L 336.6356510195081 14.897683630074809 L 336.6356510195081 14.888772365182604" style="fill:none;stroke:#000000;stroke-width:1;stroke-miterlimit:1;"/><path d="M 21.07319169567124 87.79235342375856 L 21.024473109956034 87.78070175438597 L 20.959228378856473 87.79385964912282" style="fill:none;stroke:#000000;stroke-width:1;stroke-miterlimit:1;"/><path d="M 27.57103306543724 88.53356128269994 L 27.571033065437238 88.5 L 27.505567465882425 88.48197780037421" style="fill:none;stroke:#000000;stroke-width:1;stroke-miterlimit:1;"/><path d="M 14.500000000000057 89.0981377210274 L 14.500000000000057 89.09649122807019 L 14.565244731099618 89.08333333333334" style="fill:none;stroke:#000000;stroke-width:1;stroke-miterlimit:1;"/><path d="M 21.089938709510847 86.71580223704743 L 21.024473109956034 86.69778003742164 L 20.959228378856473 86.71242077920775" style="fill:none;stroke:#000000;stroke-width:1;stroke-miterlimit:1;"/><path d="M 14.500000000000057 88.1728470791098 L 14.500000000000057 88.16185421603222 L 14.565244731099618 88.14721347424612" style="fill:none;stroke:#000000;stroke-width:1;stroke-miterlimit:1;"/><path d="M 17.909970173604727 89.3844897244795 C 17.905362953821975 89.38319452373233 17.90073775719332 89.38192184277514 17.89609466275979 89.3806717788892 C 17.892317136248195 89.38273399022788 17.888558581946114 89.38480461971716 17.884818964578464 89.38688372183742" style="fill:none;stroke:#000000;stroke-width:1;stroke-miterlimit:1;"/><path d="M 18.673834150610492 90.35246154480677 C 18.673604061045936 90.34727245839127 18.67334198359576 90.3420922946757 18.673047820904703 90.33692181968291 C 18.67277469770273 90.33212115417132 18.67247577259332 90.32733337760473 18.672151124617493 90.32255858726444" style="fill:none;stroke:#000000;stroke-width:1;stroke-miterlimit:1;"/><path d="M 17.810607893721095 93.64809115884202 C 17.805884119799074 93.64615700692084 17.801139007787746 93.64423882365392 17.796372556846688 93.6423366079242 C 17.792066540684253 93.64478117479689 17.78778244045608 93.64723456706449 17.78352020996581 93.64969685741835" style="fill:none;stroke:#000000;stroke-width:1;stroke-miterlimit:1;"/><path d="M 18.58863471229199 94.71085051375698 C 18.588118818154683 94.70495877573728 18.587567405565526 94.69905670337698 18.586980372631878 94.69314446434754 C 18.586473303382828 94.68803757096381 18.58594497924659 94.68294675681943 18.585395399382744 94.67787202079737" style="fill:none;stroke:#000000;stroke-width:1;stroke-miterlimit:1;"/><path d="M 17.78168194173143 95.98571309646809 C 17.786552796490774 95.98853936543907 17.79144967358138 95.9913498992666 17.796372556846688 95.99414466753836 C 17.801890666422967 95.99194247664957 17.807383344918637 95.98971335194852 17.812850490441058 95.98745746110666" style="fill:none;stroke:#000000;stroke-width:1;stroke-miterlimit:1;"/><path d="M 197.03251862637856 47.079713708305746 L 198.74425080376182 46.62742669253112 L 200.02473167790615 46.291025195629544" style="fill:none;stroke:#000000;stroke-width:1;stroke-miterlimit:1;"/></svg>
