<?xml version="1.0" standalone="no"?><!-- Generator: Gravit.io --><svg xmlns="http://www.w3.org/2000/svg" xmlns:xlink="http://www.w3.org/1999/xlink" style="isolation:isolate" width="153.2050862476417" height="92.16951561760573"><path d="M 152.7050862476417 66.227713622496 C 150.77772680542034 88.8206493063131 145.63810162616338 91.1763108468059 143.81781770850986 91.60461294507729 C 141.99753379085635 92.03291504334868 139.10649462752428 90.31970665026307 138.8923435783886 87.10744091322744 C 138.6781925292529 83.8951751761918 138.8923435783886 48.77440311793589 136.32253098876012 45.133835282628866 C 133.75271839913165 41.49326744732184 130.64752818666386 42.992324791271784 129.68384846555318 43.956004512382464 C 129.15560662876217 44.484246349173475 127.3082754360635 53.280926343727174 125.49237289561867 62.00661067097553" style="fill:none;stroke:#000000;stroke-width:1;stroke-linecap:round;stroke-miterlimit:1;"/><path d="M 125.49237289561867 62.00661067097553 C 124.00903980262922 69.09877860637062 122.5446829921527 76.16037002733978 121.8673351720999 78.43432342323132" style="fill:none;stroke:#000000;stroke-width:1;stroke-linecap:round;stroke-miterlimit:1;"/><path d="M 121.8673351720999 78.43432342323132 C 121.10666521221438 78.82157358462757 120.44603324494247 79.0873490407073 119.91223139885793 79.20659720222204" style="fill:none;stroke:#000000;stroke-width:1;stroke-linecap:round;stroke-miterlimit:1;"/><path d="M 119.91223139885793 79.20659720222204 C 116.00048286850625 80.37245528942674 116.05759611962185 76.95579204771892 115.87110579630013 75.6503597844671 C 115.65695474716438 74.15130244051716 116.9418610419786 41.386191922753994 113.94374635407871 34.105056252139946 C 113.17064683326294 32.227528844444436 112.5328224971974 31.282688236869063 112.023349825868 30.99399339567313" style="fill:none;stroke:#000000;stroke-width:1;stroke-linecap:round;stroke-miterlimit:1;"/><path d="M 112.023349825868 30.99399339567313 C 111.55704380177119 30.61572578542058 111.19044328828573 30.747352566028013 110.91482740742936 31.14398832578422" style="fill:none;stroke:#000000;stroke-width:1;stroke-linecap:round;stroke-miterlimit:1;"/><path d="M 110.91482740742936 31.14398832578422 C 110.21638480700204 31.90384076486592 109.93041252804832 33.87891513141972 109.8748764205003 34.21213177670779 C 109.80575997314071 34.62683046086539 106.12289754128776 49.94265456256343 103.29354958800454 60.08454319049886" style="fill:none;stroke:#000000;stroke-width:1;stroke-linecap:round;stroke-miterlimit:1;"/><path d="M 103.29354958800454 60.08454319049886 C 102.21344652977936 63.94246599922107 101.25964304687432 67.0508263899992 100.68618200118846 68.24701956477426" style="fill:none;stroke:#000000;stroke-width:1;stroke-linecap:round;stroke-miterlimit:1;"/><path d="M 100.68618200118846 68.24701956477426 C 100.412607196614 68.87185968802672 100.22455362142654 69.06648227985207 100.13100368482563 68.79752621212447 C 100.03983548791348 68.535417646002 99.92683551576141 68.35335892242585 99.78643692816021 68.26375062208271" style="fill:none;stroke:#000000;stroke-width:1;stroke-linecap:round;stroke-miterlimit:1;"/><path d="M 99.78643692816021 68.26375062208271 C 99.60778127291232 68.05301865896067 99.38270176049124 67.99938072425039 99.11753683217262 68.0526019187181" style="fill:none;stroke:#000000;stroke-width:1;stroke-linecap:round;stroke-miterlimit:1;"/><path d="M 99.11753683217262 68.0526019187181 C 97.94105484088112 68.04261185039903 96.2116968533071 69.48959392318145 95.4196806038401 65.37110942595316 C 94.34892535816152 59.80318214842478 92.63571696507586 25.753165335847342 90.60128199828665 22.755050647947456" style="fill:none;stroke:#000000;stroke-width:1;stroke-linecap:round;stroke-miterlimit:1;"/><path d="M 90.60128199828665 22.755050647947456 C 90.18048453210903 22.530989659463273 89.78855494789497 22.387256690355912 89.43113240036706 22.328700509622024" style="fill:none;stroke:#000000;stroke-width:1;stroke-linecap:round;stroke-miterlimit:1;"/><path d="M 89.43113240036706 22.328700509622024 C 87.41150414815297 21.89700813392605 86.25413340396165 23.58263055875335 85.80072931349463 25.39624692062131 C 85.26535169065534 27.537757411978333 83.92690763355722 59.03580755568865 81.5177083307805 56.9835266681381 C 80.6993424687515 56.28640019307636 79.9839342318067 56.34086438112902 79.35643161793627 56.44143184555546" style="fill:none;stroke:#000000;stroke-width:1;stroke-linecap:round;stroke-miterlimit:1;"/><path d="M 79.35643161793627 56.44143184555546 C 78.12945305132422 56.5825982786412 77.22788760239081 56.84669884460243 76.52085051761401 51.89743925116505 C 75.45009527193542 44.40215253141528 74.6470288376766 18.2578786160978 72.95166636535222 15.670220105707955 C 71.25630389302785 13.082561595318111 70.18554864734935 12.547183972478905 68.31172696741189 14.5994648600294 C 66.43790528747442 16.651745747579895 65.99175726844177 48.417484702709885 61.619506681921045 48.3282550989033 C 57.247256095400324 48.23902549509671 57.336485699206925 47.88210707987062 56.08727124591527 43.956004512382606 C 54.83805679262361 40.02990194489459 55.55189362307603 14.331776048609782 54.39190877359092 11.56565833060688 C 53.23192392410581 8.799540612603977 50.82272462132914 7.9964741783451245 49.395050960424406 9.513377443056356 C 47.967377299519676 11.030280707767588 49.1273621490048 40.654509171540525 46.98585165764771 41.54680520960591 C 44.84434116629061 42.43910124767129 44.933570770097184 42.61756045528446 44.130504335838275 41.011427586766615 C 43.95472464142319 40.65986819793645 43.915747248898406 38.9146353585989 43.95930769917408 36.26368595757194" style="fill:none;stroke:#000000;stroke-width:1;stroke-linecap:round;stroke-miterlimit:1;"/><path d="M 43.95930769917408 36.26368595757194 C 43.98584752022207 33.43832366670864 44.12102597516026 29.421774710535402 44.24106713471294 25.3262257588257" style="fill:none;stroke:#000000;stroke-width:1;stroke-linecap:round;stroke-miterlimit:1;"/><path d="M 44.24106713471294 25.3262257588257 C 44.51182224521866 16.898218000756742 44.744336517335306 8.117287555122516 44.04127473203173 7.461096555505833 C 42.702830674933544 6.211882102214162 43.208976118008685 8.038406043071518 42.70283067493357 8.44262219737783" style="fill:none;stroke:#000000;stroke-width:1;stroke-linecap:round;stroke-miterlimit:1;"/><path d="M 42.70283067493357 8.44262219737783 C 42.66800767455536 8.999790203429171 42.524371467320485 5.944193290794601 42.613601071127015 9.870295858282532 C 42.702830674933544 13.796398425770462 42.88128988254666 39.76221313347506 41.096697806415754 40.922197982960085 C 39.31210573028485 42.08218283244511 38.15212088079979 41.18988679437973 37.52751365415397 38.95914669921609 C 36.90290642750815 36.72840660405245 38.15212088079979 4.2488308184703385 37.43828405034743 3.71345319563099 C 36.72444721989506 3.1780755727916414 36.367528804668915 3.9811420070506074 35.83215118182962 5.498045271761839 C 35.29677355899033 7.014948536473071 36.545988012282 30.39310473378785 35.207543955183816 33.51614086701687 C 33.86909989808563 36.639177000245894 32.08450782195472 37.53147303831145 30.389145349630375 35.479192150760866 C 28.693782877306028 33.426911263210286 30.746063764856608 5.498045271761924 30.03222693440423 4.338060422276783" style="fill:none;stroke:#000000;stroke-width:1;stroke-linecap:round;stroke-miterlimit:1;"/><path d="M 30.03222693440423 4.338060422276783 C 30.051197446886654 3.8448270977334573 29.989504070145408 3.371759745496064 29.857491699323568 3.0159364948631833" style="fill:none;stroke:#000000;stroke-width:1;stroke-linecap:round;stroke-miterlimit:1;"/><path d="M 29.857491699323568 3.0159364948631833 C 29.58321685485084 1.8558944667753678 28.931827224846636 1.2756172437435396 28.66079985254951 2.335313480660801" style="fill:none;stroke:#000000;stroke-width:1;stroke-linecap:round;stroke-miterlimit:1;"/><path d="M 28.66079985254951 2.335313480660801 C 28.551356757571433 2.614378796021043 28.497420994866197 3.1400000605196112 28.515323669692968 3.891912403244021 C 28.604553273499498 7.639555763118864 28.426094065886495 29.322349488109182 26.373813178335915 30.571563941400825 C 24.321532290785335 31.820778394692468 24.053843479365717 31.820778394692553 23.518465856526454 28.697742261463446 C 22.98308823368719 25.57470612823434 24.143073083172247 8.44262219737783 23.96461387555916 5.408815667955281 C 23.94872234002721 5.138659563912142 23.93283080449526 4.89609826792821 23.91693926896331 4.6758185915441" style="fill:none;stroke:#000000;stroke-width:1;stroke-linecap:round;stroke-miterlimit:1;"/><path d="M 23.91693926896331 4.6758185915441 C 23.74517332752911 2.4488063427444615 23.48850894384342 2.797319854267556 22.26925140323484 2.5534683461458485 C 20.93080734613664 2.2857795347262027 20.395429723297404 6.658030121246867 20.306200119490846 9.334918235443212 C 20.2725678745659 10.343885583191195 20.505144206830273 12.9247511962474 20.626391020267654 15.801753924338698" style="fill:none;stroke:#000000;stroke-width:1;stroke-linecap:round;stroke-miterlimit:1;"/><path d="M 20.626391020267654 15.801753924338698 C 20.99181336156176 20.709903328814363 21.160756468691936 26.526706969120966 19.77082249665161 27.805446223398008 C 17.540082401487943 29.857727110948474 16.20163834438977 26.913150185332483 16.20163834438977 23.790114052103434 C 16.20163834438977 22.792067896796482 16.374783282538424 20.700474763708627 16.55169118098727 18.36721579190737" style="fill:none;stroke:#000000;stroke-width:1;stroke-linecap:round;stroke-miterlimit:1;"/><path d="M 16.55169118098727 18.36721579190737 C 17.020957460045075 12.984577761449941 17.611844772340753 6.0380524046144615 17.00470477864871 4.3380604222767545 C 16.19850894905749 2.0807120994213903 15.100951648419375 1.4986922350859118 14.172256849020236 1.994214441005198" style="fill:none;stroke:#000000;stroke-width:1;stroke-linecap:round;stroke-miterlimit:1;"/><path d="M 14.172256849020236 1.994214441005198 C 14.073581521013104 2.0532008347665283 13.976378874741307 2.119059743292837 13.88166864541963 2.196549930919673 C 12.900143003547633 2.9996163651785537 14.68473507967854 19.060945050356565 13.167831814967279 21.73783316455291 C 11.650928550256019 24.414721278749255 10.490943700770963 25.574706128234425 8.260203605607323 23.611654844490403 C 8.096625439265559 23.467706058109655 7.976229416653702 23.242670801836056 7.904307104391897 22.92700967092503" style="fill:none;stroke:#000000;stroke-width:1;stroke-linecap:round;stroke-miterlimit:1;"/><path d="M 7.904307104391897 22.92700967092503 C 6.840726244466957 19.22733683935502 11.718154604756698 4.422541687393533 10.312484493157847 2.1073203271130865 C 10.013985080085043 1.615674234993179 9.698209389961555 1.2829698917395547 9.381059419530779 1.0752063261783746" style="fill:none;stroke:#000000;stroke-width:1;stroke-linecap:round;stroke-miterlimit:1;"/><path d="M 9.381059419530779 1.0752063261783746 C 8.085189109640616 0.24100782468406123 6.762294788685459 1.5310824911248062 6.475611529476417 2.8211571575654943 C 6.118693114250242 4.427290026083256 7.3679075675418275 9.513377443056356 6.029463510443684 12.36872476486576 C 4.69101945334554 15.224072086675164 5.047937868571772 18.97171544655012 2.3710497543753988 17.900960200871538 C -0.3058383598209815 16.830204955192954 0.6756872820510793 5.944193290794601 0.6756872820510509 5.319586064148751" style="fill:none;stroke:#000000;stroke-width:1;stroke-linecap:round;stroke-miterlimit:1;"/><path d="M 2.014131339149195 4.6057492336963435 C 1.5679833201164612 8.710311008797419 1.0326056972771696 15.848679313321043 2.4602793581819 16.20559772854719 C 3.8879530190866305 16.562516143773337 4.155641830506333 2.9996163651786105 6.386381925669916 1.482713100467322 C 8.038615273481234 0.35919442395558576 9.005546903149103 0.16572807921002664 9.381059419530779 1.0752063261783746" style="fill:none;stroke:#000000;stroke-width:1;stroke-linecap:round;stroke-miterlimit:1;"/><path d="M 9.381059419530779 1.0752063261783746 C 9.532636016937595 1.3560199940701239 9.598647662705467 1.7965023911804963 9.598647662705467 2.3750091385327607 C 9.598647662705467 4.6057492336963435 5.583315491410978 20.131700296035177 6.921759548509151 22.005521975972584 C 7.202600304606641 22.398699034509065 7.538440317397736 22.713305726340394 7.904307104391897 22.92700967092503" style="fill:none;stroke:#000000;stroke-width:1;stroke-linecap:round;stroke-miterlimit:1;"/><path d="M 7.904307104391897 22.92700967092503 C 9.275407865816298 23.763576874981283 11.053812003801958 23.257110010936287 11.829387757869107 20.577848315067882 C 12.810913399741075 17.187123370419158 11.204780531223342 2.7319275537589647 12.364765380708398 1.9288611195000271 C 12.877024742733987 1.5742200227130638 13.54589668644008 1.602409681145133 14.172256849020236 1.994214441005198" style="fill:none;stroke:#000000;stroke-width:1;stroke-linecap:round;stroke-miterlimit:1;"/><path d="M 14.172256849020236 1.994214441005198 C 14.980128780386487 2.41133437875979 15.724228911795372 3.389107391396692 16.023179136776683 4.784208441309431 C 16.319180247625034 6.165546958601709 16.31514913425665 12.75653591456637 16.55169118098727 18.36721579190737" style="fill:none;stroke:#000000;stroke-width:1;stroke-linecap:round;stroke-miterlimit:1;"/><path d="M 16.55169118098727 18.36721579190737 C 16.71983733679614 22.944625268981213 17.049745591603006 26.873254100000736 17.80777121290759 26.91315018533254 C 18.739842153731963 26.96220655063908 19.83373340134424 21.239671973844594 20.626391020267654 15.801753924338698" style="fill:none;stroke:#000000;stroke-width:1;stroke-linecap:round;stroke-miterlimit:1;"/><path d="M 20.626391020267654 15.801753924338698 C 21.36261082567038 11.444438292550302 21.881042876315213 7.260628698746842 22.001562591815194 6.658030121246867 C 22.26925140323481 5.319586064148723 22.001562591815166 3.7134531956309615 22.804629026074075 3.5349939880178454 C 23.16841673675753 3.4541522745326176 23.587136182765583 3.886006757410229 23.91693926896331 4.6758185915441" style="fill:none;stroke:#000000;stroke-width:1;stroke-linecap:round;stroke-miterlimit:1;"/><path d="M 23.91693926896331 4.6758185915441 C 24.33975850241567 5.54997222322794 24.638029849268925 6.929551038395715 24.58922110220498 8.442622197377801 C 24.499991498398423 11.208739915380647 23.07231783749372 28.5192830538503 24.946139517431156 28.340823846237214 C 26.819961197368592 28.162364638624126 26.641501989755476 4.784208441309488 27.89071644304712 2.910386761372024 C 28.12522405694603 2.558625340523662 28.38803199232668 2.382954808895022 28.66079985254951 2.335313480660801" style="fill:none;stroke:#000000;stroke-width:1;stroke-linecap:round;stroke-miterlimit:1;"/><path d="M 28.66079985254951 2.335313480660801 C 29.055191506911207 2.3049238119614017 29.471386468206525 2.5546860240337708 29.857491699323568 3.0159364948631833" style="fill:none;stroke:#000000;stroke-width:1;stroke-linecap:round;stroke-miterlimit:1;"/><path d="M 29.857491699323568 3.0159364948631833 C 30.64326349059666 3.910316035149407 31.31457350934273 5.62794192010486 31.45990059530893 7.371866951699275 C 31.727589406728548 10.584132688734826 29.407619707758435 33.6053704708234 31.3706709915024 35.38996254695428 C 33.333722275246366 37.17455462308516 33.69064069047251 35.56842175456734 34.13678870950525 33.06999284798408 C 34.58293672853798 30.571563941400825 32.26296702956787 4.159601214663695 34.58293672853801 2.8211571575654943 C 36.90290642750815 1.4827131004672935 38.50903929602597 4.427290026083313 38.41980969221941 7.282637347892717 C 38.33058008841285 10.13798466970212 36.99213603131468 39.04837630302265 39.0444169188652 39.76221313347497 C 41.096697806415726 40.476049963927295 40.3828609759634 5.854963686987958 41.98899384448119 5.141126856535607 C 43.59512671299898 4.427290026083256 46.80739245003456 9.5133774430563 46.00432601577568 12.725643180091907 C 45.60631005552887 14.317707021079173 44.748009663437706 19.9208209109957 44.24106713471294 25.3262257588257" style="fill:none;stroke:#000000;stroke-width:1;stroke-linecap:round;stroke-miterlimit:1;"/><path d="M 44.24106713471294 25.3262257588257 C 43.73443265129335 29.980366935099596 43.49388902929149 34.48375489620193 43.95930769917408 36.26368595757194" style="fill:none;stroke:#000000;stroke-width:1;stroke-linecap:round;stroke-miterlimit:1;"/><path d="M 43.95930769917408 36.26368595757194 C 44.045911836536995 36.62532977237535 44.16238945970587 36.8715074442884 44.308963543451334 36.99609541547204 C 46.09355561958224 38.51299868018333 47.253540469067296 9.691836650669444 49.21659175281129 8.799540612603977 C 51.179643036555284 7.90724457453851 55.01651600023674 9.5133774430563 55.46266401926945 13.617939218157346 C 55.90881203830215 17.722500993258393 54.659597585010566 46.90058143799857 59.83491460579014 46.90058143799854 C 65.01023162656972 46.90058143799851 64.6533132113436 31.999237602305612 65.18869083418284 29.32234948810924 C 65.72406845702207 26.645461373912866 65.54560924940907 14.064087237190051 68.84710459025118 13.082561595318083 C 72.14859993109329 12.101035953446114 75.36086566812895 16.651745747579838 76.07470249858127 24.14703246732961 C 76.7885393290336 31.64231918707938 76.61008012142057 52.1651280625847 78.57313140516453 54.75278657297446" style="fill:none;stroke:#000000;stroke-width:1;stroke-linecap:round;stroke-miterlimit:1;"/><path d="M 78.57313140516453 54.75278657297446 C 78.70574640587623 55.437964076651525 78.9807080354754 56.013644173492054 79.35643161793627 56.44143184555546" style="fill:none;stroke:#000000;stroke-width:1;stroke-linecap:round;stroke-miterlimit:1;"/><path d="M 79.35643161793627 56.44143184555546 C 80.4518957211514 57.808063961281164 82.38380385206693 57.94786742988401 83.65921882213757 56.269689837685746 C 85.3545812944619 54.03894974252208 85.26535169065542 25.66393573204087 87.496091785819 23.433195636877258 C 88.1310193188101 22.79826810388616 88.79486159434961 22.445259310741875 89.43113240036706 22.328700509622024" style="fill:none;stroke:#000000;stroke-width:1;stroke-linecap:round;stroke-miterlimit:1;"/><path d="M 89.43113240036706 22.328700509622024 C 91.03360398786876 21.993089920671792 92.46687299929039 23.086597527996446 92.84986801421172 24.68241009016893 C 93.3852456370509 26.913150185332512 95.16983771318189 64.65727259550087 97.84672582737818 67.15570150208413 C 98.29680693221204 67.57577719992906 98.72166310019301 67.8722507071949 99.11753683217262 68.0526019187181" style="fill:none;stroke:#000000;stroke-width:1;stroke-linecap:round;stroke-miterlimit:1;"/><path d="M 99.11753683217262 68.0526019187181 C 99.35357143316742 68.17303134171891 99.57823805939142 68.24738786668979 99.78643692816021 68.26375062208271" style="fill:none;stroke:#000000;stroke-width:1;stroke-linecap:round;stroke-miterlimit:1;"/><path d="M 99.78643692816021 68.26375062208271 C 100.11380247824937 68.34878105135138 100.41290035671241 68.33467870274515 100.68618200118846 68.24701956477426" style="fill:none;stroke:#000000;stroke-width:1;stroke-linecap:round;stroke-miterlimit:1;"/><path d="M 100.68618200118846 68.24701956477426 C 101.7880989520607 67.94798267604398 102.53005370006323 66.63409570321451 102.84358364054467 65.0141910107271 C 102.95867265610724 64.41956443032052 103.08613189498331 62.732234790553576 103.29354958800454 60.08454319049886" style="fill:none;stroke:#000000;stroke-width:1;stroke-linecap:round;stroke-miterlimit:1;"/><path d="M 103.29354958800454 60.08454319049886 C 103.901534844232 51.94821614663786 105.17946583251842 35.068850462236526 108.82196709558318 32.26692641372517 C 109.58375176416675 31.68093820712241 110.2830015770638 31.313821995422558 110.91482740742936 31.14398832578422" style="fill:none;stroke:#000000;stroke-width:1;stroke-linecap:round;stroke-miterlimit:1;"/><path d="M 110.91482740742936 31.14398832578422 C 111.31713402404046 31.002375342059196 111.68919259122009 30.95013276847658 112.023349825868 30.99399339567313" style="fill:none;stroke:#000000;stroke-width:1;stroke-linecap:round;stroke-miterlimit:1;"/><path d="M 112.023349825868 30.99399339567313 C 114.56863142846333 30.983438476736694 115.92410847522618 33.95961346925955 116.31725381533295 35.92534016979357 C 116.85263143817215 38.60222828398986 116.94186104197874 75.54328425989945 118.1018458914638 77.59556514744992 C 118.51603653736998 78.3283639825147 119.18050801218337 78.86776399524211 119.91223139885793 79.20659720222204" style="fill:none;stroke:#000000;stroke-width:1;stroke-linecap:round;stroke-miterlimit:1;"/><path d="M 119.91223139885793 79.20659720222204 C 121.23043083483796 79.79127143439752 122.76719670116833 79.70531137410188 123.45562211985651 78.84477960074156 C 123.97133497797074 78.2001385280987 124.59054166793007 70.29023045993122 125.49237289561867 62.00661067097553" style="fill:none;stroke:#000000;stroke-width:1;stroke-linecap:round;stroke-miterlimit:1;"/><path d="M 125.49237289561867 62.00661067097553 C 126.42223789060807 53.10613053050787 127.6763713476081 43.77389876270999 129.43400557489497 42.617560455284405 C 132.82473051954366 40.38682036012074 139.51695080503455 46.097515003739716 139.51695080503453 48.32825509890327 C 139.5169508050345 50.558995194066824 138.08927714412985 87.23236235855688 141.0338540697458 89.90925047275311 C 143.97843099536172 92.58613858694935 144.60303822200768 90.08770968036623 146.03071188291233 88.749265623268 C 147.45838554381697 87.41082156616977 150.67065128085264 65.90648704879257 150.8491104884657 65.54956863356637" style="fill:none;stroke:#000000;stroke-width:1;stroke-linecap:round;stroke-miterlimit:1;"/><path d="M 121.84454511149323 78.44590446060903 C 121.85213177670144 78.44205627898873 121.86489843005037 78.4425039143976 121.8673351720999 78.43432342323132 C 121.87410865030043 78.41158388927238 121.88096082940001 78.38836559151093 121.88789094136592 78.36467328700849" style="fill:none;stroke:#000000;stroke-width:1;stroke-miterlimit:1;"/><path d="M 90.66221835809162 22.85425012523021 C 90.64193857496505 22.81811813191794 90.63326294758178 22.77207946510461 90.60128199828665 22.755050647947456 C 90.59707402362488 22.75281003806262 90.59286893575131 22.750577460979713 90.58866674030509 22.748352921547507" style="fill:none;stroke:#000000;stroke-width:1;stroke-miterlimit:1;"/><path d="M 42.701753682639186 8.458264002548162 C 42.70212333360532 8.453404281006982 42.70248244492979 8.448193877438342 42.70283067493357 8.44262219737783 C 42.70789212936432 8.438580035834775 42.71285235470645 8.434395643513056 42.71771420784035 8.430073518458869" style="fill:none;stroke:#000000;stroke-width:1;stroke-miterlimit:1;"/><path d="M 30.05281871776348 4.380837986637687 C 30.04622705924148 4.3639370073806845 30.031703463447847 4.35167066714277 30.03222693440423 4.338060422276783 C 30.032416639529053 4.333128089031362 30.03259827826495 4.328197772383163 30.03277186095682 4.323269569410314" style="fill:none;stroke:#000000;stroke-width:1;stroke-miterlimit:1;"/><path d="M 78.5771525175899 54.7733090104677 C 78.57579793984166 54.76647917330732 78.57734937745553 54.75834662735804 78.57313140516453 54.75278657297446 C 78.5535008923271 54.726909987870556 78.53408453053879 54.69923988773016 78.51487928599309 54.66980723522576" style="fill:none;stroke:#000000;stroke-width:1;stroke-miterlimit:1;"/></svg>