<?xml version="1.0" standalone="no"?><!-- Generator: Gravit.io --><svg xmlns="http://www.w3.org/2000/svg" xmlns:xlink="http://www.w3.org/1999/xlink" style="isolation:isolate" width="58.56838984555361" height="37.44644130630999"><path d="M 54.2346958496679 35.946441306309964 L 1.5 13.441615942210234 L 1.5 2.982069860516077 L 5.472313340106439 4.674684362902639 L 11.125402843578172 7.08348257634097 L 45.81249090797348 21.863753737372463 L 53.035648350476094 24.941562558937846 L 54.2346958496679 25.452480256615758 L 54.2346958496679 35.946441306309964 Z" style="stroke:none;fill:#4ABBF0;stroke-miterlimit:10;"/><path d="M 54.2346958496679 25.452480256615758 L 57.06838984555361 23.86842105263156 L 57.06838984555361 34.37675584983586 L 54.2346958496679 35.946441306309964 L 54.2346958496679 25.452480256615758 Z" style="stroke:none;fill:#4ABBF0;stroke-miterlimit:10;"/><path d="M 45.81249090797348 21.863753737372463 C 44.89284141817859 20.590909888989785 53.19818898572896 17.84653417101657 53.035648350476094 24.941562558937846 L 45.81249090797348 21.863753737372463 Z" style="stroke:none;fill:#000000;stroke-miterlimit:10;"/><path d="M 5.472313340106439 4.674684362902639 Q 6.495216895323551 2.769219081204966 8.928531783106791 2.982069860516077 Q 11.165908252560541 3.4024514448418586 11.125402843578172 7.08348257634097 L 5.472313340106439 4.674684362902639 Z" style="stroke:none;fill:#000000;stroke-miterlimit:10;"/><path d="M 1.5 2.982069860516077 L 5.5178107714002635 1.4999999999999716 L 5.472313340106439 4.674684362902639 L 1.5 2.982069860516077 Z" style="stroke:none;fill:#4ABBF0;stroke-miterlimit:10;"/><path d="M 54.2346958496679 25.452480256615758 L 54.2346958496679 35.946441306309964" style="fill:none;stroke:#000000;stroke-width:1;stroke-linecap:round;stroke-miterlimit:3;"/><path d="M 54.2346958496679 35.946441306309964 L 57.06838984555361 34.37675584983586" style="fill:none;stroke:#000000;stroke-width:1;stroke-linecap:round;stroke-miterlimit:3;"/><path d="M 57.06838984555361 34.37675584983586 L 57.06838984555361 23.86842105263156" style="fill:none;stroke:#000000;stroke-width:1;stroke-linecap:round;stroke-miterlimit:3;"/><path d="M 57.06838984555361 23.86842105263156 L 54.2346958496679 25.452480256615758" style="fill:none;stroke:#000000;stroke-width:1;stroke-linecap:round;stroke-miterlimit:3;"/><path d="M 54.2346958496679 25.452480256615758 L 53.035648350476094 24.941562558937846" style="fill:none;stroke:#000000;stroke-width:1;stroke-linecap:round;stroke-miterlimit:3;"/><path d="M 53.035648350476094 24.941562558937846 L 45.81249090797348 21.863753737372463" style="fill:none;stroke:#000000;stroke-width:1;stroke-linecap:round;stroke-miterlimit:3;"/><path d="M 45.81249090797348 21.863753737372463 L 11.125402843578172 7.08348257634097" style="fill:none;stroke:#000000;stroke-width:1;stroke-linecap:round;stroke-miterlimit:3;"/><path d="M 11.125402843578172 7.08348257634097 L 5.472313340106439 4.674684362902639" style="fill:none;stroke:#000000;stroke-width:1;stroke-linecap:round;stroke-miterlimit:3;"/><path d="M 5.472313340106439 4.674684362902639 L 1.5 2.982069860516077" style="fill:none;stroke:#000000;stroke-width:1;stroke-linecap:round;stroke-miterlimit:3;"/><path d="M 1.5 2.982069860516077 L 1.5 13.441615942210234" style="fill:none;stroke:#000000;stroke-width:1;stroke-linecap:round;stroke-miterlimit:3;"/><path d="M 1.5 13.441615942210234 L 54.2346958496679 35.946441306309964" style="fill:none;stroke:#000000;stroke-width:1;stroke-linecap:round;stroke-miterlimit:3;"/><path d="M 1.5 2.982069860516077 L 5.5178107714002635 1.4999999999999716" style="fill:none;stroke:#000000;stroke-width:1;stroke-linecap:round;stroke-miterlimit:3;"/><path d="M 5.5178107714002635 1.4999999999999716 L 5.472313340106439 4.674684362902639" style="fill:none;stroke:#000000;stroke-width:1;stroke-linecap:round;stroke-miterlimit:3;"/><path d="M 11.125402843578172 7.08348257634097 Q 11.165908252560541 3.4024514448418586 8.928531783106791 2.982069860516077" style="fill:none;stroke:#000000;stroke-width:1;stroke-linecap:round;stroke-miterlimit:3;"/><path d="M 8.928531783106791 2.982069860516077 Q 6.495216895323551 2.769219081204966 5.472313340106439 4.674684362902639" style="fill:none;stroke:#000000;stroke-width:1;stroke-linecap:round;stroke-miterlimit:3;"/><path d="M 53.035648350476094 24.941562558937846 C 53.19818898572896 17.84653417101657 44.89284141817859 20.590909888989785 45.81249090797348 21.863753737372463" style="fill:none;stroke:#000000;stroke-width:1;stroke-linecap:round;stroke-miterlimit:3;"/><path d="M 48.04943401758521 26.029193612850463 C 49.0344683913047 26.234100581416385 49.67620788603739 27.023072554937528 49.67620788603739 28.029193612850435" style="fill:none;stroke:#000000;stroke-width:1;stroke-linecap:round;stroke-miterlimit:3;"/><path d="M 49.67620788603739 28.029193612850435 C 49.67620788603739 29.03531467076334 49.03446839130464 29.82428664428454 48.049434017585156 30.029193612850435" style="fill:none;stroke:#000000;stroke-width:1;stroke-linecap:round;stroke-miterlimit:3;"/><path d="M 48.049434017585156 30.029193612850435 C 47.09502507907655 29.780231859486918 46.50421751988489 29.01553958488205 46.50421751988489 28.029193612850435 C 46.50421751988489 27.04284764081882 47.09502507907655 26.27815536621395 48.04943401758521 26.029193612850463" style="fill:none;stroke:#000000;stroke-width:1;stroke-linecap:round;stroke-miterlimit:3;"/><path d="M 7.568030778027605 8.792914372159231 Q 8.924151900101833 11.417664931012723 6.824351453019062 11.942615042783444" style="fill:none;stroke:#000000;stroke-width:1;stroke-linecap:round;stroke-miterlimit:3;"/><path d="M 6.824351453019062 11.942615042783444 C 5.293246960354509 9.974052123643304 7.174318194199543 8.705422686864068 7.568030778027605 8.792914372159231" style="fill:none;stroke:#000000;stroke-width:1;stroke-linecap:round;stroke-miterlimit:3;"/><path d="M 53.70734889117125 35.72139305266896 L 54.2346958496679 35.946441306309964 L 54.26303278962678 35.93074445174523" style="fill:none;stroke:#000000;stroke-width:1;stroke-miterlimit:3;"/><path d="M 57.040052905594735 34.3924527044006 L 57.06838984555361 34.37675584983586 L 57.06838984555361 34.271672501863804" style="fill:none;stroke:#000000;stroke-width:1;stroke-miterlimit:3;"/><path d="M 57.06838984555361 23.973504400603616 L 57.06838984555361 23.86842105263156 L 57.040052905594735 23.884261644671398" style="fill:none;stroke:#000000;stroke-width:1;stroke-miterlimit:3;"/><path d="M 1.5401781077139844 2.967249161910928 L 1.5 2.982069860516077 L 1.5 3.0866653213330153" style="fill:none;stroke:#000000;stroke-width:1;stroke-miterlimit:3;"/><path d="M 2.0273469584966506 13.66666419585124 L 1.5 13.441615942210234 L 1.5 13.337020481393296" style="fill:none;stroke:#000000;stroke-width:1;stroke-miterlimit:3;"/><path d="M 5.517355797087305 1.5317468436290085 L 5.5178107714002635 1.4999999999999716 L 5.477632663686279 1.5148206986051207" style="fill:none;stroke:#000000;stroke-width:1;stroke-miterlimit:3;"/><path d="M 11.06887194854346 7.059394594206594 L 11.125402843578172 7.08348257634097 L 11.472273724222134 7.2312852879512945" style="fill:none;stroke:#000000;stroke-width:1;stroke-miterlimit:3;"/><path d="M 8.928531783106791 2.982069860516077 Q 8.950905547801312 2.986273676359332 8.928531783106791 2.982069860516077 Q 8.904198634228976 2.9799413527229603 8.880006526484408 2.978024676535938" style="fill:none;stroke:#000000;stroke-width:1;stroke-miterlimit:3;"/><path d="M 48.078881761888454 26.035515674493013 C 48.06910037557168 26.03335015872227 48.0592843613224 26.031242682536117 48.04943401758521 26.029193612850463 C 48.039889928200125 26.03168323038409 48.030382198952964 26.03422442096985 48.02091105704994 26.0368168905309" style="fill:none;stroke:#000000;stroke-width:1;stroke-miterlimit:3;"/><path d="M 49.67601566263363 28.059311732946583 C 49.676143712087935 28.049294319100255 49.67620788603739 28.03925482342956 49.67620788603739 28.029193612850435 C 49.67620788603739 28.01913240227131 49.676143712087935 28.009092906600614 49.67601566263363 27.999075492754287" style="fill:none;stroke:#000000;stroke-width:1;stroke-miterlimit:3;"/><path d="M 48.02091105704989 30.021570335169997 C 48.03038219895291 30.02416280473105 48.03988992820007 30.026703995316808 48.049434017585156 30.029193612850435 C 48.05928436132234 30.02714454316478 48.06910037557162 30.025037066978626 48.0788817618884 30.022871551207885" style="fill:none;stroke:#000000;stroke-width:1;stroke-miterlimit:3;"/><path d="M 7.5948076083121805 8.845199403291588 Q 7.581591989248352 8.819161877747774 7.568030778027605 8.792914372159231 C 7.564093652189342 8.79203945530628 7.560007790486054 8.791300150565547 7.555778092452158 8.790695801749365" style="fill:none;stroke:#000000;stroke-width:1;stroke-miterlimit:3;"/><path d="M 6.779437071422706 11.883768791441582 C 6.794070580738435 11.903313777748878 6.8090404080924145 11.922929413592044 6.824351453019062 11.942615042783444 Q 6.845349457489874 11.937365541665741 6.824351453019062 11.942615042783444" style="fill:none;stroke:#000000;stroke-width:1;stroke-miterlimit:3;"/></svg>