<?xml version="1.0" standalone="no"?><!-- Generator: Gravit.io --><svg xmlns="http://www.w3.org/2000/svg" xmlns:xlink="http://www.w3.org/1999/xlink" style="isolation:isolate" width="171.46690325319855" height="134.0407636895336"><path d="M 17.494514901265646 79.36210495150749 L 14.760237151470832 78.8425295947676 L 12.051428053162269 78.8425295947676 L 9.326007196670659 77.1457980024681 L 7.465097710539268 74.84252959476757 L 1.3971476889524155 70.59292725417194 C 1.3971476889524155 67.84905192210633 -0.2743106970022353 66.55958294655454 1.3971476889524155 63.56208826512336 C 3.0686060749070663 60.564593583692165 6.153150495330678 60.367925452642005 7.760237151470861 61.112281849726465 C 9.367323807611044 61.856638246810924 8.829634332476589 61.54762802559143 9.399355360709366 62.000000000000014 L 21.110740860318348 68.85790718015575 L 24.580781008350584 70.40703224624156 C 25.524912330998003 69.8579198177111 25.78574900886975 69.0076790093625 27.000000000000007 69 C 28.214250991130264 68.9923209906375 29.02033365010267 69.65639658893822 29.414051214538524 70.75183139018816 L 17.494514901265646 79.36210495150749 Z" style="stroke:none;fill:#4ABBF0;stroke-miterlimit:10;"/><path d="M 33.02998057506642 123.76465859915572 L 44.82372843441709 111.84252959476763 L 44.82372843441709 93.7961565252743 L 163.5600133276197 0.5 L 167.41473221206252 2.8128313306656043 L 170.9669032531986 13.05222579947929 L 170.96690325319858 22.842529594767605 L 167.54643510728113 25.842529594767605 L 161.26936518821572 23.444480541296116 L 66.76272907489738 105.0454283397065 L 68.12879715147061 105.97492959476736 C 68.57030995185305 106.10992432289024 68.86418603775365 105.4272554975382 68.99999999999997 106.77527072522412 C 69.13581396224629 108.12328595291004 67.80201074920895 107.80726137417489 67.03523654342092 108.46778801054279 L 64.75930155019046 106.77527072522412 L 55.00000000000001 115.85452133641638 L 55.93507234592811 120.92455368358695 L 55.93507234592811 129.92455368358696 L 51.76023715147084 133.5407636895336 L 33.02998057506642 123.76465859915572 Z" style="stroke:none;fill:#E8E072;stroke-miterlimit:10;"/><path d="M 63.71875665199766 90.59479350653112 C 63.71875665199766 90.04231934838477 64.09487192214459 89.59378043637727 64.55814046290594 89.59378043637727 C 65.02140900366727 89.59378043637727 65.3975242738142 90.04231934838477 65.39752427381421 90.59479350653112 C 65.3975242738142 91.14726766467747 65.02140900366727 91.59580657668496 64.55814046290594 91.59580657668496 C 64.09487192214459 91.59580657668496 63.71875665199766 91.14726766467747 63.71875665199766 90.59479350653112 Z M 64.44236338553922 95.15012834752133 C 64.44236338553921 94.59765418937494 64.81847865568615 94.14911527736743 65.2817471964475 94.14911527736743 C 65.74501573720883 94.14911527736743 66.12113100735579 94.59765418937494 66.12113100735579 95.15012834752133 C 66.12113100735579 95.70260250566776 65.74501573720885 96.15114141767525 65.28174719644751 96.15114141767525 C 64.81847865568616 96.15114141767525 64.44236338553921 95.70260250566776 64.44236338553922 95.15012834752133 Z M 61.63476925939782 95.2081580907186 C 61.63476925939782 94.65568393257219 62.01088452954471 94.2071450205647 62.47415307030605 94.2071450205647 C 62.93742161106739 94.2071450205647 63.31353688121427 94.6556839325722 63.31353688121427 95.2081580907186 C 63.31353688121427 95.76063224886502 62.937421611067386 96.20917116087253 62.474153070306045 96.20917116087251 C 62.01088452954471 96.20917116087251 61.63476925939782 95.76063224886502 61.63476925939782 95.2081580907186 Z M 58.856119402598026 95.06308373272529 C 58.856119402598026 94.51060957457895 59.232234672744966 94.06207066257144 59.695503213506306 94.06207066257144 C 60.15877175426764 94.06207066257144 60.53488702441458 94.51060957457895 60.53488702441458 95.0630837327253 C 60.53488702441458 95.61555789087167 60.15877175426764 96.06409680287916 59.6955032135063 96.06409680287916 C 59.23223467274496 96.06409680287916 58.856119402598026 95.61555789087166 58.856119402598026 95.06308373272529 Z M 59.348171981406374 99.56038883051819 C 59.348171981406374 99.00791467237184 59.72428725155325 98.55937576036433 60.18755579231459 98.55937576036433 C 60.65082433307593 98.55937576036433 61.02693960322282 99.00791467237184 61.02693960322282 99.56038883051819 C 61.02693960322282 100.11286298866455 60.65082433307594 100.56140190067205 60.1875557923146 100.56140190067205 C 59.72428725155326 100.56140190067205 59.348171981406374 100.11286298866455 59.348171981406374 99.56038883051819 Z M 153.74984124944854 20.326819259483766 C 153.7498412494485 19.9131308801954 154.0214995293775 19.577268409851605 154.3561063505239 19.57726840985162 C 154.69071317167027 19.577268409851605 154.9623714515993 19.913130880195414 154.9623714515993 20.326819259483766 C 154.9623714515993 20.74050763877212 154.69071317167027 21.076370109115903 154.3561063505239 21.076370109115917 C 154.0214995293775 21.076370109115917 153.7498412494485 20.74050763877212 153.74984124944854 20.326819259483766 Z M 153.65661984143367 16.51861736215908 C 153.65661984143367 16.104928982870717 153.92827812136267 15.769066512526935 154.26288494250903 15.769066512526935 C 154.59749176365543 15.76906651252695 154.86915004358445 16.10492898287073 154.86915004358445 16.518617362159098 C 154.86915004358445 16.932305741447447 154.59749176365546 17.268168211791263 154.26288494250906 17.26816821179123 C 153.9282781213627 17.268168211791245 153.65661984143367 16.932305741447433 153.65661984143367 16.51861736215908 Z M 155.99465186832285 16.778542253563764 C 155.99465186832282 16.364853874275415 156.2663101482519 16.028991403931617 156.60091696939827 16.028991403931617 C 156.93552379054466 16.02899140393163 157.2071820704737 16.36485387427543 157.20718207047372 16.778542253563764 C 157.2071820704737 17.192230632852148 156.93552379054464 17.52809310319596 156.60091696939827 17.528093103195943 C 156.2663101482519 17.52809310319593 155.99465186832285 17.192230632852148 155.99465186832285 16.778542253563764 Z M 158.04487094669076 16.826900372894926 C 158.04487094669074 16.413211993606545 158.3165292266198 16.077349523262765 158.65113604776616 16.077349523262765 C 158.98574286891255 16.077349523262765 159.2574011488416 16.41321199360653 159.2574011488416 16.826900372894897 C 159.2574011488416 17.240588752183278 158.98574286891255 17.57645122252706 158.6511360477662 17.576451222527073 C 158.31652922661982 17.57645122252706 158.04487094669074 17.240588752183292 158.04487094669076 16.826900372894926 Z M 157.95164953867592 13.018698475570258 C 157.95164953867592 12.605010096281905 158.22330781860495 12.269147625938094 158.55791463975135 12.269147625938109 C 158.8925214608977 12.269147625938109 159.16417974082674 12.605010096281905 159.16417974082674 13.018698475570258 C 159.16417974082677 13.432386854858622 158.89252146089768 13.768249325202435 158.55791463975132 13.768249325202435 C 158.22330781860495 13.76824932520242 157.95164953867592 13.432386854858622 157.95164953867592 13.018698475570258 Z M 125.87175101833135 50.26653989035501 C 125.87175101833137 49.90623065678128 126.16356458999707 49.613705279385066 126.52299707851878 49.613705279385066 C 126.88242956704053 49.61370527938507 127.17424313870623 49.906230656781275 127.17424313870623 50.26653989035499 C 127.17424313870623 50.62684912392872 126.88242956704053 50.919374501324924 126.52299707851878 50.91937450132491 C 126.16356458999705 50.919374501324924 125.87175101833137 50.62684912392872 125.87175101833135 50.26653989035501 Z M 118.03267807163064 56.71025929122485 C 118.03267807163064 56.34995005765114 118.32449164329634 56.05742468025492 118.68392413181807 56.05742468025494 C 119.04335662033978 56.05742468025491 119.3351701920055 56.34995005765114 119.3351701920055 56.71025929122485 C 119.3351701920055 57.07056852479857 119.04335662033978 57.36309390219477 118.68392413181807 57.363093902194784 C 118.32449164329634 57.36309390219478 118.03267807163064 57.070568524798574 118.03267807163064 56.71025929122485 Z M 65.38594656607759 101.84385922533316 C 65.38594656607758 101.3826634063588 65.75946793780967 101.00823092329166 66.2195415231175 101.00823092329166 C 66.67961510842531 101.00823092329166 67.05313648015739 101.3826634063588 67.05313648015739 101.84385922533316 C 67.05313648015739 102.30505504430752 66.6796151084253 102.67948752737465 66.21954152311748 102.67948752737465 C 65.75946793780967 102.67948752737465 65.38594656607758 102.30505504430752 65.38594656607759 101.84385922533316 Z M 59.932846222108004 106.4224059636023 C 59.932846222108004 105.96121014462793 60.30636759384008 105.5867776615608 60.766441179147904 105.5867776615608 C 61.226514764455736 105.5867776615608 61.60003613618781 105.96121014462793 61.60003613618781 106.4224059636023 C 61.60003613618781 106.88360178257668 61.226514764455736 107.2580342656438 60.766441179147904 107.2580342656438 C 60.306367593840086 107.2580342656438 59.932846222108004 106.88360178257668 59.932846222108004 106.4224059636023 Z M 32.94088202592209 123.72689030818793 L 51.61983704430045 133.5 M 51.61983704430045 133.5 L 55.78323750218036 129.88489800078668 M 51.61983704430045 133.5 L 51.61983704430045 96.97284304229059 M 51.61983704430045 96.97284304229059 L 45.47562610505806 93.76757058323813 M 45.47562610505806 93.76757058323813 L 44.702327196962905 117.80657584410625 M 44.702327196962905 117.80657584410625 L 40.65959749239614 115.8191767114785 M 40.65959749239614 115.8191767114785 L 44.70232719696291 111.80841424408547 M 55.78323750218036 129.88489800078668 L 55.78323750218036 120.88765560075548 M 55.78323750218036 120.88765560075548 L 53.59180223494953 108.2999249272278 M 53.59180223494953 108.2999249272278 L 51.61983704430045 96.97284304229059 M 40.65959749239614 115.8191767114785 L 32.94088202592209 123.72689030818793 M 166.30485581865997 18.69785650843351 L 162.3158116873779 16.837522243756343 M 166.30485581865997 18.69785650843351 L 160.82902317349888 23.43745035253773 M 160.82902317349888 23.43745035253773 L 66.58123763473829 105.01339562082539 M 66.58123763473829 105.01339562082539 L 64.583297432268 106.74270798264207 M 64.583297432268 106.74270798264207 L 55.10101758299488 114.95007261811955 M 162.3158116873779 16.837522243756343 L 53.59180223494953 108.2999249272278 M 166.95755823876158 25.83476464378757 L 160.82902317349888 23.43745035253773 M 166.95755823876158 25.83476464378757 L 170.5 22.835683843777158 M 170.5 22.835683843777158 L 170.5 13.048379797537823 M 167.08890040407266 2.812122679153887 L 163.11339730282936 0.5000000000000148 M 167.08890040407266 2.812122679153887 L 162.27945954375343 6.734042566393039 M 162.27945954375343 6.734042566393039 L 51.61983704430045 96.97284304229059 M 163.11339730282936 0.5000000000000148 L 45.47562610505806 93.76757058323813 M 170.5 13.048379797537823 L 167.08890040407266 2.812122679153887 M 162.3158116873779 16.837522243756343 L 162.27945954375343 6.734042566393039 M 64.583297432268 106.74270798264207 L 66.85299871424935 108.43470668067036 M 66.58123763473829 105.01339562082539 L 67.94356409568485 105.94261207670493 M 16.666823657578004 79.73946123339607 L 14.72117882994131 78.81852544397115 M 14.72117882994131 78.81852544397115 L 14.72117882994131 76.96636217887556 M 14.72117882994131 76.96636217887556 L 14.72117882994131 75.11419891377996 M 14.72117882994131 75.11419891377996 L 14.72117882994131 72.86345339447709 M 14.72117882994131 72.86345339447709 L 11.181146702914852 70.73030622929357 M 11.181146702914852 70.73030622929357 L 10.917520546263988 70.57145078150405 M 10.917520546263988 70.57145078150405 L 10.904004603390774 70.58447748339822 M 10.904004603390774 70.58447748339822 L 9.374980318457808 72.05815517910816 M 9.374980318457808 72.05815517910816 L 12.650130292808411 73.79264364297964 M 12.650130292808411 73.79264364297964 L 14.72117882994131 72.86345339447709 M 14.72117882994131 78.81852544397115 L 12.650130292808411 78.81852544397115 M 12.650130292808411 78.81852544397115 L 12.650130292808413 73.8545896595465 M 9.374980318457808 72.05815517910816 L 9.374980318457808 74.59023445466691 M 9.374980318457808 74.59023445466691 L 9.374980318457808 77.12231373022566 M 9.374980318457808 77.12231373022566 L 12.650130292808411 78.81852544397115 M 16.666823657578004 79.73946123339607 L 17.229229373919797 79.33794160282353 M 17.229229373919797 79.33794160282353 L 22.208929619502452 75.78277254093373 M 22.208929619502452 75.78277254093373 L 29.334856577236 70.69534281463774 M 17.222981200392248 79.73946123339607 C 17.22301148546365 79.60098644719397 17.223781484823363 79.46418211645285 17.229229373919797 79.33794160282353 M 17.229229373919797 79.33794160282353 C 17.23465370540199 78.82439713433463 17.250456303539533 78.33467954594855 17.275522220259223 77.86775260555675 M 17.275522220259223 77.86775260555675 C 17.313267700034892 77.16463124828378 17.37201850046519 76.51318952016311 17.447967482719815 75.90988906851902 M 17.447967482719815 75.90988906851902 C 17.526963151929476 75.28238727063653 17.624564485586024 74.70696658489247 17.736487550529873 74.17964552623128 M 17.736487550529873 74.17964552623128 C 17.854056217384354 73.6257254392306 17.987427883477476 73.12487982730033 18.131637098005353 72.67249380327166 M 18.131637098005353 72.67249380327166 C 18.31328823303228 72.10265202856876 18.512135123518743 71.60970026531488 18.71825360399434 71.18441499973486 M 18.71825360399434 71.18441499973486 C 18.98739144035734 70.62910158993711 19.26892708831544 70.18915723844934 19.540766897825367 69.8440481194173 M 19.540766897825367 69.8440481194173 C 20.22221804513412 68.97892462799389 20.842739538653795 68.70975556706158 21.05428871755709 68.71307028449881 M 21.05428871755709 68.71307028449881 C 21.601371447555156 68.72164240316236 23.446237059052688 69.33137811890332 24.514824539512382 70.38561273180346 M 22.208929619502452 75.78277254093373 C 20.04151191840806 73.61006797010528 23.76045982049388 70.38561273180349 24.514824539512382 70.38561273180346 M 29.334856577236 70.69534281463774 C 29.334856577236 67.50998136520215 24.13557755116188 70.00544066591787 24.514824539512382 70.38561273180346 M 21.05428871755709 68.71307028449881 L 12.019789070848496 63.542766041497366 M 12.019789070848496 63.542766041497366 L 7.740351600197687 61.093710246777675 M 7.740351600197687 61.093710246777675 Q 4.163078880705329 60.56631712344239 2.7540464360951 61.823734243912256 C 1.3450139914848709 63.08115136438212 -0.6949936024743104 67.72863241838805 1.3946904308772192 70.38561273180348 M 1.3946904308772192 70.38561273180348 L 7.5829171249451335 74.81975104395724 M 7.5829171249451335 74.81975104395724 L 8.448051080434126 75.46518609028419 M 8.448051080434126 75.46518609028419 L 9.374980318457808 77.12231373022566 M 12.019789070848496 63.542766041497366 C 11.43514997534907 64.03041676364899 10.91439290756217 64.46059077444798 10.452220916702238 64.85332306395912 M 10.452220916702238 64.85332306395912 C 10.018659767369227 65.22174318934103 9.636654767940785 65.55721378053 9.301833052633093 65.87627460277555 M 9.301833052633093 65.87627460277555 C 8.886244530929714 66.27230033643696 8.543348243950755 66.64304460022959 8.264782080677131 67.02013593252777 M 8.264782080677131 67.02013593252777 C 7.474548519007502 68.08986465727605 7.202003558165774 69.21067061963447 7.256251011661191 71.10459247062037 M 7.256251011661191 71.10459247062037 C 7.2766562743347984 71.81699407406036 7.343299387253567 72.6387838245692 7.446020536508207 73.60838982521405 M 7.446020536508207 73.60838982521405 C 7.4863075462525295 73.98866717490858 7.532144047866237 74.39168149040299 7.5829171249451335 74.81975104395724 M 19.540766897825367 69.8440481194173 C 10.514558518924128 64.87775221377137 14.169816693393912 66.85043092342346 10.452220916702238 64.85332306395912 M 18.71825360399434 71.18441499973486 L 9.301833052633093 65.87627460277555 M 18.131637098005353 72.67249380327166 L 8.264782080677131 67.02013593252777 M 17.736487550529873 74.17964552623128 L 11.181146702914852 70.73030622929357 M 11.181146702914852 70.73030622929357 L 10.904004603390774 70.58447748339822 M 10.904004603390774 70.58447748339822 L 7.5829171249451335 68.83696231763253 M 17.447967482719815 75.90988906851902 L 14.72117882994131 75.11419891377996 M 9.374980318457808 72.05815517910816 L 7.256251011661191 71.10459247062037 M 17.275522220259223 77.86775260555675 L 14.72117882994131 76.96636217887556 M 9.374980318457808 74.59023445466691 L 7.446020536508207 73.60838982521405 M 66.85299871424935 108.43470668067036 C 67.40393719358777 108.52057234793776 67.83922435342832 108.34657787963488 68.18005779293506 107.90425009911857 C 68.65029743527191 107.29398117243502 68.5452942272623 106.42301383714425 67.94356409568485 105.94261207670493" style="fill:none;stroke:#000000;stroke-width:1;stroke-linecap:round;stroke-miterlimit:3;"/></svg>