<?xml version="1.0" standalone="no"?><!-- Generator: Gravit.io --><svg xmlns="http://www.w3.org/2000/svg" xmlns:xlink="http://www.w3.org/1999/xlink" style="isolation:isolate" width="9.654062869183235" height="197.44261655488998"><path d="M 2.3618392519122557 176.54516595371143 C 2.361839251912256 175.99856242732315 2.824393515084332 175.55478972336851 3.3941306556130186 175.55478972336851 C 3.9638677961417637 175.55478972336851 4.426422059313841 175.99856242732315 4.426422059313841 176.54516595371143 C 4.42642205931384 177.0917694800997 3.9638677961417637 177.53554218405435 3.394130655613018 177.53554218405435 C 2.8243935150843313 177.53554218405435 2.3618392519122557 177.0917694800997 2.3618392519122557 176.54516595371143 Z M 2.3618392519122557 179.5731565182715 C 2.3618392519122557 179.02655299188325 2.824393515084332 178.58278028792856 3.3941306556130186 178.58278028792859 C 3.9638677961417637 178.58278028792859 4.42642205931384 179.0265529918832 4.42642205931384 179.5731565182715 C 4.42642205931384 180.11976004465976 3.9638677961417637 180.56353274861442 3.3941306556130186 180.56353274861442 C 2.824393515084332 180.56353274861442 2.3618392519122553 180.11976004465978 2.3618392519122557 179.5731565182715 Z M 2.3305557831530703 182.48742333576908 C 2.3305557831530703 181.94081980938077 2.793110046325146 181.49704710542613 3.3628471868538323 181.49704710542616 C 3.9325843273825782 181.49704710542616 4.395138590554653 181.9408198093808 4.395138590554653 182.48742333576905 C 4.395138590554654 183.03402686215736 3.9325843273825782 183.47779956611203 3.3628471868538323 183.477799566112 C 2.793110046325146 183.47779956611197 2.3305557831530703 183.0340268621574 2.3305557831530703 182.48742333576908 Z M 2.3305557831530703 185.51541390032915 C 2.3305557831530703 184.96881037394084 2.7931100463251464 184.5250376699862 3.3628471868538323 184.52503766998623 C 3.9325843273825787 184.52503766998626 4.395138590554654 184.96881037394084 4.395138590554654 185.51541390032912 C 4.395138590554654 186.0620174267174 3.9325843273825782 186.5057901306721 3.3628471868538323 186.5057901306721 C 2.793110046325146 186.50579013067207 2.3305557831530703 186.06201742671743 2.3305557831530703 185.51541390032915 Z M 2.2943350321460705 188.5236610389161 C 2.2943350321460705 187.97705751252778 2.756889295318146 187.53328480857317 3.326626435846892 187.53328480857314 C 3.8963635763755784 187.53328480857314 4.358917839547654 187.97705751252778 4.358917839547654 188.5236610389161 C 4.358917839547654 189.07026456530434 3.896363576375579 189.514037269259 3.326626435846892 189.514037269259 C 2.7568892953181465 189.514037269259 2.2943350321460705 189.07026456530437 2.2943350321460705 188.5236610389161 Z M 2.2943350321460705 191.55165160347616 C 2.2943350321460705 191.00504807708785 2.7568892953181465 190.5612753731332 3.326626435846892 190.56127537313324 C 3.896363576375579 190.56127537313324 4.358917839547654 191.00504807708785 4.358917839547654 191.55165160347616 C 4.358917839547654 192.0982551298644 3.896363576375579 192.54202783381908 3.326626435846892 192.54202783381908 C 2.7568892953181465 192.54202783381908 2.2943350321460705 192.09825512986444 2.2943350321460705 191.55165160347616 Z M 9.5 3.493240521390132 L 8.02180989071142 4.27951706110129 M 8.02180989071142 4.27951706110129 L 8.023055439868665 4.439483109994693 M 8.023055439868665 4.439483109994693 L 8.088124999999968 12.796375631652523 M 8.088124999999968 12.796375631652523 L 9.5 11.934635084661178 M 9.5 11.934635084661178 L 9.5 3.493240521390132 M 2.821940109288506 1.2862765397111575 L 8.02180989071142 4.27951706110129 M 2.821940109288506 1.2862765397111575 L 4.411691614773749 0.5 M 4.411691614773749 0.5 L 9.5 3.493240521390132 M 0.7343749999999737 1.5012037237415075 L 2.821940109288506 1.2862765397111575 M 0.7343749999999737 1.5012037237415075 L 6.854687229564419 5.0189886170684845 M 6.854687229564419 5.0189886170684845 L 8.023055439868665 4.439483109994693 M 6.854687229564419 5.0189886170684845 L 6.854687229564419 13.99871018123886 M 6.854687229564419 13.99871018123886 L 9.5 11.934635084661178 M 6.854687229564419 13.99871018123886 L 4.311917854650922 12.530984638564727 M 4.311917854650922 12.530984638564727 L 0.5 10.330687097999494 M 0.5 10.330687097999494 L 0.7343749999999737 1.5012037237415075 M 4.311917854650922 12.530984638564727 L 4.311917854650922 169.87802450476562 M 4.311917854650922 169.87802450476562 L 4.311917854650922 171.1649874595793 M 8.08812499999997 171.64271097445234 L 4.311917854650922 169.87802450476562 M 4.311917854650922 169.87802450476562 L 3.818019445355754 169.64721729352559 M 3.818019445355754 169.64721729352559 L 1.4232305546442396 171.19482169502015 M 5.627020999999965 173.16048114050602 L 8.08812499999997 171.64271097445234 M 5.627020999999965 173.16048114050602 L 1.4232305546442396 171.19482169502015 M 5.675730554644208 196.5 L 8.08812499999997 194.98222983394635 M 8.08812499999997 194.98222983394635 L 8.08812499999997 171.64271097445234 M 1.4232305546442396 171.19482169502015 L 1.3399764699990961 194.21927303225968 M 1.3399764699990961 194.21927303225968 L 5.675730554644208 196.5 M 5.627020999999965 173.16048114050602 L 5.675730554644208 196.5" style="fill:none;stroke:#000000;stroke-width:1;stroke-linecap:round;stroke-linejoin:round;stroke-miterlimit:3;"/></svg>