<?xml version="1.0" standalone="no"?><!-- Generator: Gravit.io --><svg xmlns="http://www.w3.org/2000/svg" xmlns:xlink="http://www.w3.org/1999/xlink" style="isolation:isolate" width="253.88728979027508" height="229"><path d="M 11.768772331770274 214.82312788897863 C 11.55211094018047 214.0148967908369 11.71879293281211 212.94159222665564 12.140759797555168 212.42781308297285 C 12.562726662298225 211.91403393929005 13.081211769789622 212.15309156278977 13.297873161379432 212.9613226609315 C 13.514534552969236 213.76955375907323 13.347852560337595 214.84285832325452 12.925885695594538 215.35663746693734 C 12.503918830851537 215.8704166106201 11.985433723360085 215.6313589871204 11.768772331770274 214.82312788897863 Z M 11.916728101206019 206.14152667837482 C 11.70006670961621 205.33329558023308 11.866748702247852 204.2599910160518 12.28871556699091 203.746211872369 C 12.710682431733906 203.2324327286862 13.229167539225362 203.4714903521859 13.44582893081517 204.27972145032766 C 13.662490322404977 205.08795254846936 13.495808329773336 206.16125711265067 13.073841465030279 206.6750362563335 C 12.65187460028728 207.18881540001627 12.133389492795825 206.94975777651652 11.916728101206019 206.14152667837482 Z M 15.83198090633088 183.19823409476604 L 15.831980906330879 185.5 M 15.831980906330879 185.5 L 9.625512252494165 182.28913865598383 M 9.625512252494165 182.28913865598383 L 9.53949253240848 223.50000000000003 M 15.83198090633088 183.19823409476604 L 0.621501011405831 175.5 M 0.621501011405831 175.5 L 0.621501011405831 177.5 M 0.621501011405831 177.5 L 6.673962088972667 180.74028214771675 M 6.673962088972667 180.74028214771675 L 6.673962088972667 211.40261227519963 M 6.673962088972667 211.40261227519963 L 6.673962088972667 221.76548933525464 M 6.673962088972667 221.76548933525464 L 0.5 217.12614448405128 M 0.5 217.12614448405128 L 0.5 219.5 M 0.5 219.5 L 12.626849332856942 228.5 M 12.626849332856942 228.5 L 12.626849332856944 226.1423906767683 M 12.626849332856944 226.1423906767683 L 9.650405710914775 223.95394000601146 M 9.650405710914775 223.95394000601146 L 6.673962088972667 221.76548933525464 M 9.53949253240848 223.50000000000003 L 9.650405710914775 223.95394000601146 M 18.96485048321482 201.80439658850682 L 20.106566563335573 200.35195074123263 M 20.106566563335573 200.35195074123263 L 20.19912354820136 200.2342034215222 M 20.19912354820136 200.2342034215222 L 15.598651215069674 196.86950377798374 M 15.598651215069674 196.86950377798374 L 10.625957945948425 200.23420342152224 M 10.625957945948425 200.23420342152224 L 10.625957945948425 202.49999999999997 M 10.625957945948425 202.49999999999997 L 15.3742379305267 199.0004802188914 M 15.3742379305267 199.0004802188914 L 18.96485048321482 201.80439658850682 M 12.626849332856944 226.1423906767683 L 19.528687602769775 220.35780029111555 M 19.528687602769775 220.35780029111555 L 20.21764687755595 219.78036757809363 M 20.21764687755595 219.78036757809363 L 59.92585424811739 186.5 M 59.92585424811739 186.5 L 248.2040199831836 31.294950281147507 M 248.2040199831836 31.294950281147507 L 248.1136928856883 33.326718676570586 M 248.1136928856883 33.326718676570586 L 230.72401050588556 47.50000000000004 M 230.72401050588556 47.50000000000004 L 122.67587561282548 137.5 M 122.67587561282548 137.5 L 12.626849332856942 228.5 M 248.2040199831836 31.294950281147507 L 240.7284674404281 28.97099156541489 M 240.7284674404281 28.97099156541489 L 240.7284674404281 12.50000000000001 M 240.7284674404281 12.50000000000001 L 253.5 2.5616141310927247 M 253.5 2.5616141310927247 L 240.7973822539787 0.5 M 15.83198090633088 183.19823409476604 L 240.7284674404281 12.50000000000001 M 240.7973822539787 0.5 L 0.621501011405831 175.5 M 0.5 217.12614448405128 L 6.673962088972667 211.40261227519963 M 9.53949253240848 223.50000000000003 L 10.542378358328138 222.48907532152998 M 10.542378358328138 222.48907532152998 L 15.374237930526698 217.61848491313754 M 15.374237930526698 217.61848491313754 L 15.497704035614422 217.69989463692977 M 15.497704035614422 217.69989463692977 L 18.8768409165097 219.92799278527758 M 18.8768409165097 219.92799278527758 L 19.528687602769775 220.35780029111555 M 20.106566563335573 200.35195074123263 L 20.162106720445788 210.0661591596631 M 20.162106720445788 210.0661591596631 L 20.21764687755595 219.78036757809363 M 18.96485048321482 201.80439658850682 L 18.8768409165097 219.92799278527758 M 15.3742379305267 199.0004802188914 L 15.497704035614422 217.69989463692977 M 10.625957945948425 202.49999999999997 L 10.542378358328138 222.48907532152998 M 240.7284674404281 28.97099156541489 L 20.162106720445788 210.0661591596631" style="fill:none;stroke:#000000;stroke-width:1;stroke-linecap:round;stroke-miterlimit:3;"/></svg>